<svg xmlns="http://www.w3.org/2000/svg" xmlns:xlink="http://www.w3.org/1999/xlink" viewBox="0 0 1586.91 1159.89"><defs><style>.cls-1,.cls-10,.cls-11,.cls-12,.cls-13,.cls-14,.cls-27,.cls-30,.cls-31,.cls-33,.cls-35,.cls-37,.cls-38,.cls-43,.cls-46,.cls-47,.cls-53,.cls-54,.cls-55,.cls-7,.cls-8,.cls-9{fill:none;}.cls-2{isolation:isolate;}.cls-3{fill:url(#linear-gradient);}.cls-4{fill:#a60303;}.cls-5{fill:#ffb992;}.cls-6{fill:#072547;}.cls-10,.cls-11,.cls-12,.cls-13,.cls-14,.cls-35,.cls-7,.cls-8,.cls-9{stroke:#fe8500;stroke-width:2px;}.cls-10,.cls-11,.cls-12,.cls-13,.cls-14,.cls-27,.cls-30,.cls-31,.cls-33,.cls-35,.cls-37,.cls-38,.cls-43,.cls-46,.cls-7,.cls-8,.cls-9{stroke-linecap:round;}.cls-10,.cls-11,.cls-12,.cls-13,.cls-14,.cls-31,.cls-35,.cls-37,.cls-54,.cls-7,.cls-8,.cls-9{stroke-linejoin:round;}.cls-8{stroke-dasharray:0.03 3.52;}.cls-9{stroke-dasharray:0.03 3.43;}.cls-10{stroke-dasharray:0.03 3.49;}.cls-11{stroke-dasharray:0.03 3.46;}.cls-12{stroke-dasharray:0.03 3.47;}.cls-13{stroke-dasharray:0.03 3.49;}.cls-14{stroke-dasharray:0.03 3.5;}.cls-15{fill:#fc9b00;}.cls-16{fill:#db712a;}.cls-17{fill:#14457f;}.cls-18{fill:#4b8cc6;}.cls-19{fill:#e62b26;}.cls-20{fill:#f76854;}.cls-21{fill:#5cabe5;}.cls-22,.cls-34{fill:#fff;}.cls-23{fill:#fe8500;}.cls-24{fill:#ffde8a;}.cls-25{fill:#ffc88d;}.cls-26{clip-path:url(#clip-path);}.cls-27{stroke:#f76854;}.cls-27,.cls-30,.cls-33,.cls-34,.cls-38,.cls-43,.cls-46,.cls-47,.cls-53,.cls-55{stroke-miterlimit:10;}.cls-28{fill:#9dd7fc;}.cls-29{clip-path:url(#clip-path-2);}.cls-30{stroke:#9dd7fc;}.cls-31{stroke:#14457f;stroke-width:1.5px;}.cls-32{clip-path:url(#clip-path-3);}.cls-33{stroke:#ffc88d;}.cls-34,.cls-38,.cls-43,.cls-55{stroke:#fff;}.cls-35{stroke-dasharray:0.03 3.49;}.cls-36{fill:#f15a24;}.cls-37{stroke:#931c1c;}.cls-38{stroke-width:1.3px;}.cls-39{fill:#d8560e;}.cls-39,.cls-44,.cls-46,.cls-53{opacity:0.35;}.cls-39,.cls-42{mix-blend-mode:multiply;}.cls-40{fill:#601922;}.cls-41{clip-path:url(#clip-path-4);}.cls-42{fill:#931c1c;opacity:0.55;}.cls-45{clip-path:url(#clip-path-5);}.cls-46{stroke:#67cece;stroke-width:5px;}.cls-46,.cls-52,.cls-53{mix-blend-mode:screen;}.cls-47{stroke:#072547;}.cls-48{fill:#011c40;}.cls-49{fill:#ae8b70;}.cls-50{fill:#7d0202;}.cls-51{clip-path:url(#clip-path-6);}.cls-53{stroke:#ff541f;stroke-width:3px;}.cls-54{stroke:#a32626;}.cls-56{fill:#e8b995;}.cls-57{fill:#548fcc;}.cls-58{fill:#175073;}</style><linearGradient id="linear-gradient" x1="-81.3" y1="-60.47" x2="1246.53" y2="1085.47" gradientTransform="matrix(-1, 0, 0, 1, 1586.91, 0)" gradientUnits="userSpaceOnUse"><stop offset="0" stop-color="#ff1e2c"/><stop offset="0.99" stop-color="#c1272d"/></linearGradient><clipPath id="clip-path"><path class="cls-1" d="M1089.35,461c6.39,1.49,13.39,6.43,10.87,17.14-2.26,9.66-13.53,10.16-18.18,16.22a.54.54,0,0,1-1-.23c-1.47-7.49-11.34-12.95-9.08-22.61C1074.5,460.83,1083,459.52,1089.35,461Z"/></clipPath><clipPath id="clip-path-2"><path class="cls-1" d="M1159.23,590.76c10.64.68,23.18,6.71,22,24.56-1,16.08-19,19.91-24.77,30.87a.88.88,0,0,1-1.62-.1c-4.37-11.61-21.66-17.7-20.63-33.79C1135.39,594.45,1148.6,590.08,1159.23,590.76Z"/></clipPath><clipPath id="clip-path-3"><path class="cls-1" d="M1077.42,308.32c8.24,1.29,17.58,6.88,15.42,20.69-1.95,12.46-16.19,14.17-21.49,22.28a.69.69,0,0,1-1.26-.19c-2.57-9.35-15.61-15.33-13.66-27.78C1058.59,309.5,1069.19,307,1077.42,308.32Z"/></clipPath><clipPath id="clip-path-4"><polygon class="cls-1" points="1162.78 814.72 1147.38 725.97 1221.76 725.95 1237.17 814.69 1162.78 814.72"/></clipPath><clipPath id="clip-path-5"><polygon class="cls-1" points="1035.51 744.05 1107.58 744.1 1107.57 766.17 1104.4 766.17 1104.37 814.72 1038.62 814.67 1038.66 766.12 1035.49 766.12 1035.51 744.05"/></clipPath><clipPath id="clip-path-6"><polygon class="cls-1" points="664.79 554.64 709.58 569.79 704.94 583.5 702.97 582.84 692.77 613 651.91 599.19 662.12 569.02 660.15 568.35 664.79 554.64"/></clipPath></defs><title>Asset 2</title><g class="cls-2"><g id="Layer_2" data-name="Layer 2"><g id="Layer_2-2" data-name="Layer 2"><path class="cls-3" d="M4.77,546.93a482.47,482.47,0,0,0,30.6,99.74c85,197.89,275.79,284,269.06,395.07-7.77,128.14,108.13,85.48,108.13,85.48s207.46-73.51,446.84,0,727.51,0,727.51,0V0H304.43S130.55,123.32,239.71,249.11-47.44,275.2,4.77,546.93Z"/><path class="cls-4" d="M304.43,1041.74c-7.77,128.14,108.13,85.48,108.13,85.48s207.46-73.51,446.84,0,727.51,0,727.51,0V745.52l-2.83-69s-396.24-245.66-697-106S463.08,743,302.41,621.67s-267,25-267,25C120.35,844.56,311.16,930.67,304.43,1041.74Z"/><path class="cls-5" d="M1175.41,617.36H1047.93s-1.61,71.62,25.51,118.36h76.45C1177,689,1175.41,617.36,1175.41,617.36Z"/><path class="cls-6" d="M998.74,518.63c.69-2.26,1.32-4.54,1.87-6.84a77.91,77.91,0,0,1-23,11.16c-3.11.91-7.43,1.08-8.58-2-.83-2.18.69-4.49,2.16-6.31a286,286,0,0,1,25.41-27.6c-11,10.85-28.3,13.58-32.89,7.51s34.94-38.1,49.74-62.93c-11,6-31.31,18.2-33.55,11.77s31.79-44.06,47.83-70.22a110.77,110.77,0,0,1-21,10.32c-3.91,1.44-10.09,1.27-10.24-2.89-.06-1.73,1.16-3.21,2.3-4.51l43.22-48.84a31.71,31.71,0,0,1-28.78,2.61l39.11-42c-6.1,3-16,4.31-17.34-2.35-.69-3.45,1.89-6.62,4.29-9.19L1074,239.32c-4.83,3.33-12.78,6-15.4.74-1.62-3.24.47-7,2.5-10l27.82-41.36a41.3,41.3,0,0,1-20.84,3.4,230.82,230.82,0,0,1,25.78-30.9l-11.47-6.32a96.94,96.94,0,0,0,36.11-39.78,106.1,106.1,0,0,0,38.32,44.16,14.86,14.86,0,0,1-16.35-.49c5.25,3.83,9.52,11.24,14.21,15.93,5.53,5.52,11.91,10.05,17.51,15.42,13,12.44-7,16.35-15.88,8.32l30.43,29.72a11.8,11.8,0,0,1,2.79,3.55c2,4.74-3.34,10-8.5,9.86s-9.57-3.54-13.57-6.81q20,25.78,40.09,51.55c1.09,1.41,2.24,3.29,1.38,4.85-.78,1.4-2.67,1.6-4.27,1.59a77.78,77.78,0,0,1-20.79-3l48.54,49a30.05,30.05,0,0,1-22.6-3.79l38.32,35.68c2.13,2,4.45,4.75,3.36,7.45-.85,2.08-3.33,2.89-5.54,3.3a47.79,47.79,0,0,1-33.69-6.48,209.32,209.32,0,0,0,54.4,63.36c3.66,2.84,7.85,7.34,5.58,11.37-1.66,2.93-5.7,3.27-9,3a62.26,62.26,0,0,1-28.65-9.89l49.88,54.18c2.39,2.6,4.91,6.38,3,9.32-1.24,1.86-3.72,2.34-5.95,2.53A57.17,57.17,0,0,1,1244,498.53a140.62,140.62,0,0,0,54.35,68c5.63,3.69,12.26,10.95,7.6,15.81a10.17,10.17,0,0,1-4.85,2.38,57.28,57.28,0,0,1-39.79-3.95l38.1,37.36c6.28,6.15,13.06,15,9,22.79-3.52,6.66-12.72,7.41-20.18,6.38a92.14,92.14,0,0,1-41.08-16.52q4.59,10.6,9.2,21.19c1,2.37,2.08,5,1.5,7.47-1.5,6.53-11,6.1-17.23,3.61a129.83,129.83,0,0,1-49.77-35.42c-.42,5.46,2.44,10.59,3.69,15.93s-.07,12.33-5.31,13.94c-3.29,1-6.78-.56-9.78-2.26-11.61-6.6-22.1-15.1-27.2-27.82q-2.17,7.67-4.34,15.32c-1.12,4-2.27,8-4.62,11.37s-6.16,6-10.27,5.87-7.83-3.15-10.22-6.62c-4.56-6.63-5.68-15-6.67-22.95-3.46,8.4-7.32,17.3-14.89,22.33a9,9,0,0,1-5.16,1.8c-4.89-.2-7-6.14-8-11l-2.22-11.6c-7.91,17.86-21.52,30-37.74,40.33-2.71,1.71-5.66,3.35-8.87,3.37-6.84,0-11.65-7.62-11.21-14.44s4.51-12.81,8.44-18.41A86.92,86.92,0,0,1,994.06,679c-4.74,1.88-11.42,2.68-13.79-1.84-1-1.91-.81-4.2-.47-6.32a56,56,0,0,1,12-26.73c-14.14,11.65-30.57,23.11-48.88,22.2-4.34-.22-9.11-1.45-11.45-5.11-4.89-7.64,5-20.06,9.26-26.4,6.72-10,17.41-17.48,24.52-27.46a31.66,31.66,0,0,1-28,5.37,5.13,5.13,0,0,1-2.43-1.27,4.12,4.12,0,0,1-.93-2.32c-.54-4.46,2.77-8.38,5.86-11.65,8.55-9.05,16.69-19,25.93-27.21A114.85,114.85,0,0,0,998.74,518.63Z"/><path class="cls-7" d="M1215.51,577.57h0"/><path class="cls-8" d="M1213.31,580.33c-15.06,17.89-40.48,29.94-60.2,33.51-20.24,3.66-45.46,4.25-68.89-5.41"/><path class="cls-7" d="M1082.6,607.74h0"/><path class="cls-7" d="M1148.57,179.85h0"/><path class="cls-9" d="M1145.71,181.75c-7.94,4.81-30.75,15.47-46.8-8.78"/><path class="cls-7" d="M1098,171.52h0"/><path class="cls-7" d="M1170,269.49h0"/><path class="cls-10" d="M1168.05,272.44c-24.49,35.42-82.17,32.5-111.57,5"/><path class="cls-7" d="M1055.23,276.2h0"/><path class="cls-7" d="M1223.56,394.42h0"/><path class="cls-11" d="M1222.74,397.78c-2.51,8.49-11.75,30.26-41,32.17-31.24,2-52.29-11.93-57.67-16"/><path class="cls-7" d="M1122.67,412.91h0"/><path class="cls-12" d="M1119.9,415c-8.57,6.13-36.26,23.1-71.4,15.65"/><path class="cls-7" d="M1046.8,430.28h0"/><path class="cls-7" d="M1175.73,515.2h0"/><path class="cls-13" d="M1172.88,517.23c-29,19.11-96.68,20.63-123-19.7"/><path class="cls-7" d="M1048.94,496.05h0"/><path class="cls-14" d="M1046.57,498.63c-9.59,9.38-24.31,12-37.85,14l-6.5,1"/><path class="cls-7" d="M1000.49,513.85h0"/><path class="cls-15" d="M1117.48,79.71c-1.2,0-9.33,18.9-9.33,18.9s-20.86,1.72-20.86,3,15.1,14.71,15.1,14.71-4.51,19.83-3.57,20.77,18.66-9.81,18.66-9.81,17.94,10.53,18.65,9.81-3.56-20.77-3.56-20.77,15.09-13.75,15.09-14.71-20.85-3-20.85-3S1118.67,79.71,1117.48,79.71Z"/><path class="cls-16" d="M1117.25,110.85c-1.81,2.25-3.52,4.58-5.24,6.91-3.24,4.37-6.47,8.75-9.54,13.24-1.34,2-2.63,4-3.78,6.06a.15.15,0,0,0,.26.15c1.08-1.75,2.28-3.42,3.45-5.1,1.54-2.21,3.08-4.43,4.65-6.63,2.86-4,5.78-8,8.7-11.92.61-.82,1.21-1.65,1.8-2.48.12-.18-.16-.4-.3-.23Z"/><path class="cls-16" d="M1117.44,110.8c-2.69-1-5.42-1.82-8.14-2.69-5.08-1.63-10.15-3.26-15.26-4.8q-3.33-1-6.71-1.81a.15.15,0,0,0-.08.29c4.46,1.32,8.89,2.75,13.33,4.13,4.61,1.44,9.21,2.91,13.83,4.35,1,.31,1.94.61,2.93.89.23.07.32-.28.1-.36Z"/><path class="cls-16" d="M1117.57,111c.1-2.68.09-5.36.09-8,0-5.11,0-10.22,0-15.33,0-2.25-.08-4.49-.16-6.74a.15.15,0,0,0-.29,0c-.1,4.47-.12,8.94-.11,13.42s0,9.22,0,13.82c0,1,0,1.92,0,2.87a.19.19,0,0,0,.37,0Z"/><path class="cls-16" d="M1117.44,111.16c2.76-.73,5.5-1.56,8.25-2.38,5.14-1.54,10.29-3.07,15.41-4.7,2.23-.7,4.42-1.47,6.6-2.29.18-.07.11-.35-.07-.29-4.44,1.42-8.9,2.74-13.35,4.1-4.66,1.44-9.33,2.84-14,4.27-1,.3-2,.61-2.94.93a.19.19,0,0,0,.1.36Z"/><path class="cls-16" d="M1117.22,111.08c1.56,2.48,3.23,4.9,4.88,7.32,3.11,4.53,6.23,9.06,9.52,13.46a63,63,0,0,0,4.41,5.38c.13.14.33-.07.21-.21-1.32-1.56-2.5-3.24-3.71-4.88-1.58-2.17-3.17-4.33-4.73-6.52-2.86-4-5.66-8.12-8.47-12.19-.59-.86-1.18-1.71-1.78-2.55-.14-.2-.46,0-.33.19Z"/><path class="cls-16" d="M1117.35,110.87a59.57,59.57,0,0,0-7.71,2.35c-1.47.52-2.94,1.06-4.39,1.65a18.59,18.59,0,0,0-2.92,1.39.11.11,0,0,0,.11.19,49.31,49.31,0,0,1,7.42-3,57.43,57.43,0,0,1,7.56-2.34c.14,0,.08-.25-.07-.22Z"/><path class="cls-16" d="M1117.52,111.6c-.14,2.72-.12,5.44-.14,8.16s0,5.44.14,8.15a.07.07,0,0,0,.13,0c.17-2.71.15-5.44.14-8.15s0-5.44-.14-8.16c0-.08-.12-.08-.13,0Z"/><path class="cls-16" d="M1132.78,115.73c-4-1.32-8.15-2.5-12.22-3.77a.06.06,0,0,0,0,.12c4,1.43,8.07,2.8,12.19,3.86a.11.11,0,0,0,.06-.21Z"/><path class="cls-16" d="M1125.17,99.93c-1.31,1.79-2.63,3.57-4,5.34s-2.76,3.48-4,5.29c-.06.08.07.18.14.11,1.45-1.63,2.75-3.43,4-5.19s2.62-3.66,3.87-5.53c0,0,0,0,0,0Z"/><path class="cls-16" d="M1109.1,99c1.53,2.3,3.07,4.59,4.64,6.88l2.33,3.36a8.12,8.12,0,0,0,2.23,2.47.11.11,0,0,0,.14-.17,67.32,67.32,0,0,1-4.58-6.16c-1.53-2.16-3.09-4.31-4.65-6.45a.07.07,0,1,0-.11.07Z"/><path class="cls-17" d="M1129.74,224.92a11.26,11.26,0,0,0-.9,2.11,9.78,9.78,0,0,0-.32,1.09,2.07,2.07,0,0,0-.06,1.13.24.24,0,0,0,.4.11,2.71,2.71,0,0,0,.44-1c.1-.35.19-.7.3-1.06.21-.71.49-1.4.72-2.1a.32.32,0,0,0-.58-.25Z"/><circle class="cls-18" cx="1126.67" cy="234.55" r="6.4"/><path class="cls-17" d="M1099,206.76a11.66,11.66,0,0,0-.29,2.28,10.11,10.11,0,0,0,0,1.1,2.32,2.32,0,0,0,.25,1.14c.1.14.34.18.42,0a2.33,2.33,0,0,0,.14-1.05v-1.15c0-.74.09-1.49.11-2.23a.32.32,0,0,0-.62-.09Z"/><circle class="cls-18" cx="1098.69" cy="216.88" r="6.4" transform="translate(39.58 580.8) rotate(-30.13)"/><path class="cls-17" d="M1162.19,223.78a11.45,11.45,0,0,0,.9,2.1c.17.32.35.65.55,1a2.18,2.18,0,0,0,.79.86.25.25,0,0,0,.37-.21,2.69,2.69,0,0,0-.43-1c-.19-.33-.39-.65-.57-1-.37-.64-.67-1.32-1-2a.32.32,0,0,0-.58.25Z"/><path class="cls-18" d="M1162.63,237.28a6.4,6.4,0,1,0-.22-9A6.4,6.4,0,0,0,1162.63,237.28Z"/><path class="cls-17" d="M1161.91,296a12,12,0,0,0,.54,2.26,11,11,0,0,0,.42,1.08,2,2,0,0,0,.64.94c.16.12.35,0,.37-.2a2.71,2.71,0,0,0-.29-1.08c-.12-.33-.25-.66-.38-1-.25-.69-.43-1.4-.67-2.1-.11-.31-.67-.29-.63.09Z"/><path class="cls-18" d="M1160.13,309.44a6.39,6.39,0,1,0,1.27-8.95A6.38,6.38,0,0,0,1160.13,309.44Z"/><path class="cls-17" d="M1098.61,330.53a11.73,11.73,0,0,0,1.08,2,10,10,0,0,0,.66.94,2.09,2.09,0,0,0,.87.77c.19.07.33-.14.3-.3a2.59,2.59,0,0,0-.52-.93c-.21-.31-.43-.61-.64-.91-.42-.61-.77-1.25-1.17-1.86-.19-.28-.71-.11-.58.25Z"/><path class="cls-18" d="M1100.2,344a6.4,6.4,0,1,0-1-9A6.39,6.39,0,0,0,1100.2,344Z"/><path class="cls-17" d="M1157.49,476.66a11.61,11.61,0,0,0,.24,2.28A9.62,9.62,0,0,0,1158,480a2.15,2.15,0,0,0,.49,1,.25.25,0,0,0,.41-.11,2.53,2.53,0,0,0-.12-1.09c-.08-.36-.17-.73-.26-1.09-.16-.73-.25-1.47-.39-2.2-.08-.36-.62-.26-.63.09Z"/><path class="cls-18" d="M1153.93,489.68a6.39,6.39,0,1,0,2.46-8.7A6.39,6.39,0,0,0,1153.93,489.68Z"/><path class="cls-17" d="M1064.29,447.34a11.45,11.45,0,0,0-.85,2.12,10.07,10.07,0,0,0-.28,1.08,2.19,2.19,0,0,0-.05,1.16c.06.15.28.26.41.11a2.65,2.65,0,0,0,.41-1.05l.27-1.05c.2-.72.46-1.41.67-2.13a.32.32,0,0,0-.58-.24Z"/><circle class="cls-18" cx="1061.47" cy="457.05" r="6.4" transform="translate(-2.91 907.3) rotate(-46.23)"/><path class="cls-17" d="M986.53,558.59a10.94,10.94,0,0,0-.36,2.28,10.4,10.4,0,0,0,0,1.12,2.17,2.17,0,0,0,.22,1.12.25.25,0,0,0,.42,0,2.65,2.65,0,0,0,.16-1.12l0-1.08c0-.75.13-1.49.18-2.23a.32.32,0,0,0-.62-.09Z"/><path class="cls-18" d="M979.75,570.28a6.4,6.4,0,1,0,4.6-7.79A6.4,6.4,0,0,0,979.75,570.28Z"/><path class="cls-17" d="M1117.53,577.49a10.85,10.85,0,0,0-.36,2.27,10.4,10.4,0,0,0,0,1.12,2.17,2.17,0,0,0,.22,1.12.25.25,0,0,0,.42,0,2.65,2.65,0,0,0,.16-1.12l0-1.08c0-.75.13-1.49.18-2.23a.32.32,0,0,0-.62-.08Z"/><path class="cls-18" d="M1110.75,589.17a6.4,6.4,0,1,0,4.6-7.79A6.4,6.4,0,0,0,1110.75,589.17Z"/><path class="cls-17" d="M1196.14,546.5a11,11,0,0,0,.22,2.29,8.3,8.3,0,0,0,.24,1.1,2.09,2.09,0,0,0,.48,1,.26.26,0,0,0,.41-.11,2.57,2.57,0,0,0-.11-1.1c-.08-.36-.17-.73-.24-1.09-.16-.73-.24-1.47-.38-2.2-.06-.36-.6-.26-.62.08Z"/><path class="cls-18" d="M1192.42,559.48a6.4,6.4,0,1,0,2.56-8.67A6.4,6.4,0,0,0,1192.42,559.48Z"/><path class="cls-17" d="M1278.45,554a11,11,0,0,0-.18,2.29,10.28,10.28,0,0,0,.06,1.1,2.22,2.22,0,0,0,.3,1.13.24.24,0,0,0,.44-.06,2.41,2.41,0,0,0,.06-1.07l-.06-1.1c0-.74,0-1.47,0-2.2,0-.35-.55-.45-.62-.09Z"/><path class="cls-18" d="M1272.63,566.2a6.39,6.39,0,1,0,4-8.13A6.39,6.39,0,0,0,1272.63,566.2Z"/><path class="cls-17" d="M1006.24,416.79a11.1,11.1,0,0,0-1.74,1.47,9.72,9.72,0,0,0-.75.82,2.17,2.17,0,0,0-.59,1c0,.16.1.38.29.3a2.37,2.37,0,0,0,.85-.72c.26-.27.5-.55.75-.82.5-.54,1.06-1,1.57-1.56.25-.25-.07-.7-.38-.5Z"/><path class="cls-18" d="M993.46,421.24a6.4,6.4,0,1,0,8.57-2.9A6.4,6.4,0,0,0,993.46,421.24Z"/><path class="cls-17" d="M1233.58,455.75a11.08,11.08,0,0,0,.57,2.25,9,9,0,0,0,.43,1.08,2.13,2.13,0,0,0,.65.94.25.25,0,0,0,.37-.21,2.61,2.61,0,0,0-.3-1.08l-.39-1c-.26-.69-.46-1.4-.71-2.09a.31.31,0,0,0-.34-.22.31.31,0,0,0-.28.31Z"/><path class="cls-18" d="M1232,469.2a6.4,6.4,0,1,0,1.15-9A6.39,6.39,0,0,0,1232,469.2Z"/><path class="cls-17" d="M1041.62,330.62a11.2,11.2,0,0,0-1,2.06,9.48,9.48,0,0,0-.37,1.06,2.23,2.23,0,0,0-.12,1.14.25.25,0,0,0,.41.1,2.59,2.59,0,0,0,.47-1c.13-.36.24-.71.36-1.06.25-.7.56-1.37.83-2.07.13-.35-.39-.53-.58-.24Z"/><path class="cls-18" d="M1031.7,339.77a6.4,6.4,0,1,0,6.7-6.08A6.39,6.39,0,0,0,1031.7,339.77Z"/><path class="cls-17" d="M1187.22,374.47c.23,1.49.7,2.94,1,4.41.4,1.7.79,3.42,1.2,5.12a46.63,46.63,0,0,0,1.42,4.77,43.5,43.5,0,0,0,2.93,6.93.19.19,0,0,0,.34-.14c-1.16-4-3-7.83-4-11.92-.42-1.71-.79-3.43-1.22-5.13a12.32,12.32,0,0,0-1.47-4.15.15.15,0,0,0-.27.11Z"/><rect class="cls-18" x="1187.12" y="385.65" width="8.57" height="5.97" transform="translate(2443.14 449.16) rotate(164.7)"/><path class="cls-19" d="M1178.94,400.9A15.51,15.51,0,1,0,1196.71,388,15.52,15.52,0,0,0,1178.94,400.9Z"/><path class="cls-20" d="M1202.53,399.55a1.9,1.9,0,1,0,2.18-1.58A1.91,1.91,0,0,0,1202.53,399.55Z"/><path class="cls-20" d="M1192.09,401.45a1.91,1.91,0,1,0,2.18-1.58A1.9,1.9,0,0,0,1192.09,401.45Z"/><path class="cls-20" d="M1199.33,410.7a1.91,1.91,0,1,0,2.19-1.58A1.91,1.91,0,0,0,1199.33,410.7Z"/><path class="cls-20" d="M1182.7,404.71a1.9,1.9,0,1,0,2.18-1.58A1.9,1.9,0,0,0,1182.7,404.71Z"/><path class="cls-20" d="M1188.79,392.45a1.9,1.9,0,1,0,2.18-1.58A1.9,1.9,0,0,0,1188.79,392.45Z"/><path class="cls-20" d="M1190.76,413.19a1.9,1.9,0,1,0,2.18-1.58A1.9,1.9,0,0,0,1190.76,413.19Z"/><path class="cls-17" d="M1164.7,343.45a28.21,28.21,0,0,0-.43,3.68c-.17,1.47-.34,2.93-.49,4.4a38.14,38.14,0,0,0-.22,4.14,32,32,0,0,0,.42,6.42c0,.22.35.15.37,0,.17-2.11,0-4.25,0-6.37,0-1.42.06-2.81.2-4.22s.34-2.93.47-4.4a9.08,9.08,0,0,0,0-3.6.15.15,0,0,0-.29,0Z"/><rect class="cls-18" x="1160.49" y="353.33" width="7.18" height="5" transform="translate(2299.36 794.95) rotate(-175.85)"/><circle class="cls-21" cx="1162.23" cy="368.23" r="12.99" transform="translate(339.89 1268.31) rotate(-65.16)"/><path class="cls-22" d="M1169.82,367.54a1.59,1.59,0,1,0,2.16-.64A1.59,1.59,0,0,0,1169.82,367.54Z"/><path class="cls-22" d="M1161.05,366.13a1.6,1.6,0,1,0,2.8,1.53c.42-.78.43-2-.34-2.38A2.05,2.05,0,0,0,1161.05,366.13Z"/><path class="cls-22" d="M1164.19,375.45a1.59,1.59,0,1,0,2.16-.64A1.58,1.58,0,0,0,1164.19,375.45Z"/><path class="cls-22" d="M1153,365.87a1.6,1.6,0,0,0,2.8,1.53,1.6,1.6,0,1,0-2.8-1.53Z"/><path class="cls-22" d="M1161.25,357.89a1.59,1.59,0,1,0,2.16-.64A1.59,1.59,0,0,0,1161.25,357.89Z"/><path class="cls-22" d="M1156.72,375a1.6,1.6,0,1,0,2.17-.64A1.61,1.61,0,0,0,1156.72,375Z"/><path class="cls-17" d="M1120.85,467.7a28.33,28.33,0,0,0,.38,3.77c.15,1.46.3,2.93.46,4.39s.39,2.69.68,4a31.9,31.9,0,0,0,1.8,6.17c.09.21.37.05.34-.14-.29-2.11-.89-4.17-1.36-6.24a40,40,0,0,1-.71-4.22c-.17-1.45-.3-2.9-.49-4.34a9,9,0,0,0-.83-3.49.14.14,0,0,0-.27.07Z"/><rect class="cls-18" x="1119.32" y="477.42" width="7.18" height="5" transform="translate(2303.42 792.4) rotate(171.69)"/><path class="cls-21" d="M1111.3,488.83a13,13,0,1,0,16.08-8.88A13,13,0,0,0,1111.3,488.83Z"/><path class="cls-22" d="M1131,490.11a1.6,1.6,0,1,0,2-1.09A1.61,1.61,0,0,0,1131,490.11Z"/><path class="cls-22" d="M1122.17,490.63a1.6,1.6,0,0,0,3.07.89c.24-.85,0-2-.85-2.26A2.08,2.08,0,0,0,1122.17,490.63Z"/><path class="cls-22" d="M1127.25,499.05a1.59,1.59,0,1,0,2-1.09A1.59,1.59,0,0,0,1127.25,499.05Z"/><path class="cls-22" d="M1114.28,492.11a1.6,1.6,0,1,0,2-1.09A1.6,1.6,0,0,0,1114.28,492.11Z"/><path class="cls-22" d="M1120.59,482.54a1.59,1.59,0,1,0,3.06.88,1.59,1.59,0,0,0-3.06-.88Z"/><path class="cls-22" d="M1119.87,500.25a1.59,1.59,0,1,0,2-1.09A1.59,1.59,0,0,0,1119.87,500.25Z"/><path class="cls-17" d="M1211.77,492.72c.25,1.3.64,2.57,1,3.85.4,1.63.78,3.27,1.15,4.9s.71,3.1,1.12,4.64c.45,1.71,1.06,3.38,1.67,5a56.5,56.5,0,0,0,3.1,7.3.19.19,0,0,0,.34-.14c-1.26-4-3.1-7.93-4.24-12-.87-3.12-1.48-6.31-2.3-9.44a14.61,14.61,0,0,0-1.52-4.24.15.15,0,0,0-.27.11Z"/><rect class="cls-18" x="1211.62" y="506.29" width="10.4" height="7.24" transform="matrix(-0.96, 0.26, -0.26, -0.96, 2525.05, 680.71)"/><circle class="cls-23" cx="1220.27" cy="527.74" r="18.81" transform="translate(485.87 1636) rotate(-79.86)"/><path class="cls-24" d="M1230.3,523.14a2.31,2.31,0,1,0,2.65-1.92A2.31,2.31,0,0,0,1230.3,523.14Z"/><path class="cls-24" d="M1217.64,525.45a2.31,2.31,0,1,0,2.65-1.92A2.31,2.31,0,0,0,1217.64,525.45Z"/><path class="cls-24" d="M1226.42,536.66a2.31,2.31,0,1,0,2.65-1.92A2.32,2.32,0,0,0,1226.42,536.66Z"/><path class="cls-24" d="M1206.25,529.4a2.31,2.31,0,1,0,2.65-1.92A2.32,2.32,0,0,0,1206.25,529.4Z"/><path class="cls-24" d="M1213.64,514.53a2.31,2.31,0,1,0,2.64-1.91A2.3,2.3,0,0,0,1213.64,514.53Z"/><path class="cls-24" d="M1216,539.68a2.31,2.31,0,1,0,2.65-1.92A2.31,2.31,0,0,0,1216,539.68Z"/><path class="cls-17" d="M1110.15,215.71c-.3,1.2-.44,2.41-.65,3.62-.28,1.52-.57,3-.86,4.53a72.32,72.32,0,0,0-1.26,9,49.07,49.07,0,0,0-.11,7.57.19.19,0,0,0,.37,0c.48-3.93.36-7.93.95-11.85.44-3,1.11-5.87,1.58-8.82a12.35,12.35,0,0,0,.26-4.06c0-.15-.25-.13-.28,0Z"/><rect class="cls-18" x="1103.19" y="228.8" width="9.61" height="6.69" transform="translate(2168.91 627.07) rotate(-171.42)"/><path class="cls-19" d="M1089.65,239a17.38,17.38,0,1,0,24-5.12A17.39,17.39,0,0,0,1089.65,239Z"/><path class="cls-20" d="M1114.44,248.36a2.13,2.13,0,1,0,3-.63A2.13,2.13,0,0,0,1114.44,248.36Z"/><path class="cls-20" d="M1102.88,245.57a2.14,2.14,0,1,0,2.95-.62A2.14,2.14,0,0,0,1102.88,245.57Z"/><path class="cls-20" d="M1106.1,258.33a2.14,2.14,0,1,0,3-.63A2.13,2.13,0,0,0,1106.1,258.33Z"/><path class="cls-20" d="M1091.78,244.65a2.14,2.14,0,1,0,3-.62A2.14,2.14,0,0,0,1091.78,244.65Z"/><path class="cls-20" d="M1103.57,234.86a2.14,2.14,0,1,0,3-.63A2.13,2.13,0,0,0,1103.57,234.86Z"/><path class="cls-20" d="M1096.19,257a2.13,2.13,0,1,0,3-.63A2.12,2.12,0,0,0,1096.19,257Z"/><path class="cls-18" d="M1092.67,446.11c-.71,2.74-1.41,5.48-2.06,8.24a80.07,80.07,0,0,0-1.77,8.1c0,.21.28.22.34.05a77.08,77.08,0,0,0,2-8.12c.64-2.72,1.22-5.45,1.8-8.18,0-.22-.29-.31-.34-.09Z"/><rect class="cls-18" x="1084.25" y="458.27" width="10.2" height="5.5" transform="translate(2044.72 1158.51) rotate(-166.81)"/><path class="cls-19" d="M1089.35,461c6.39,1.49,13.39,6.43,10.87,17.14-2.26,9.66-13.53,10.16-18.18,16.22a.54.54,0,0,1-1-.23c-1.47-7.49-11.34-12.95-9.08-22.61C1074.5,460.83,1083,459.52,1089.35,461Z"/><path class="cls-25" d="M1092.44,483.33a1.33,1.33,0,0,0,2.58.61,1.33,1.33,0,1,0-2.58-.61Z"/><path class="cls-25" d="M1086.08,482.91a1.33,1.33,0,1,0,1.6-1A1.33,1.33,0,0,0,1086.08,482.91Z"/><path class="cls-25" d="M1080,481.47a1.33,1.33,0,1,0,1.59-1A1.32,1.32,0,0,0,1080,481.47Z"/><path class="cls-25" d="M1079.5,466.3a1.33,1.33,0,1,0,1.6-1A1.33,1.33,0,0,0,1079.5,466.3Z"/><path class="cls-25" d="M1094.56,468.47a1.32,1.32,0,1,0,1.59-1A1.31,1.31,0,0,0,1094.56,468.47Z"/><path class="cls-25" d="M1074.09,479a1.32,1.32,0,1,0,1.59-1A1.31,1.31,0,0,0,1074.09,479Z"/><g class="cls-26"><path class="cls-27" d="M1103.1,473.47c-3.71-.84-6.38,5.69-9.58,3.61-1.72-1.11-1.89-3.49-3.08-5a4.44,4.44,0,0,0-6.94-.35c-1.1,1.19-2.16,3.57-4.14,3.23-2.38-.42-2-3.8-2.72-5.51a5.11,5.11,0,0,0-4-3.5,7.68,7.68,0,0,0-6.2,1.92"/></g><path class="cls-22" d="M1150.07,442.59a2,2,0,1,0,2-2A2,2,0,0,0,1150.07,442.59Z"/><path class="cls-22" d="M1196.05,502.72a2,2,0,1,0,2-2A2,2,0,0,0,1196.05,502.72Z"/><path class="cls-22" d="M1057.79,555a2,2,0,1,0,2-2A2,2,0,0,0,1057.79,555Z"/><path class="cls-22" d="M1097.11,625.46a2,2,0,1,0,2-2A2,2,0,0,0,1097.11,625.46Z"/><path class="cls-22" d="M1195.84,621.05a2,2,0,1,0,2-2A2,2,0,0,0,1195.84,621.05Z"/><path class="cls-22" d="M1156.67,602.45a2,2,0,1,0,2-2A2,2,0,0,0,1156.67,602.45Z"/><path class="cls-22" d="M1034.05,493a2,2,0,1,0,2-2A2,2,0,0,0,1034.05,493Z"/><path class="cls-22" d="M1087.14,384.73a2,2,0,1,0,2-2A2,2,0,0,0,1087.14,384.73Z"/><path class="cls-22" d="M1088,511.28a3.17,3.17,0,1,0,3.17-3.17A3.17,3.17,0,0,0,1088,511.28Z"/><path class="cls-22" d="M1138.94,255.39a3.17,3.17,0,1,0,3.17-3.17A3.17,3.17,0,0,0,1138.94,255.39Z"/><path class="cls-22" d="M1068.49,370.72a2,2,0,1,0,2-2A2,2,0,0,0,1068.49,370.72Z"/><path class="cls-22" d="M1145.41,334.41a2,2,0,1,0,2-2A2,2,0,0,0,1145.41,334.41Z"/><path class="cls-22" d="M1136.42,351.62a2,2,0,1,0,2-2A2,2,0,0,0,1136.42,351.62Z"/><path class="cls-22" d="M1118.25,275.38a2,2,0,1,0,2-2A2,2,0,0,0,1118.25,275.38Z"/><path class="cls-22" d="M1194.47,360.12a2,2,0,1,0,2-2A2,2,0,0,0,1194.47,360.12Z"/><path class="cls-22" d="M1069.89,270.46a2,2,0,1,0,2-2A2,2,0,0,0,1069.89,270.46Z"/><path class="cls-22" d="M1120.93,160.24a2,2,0,1,0,2-2A2,2,0,0,0,1120.93,160.24Z"/><path class="cls-22" d="M1104,194.25a2,2,0,1,0,2-2A2,2,0,0,0,1104,194.25Z"/><rect class="cls-22" x="1030.08" y="444.87" width="0.91" height="17.75"/><rect class="cls-22" x="1029.85" y="444.87" width="1.36" height="17.75"/><circle class="cls-22" cx="1030.53" cy="462.62" r="0.94"/><circle class="cls-22" cx="1030.53" cy="444.37" r="0.94"/><rect class="cls-22" x="1021.41" y="453.04" width="17.75" height="0.91"/><rect class="cls-22" x="1021.41" y="452.82" width="17.75" height="1.36"/><circle class="cls-22" cx="1021.41" cy="453.5" r="0.94"/><circle class="cls-22" cx="1039.65" cy="453.5" r="0.94"/><rect class="cls-22" x="1029.9" y="444.45" width="0.91" height="17.75" transform="translate(-18.76 861.35) rotate(-45)"/><rect class="cls-22" x="1029.68" y="444.45" width="1.36" height="17.75" transform="translate(-19.11 860.46) rotate(-44.95)"/><circle class="cls-22" cx="1024.08" cy="447.05" r="0.94"/><path class="cls-22" d="M1037.64,459.28a.94.94,0,0,0-1.32,1.33.92.92,0,0,0,1.32,0A.94.94,0,0,0,1037.64,459.28Z"/><rect class="cls-22" x="1021.83" y="452.87" width="17.75" height="0.91" transform="translate(-18.66 861.59) rotate(-45)"/><rect class="cls-22" x="1021.83" y="452.64" width="17.75" height="1.36" transform="translate(-18.66 861.59) rotate(-45)"/><path class="cls-22" d="M1037.64,447.71a.94.94,0,1,0-1.32,0A.92.92,0,0,0,1037.64,447.71Z"/><path class="cls-22" d="M1024.74,460.61a.94.94,0,1,0-1.32,0A.92.92,0,0,0,1024.74,460.61Z"/><rect class="cls-22" x="1236.75" y="591.32" width="0.56" height="15.93"/><rect class="cls-22" x="1236.61" y="591.32" width="0.84" height="15.93"/><path class="cls-22" d="M1236.19,607.25a.84.84,0,1,0,.84-.84A.84.84,0,0,0,1236.19,607.25Z"/><path class="cls-22" d="M1236.19,590.88a.84.84,0,1,0,.84-.84A.84.84,0,0,0,1236.19,590.88Z"/><rect class="cls-22" x="1228.85" y="598.79" width="15.93" height="0.56"/><rect class="cls-22" x="1228.85" y="598.65" width="15.93" height="0.84"/><circle class="cls-22" cx="1228.85" cy="599.07" r="0.84"/><path class="cls-22" d="M1245.22,598.22a.85.85,0,1,0,.84.85A.84.84,0,0,0,1245.22,598.22Z"/><rect class="cls-22" x="1236.6" y="590.94" width="0.56" height="15.93" transform="translate(-61.22 1050.02) rotate(-45)"/><rect class="cls-22" x="1236.46" y="590.94" width="0.84" height="15.93" transform="translate(-61.57 1049.03) rotate(-44.96)"/><path class="cls-22" d="M1231.84,592.68a.84.84,0,1,0,0,1.19A.84.84,0,0,0,1231.84,592.68Z"/><path class="cls-22" d="M1243.42,604.26a.84.84,0,1,0,0,1.19A.86.86,0,0,0,1243.42,604.26Z"/><rect class="cls-22" x="1229.22" y="598.63" width="15.93" height="0.56" transform="translate(-61.12 1050.27) rotate(-45)"/><rect class="cls-22" x="1229.22" y="598.49" width="15.93" height="0.84" transform="translate(-61.12 1050.27) rotate(-45)"/><path class="cls-22" d="M1243.42,593.87a.86.86,0,0,0,0-1.19.84.84,0,1,0,0,1.19Z"/><path class="cls-22" d="M1231.84,605.45a.84.84,0,1,0-1.19,0A.84.84,0,0,0,1231.84,605.45Z"/><rect class="cls-22" x="1113.77" y="547.59" width="0.91" height="17.75"/><rect class="cls-22" x="1113.54" y="547.59" width="1.36" height="17.75"/><path class="cls-22" d="M1113.28,565.35a.94.94,0,1,0,.94-.94A.94.94,0,0,0,1113.28,565.35Z"/><path class="cls-22" d="M1113.28,547.1a.94.94,0,1,0,.94-.94A.94.94,0,0,0,1113.28,547.1Z"/><rect class="cls-22" x="1105.1" y="555.77" width="17.75" height="0.91"/><rect class="cls-22" x="1105.1" y="555.54" width="17.75" height="1.36"/><path class="cls-22" d="M1105.1,555.29a.94.94,0,1,0,.94.93A.94.94,0,0,0,1105.1,555.29Z"/><path class="cls-22" d="M1123.34,555.29a.94.94,0,1,0,.94.93A.94.94,0,0,0,1123.34,555.29Z"/><rect class="cls-22" x="1113.59" y="547.17" width="0.91" height="17.75" transform="translate(-66.89 950.61) rotate(-45)"/><rect class="cls-22" x="1113.37" y="547.17" width="1.36" height="17.75" transform="translate(-66.52 951.73) rotate(-45.05)"/><circle class="cls-22" cx="1107.77" cy="549.77" r="0.94"/><path class="cls-22" d="M1121.33,562a.92.92,0,0,0-1.32,0,.94.94,0,1,0,1.32,0Z"/><rect class="cls-22" x="1105.52" y="555.6" width="17.75" height="0.91" transform="translate(-66.82 950.77) rotate(-45)"/><rect class="cls-22" x="1105.52" y="555.37" width="17.75" height="1.36" transform="translate(-66.81 950.78) rotate(-45)"/><circle class="cls-22" cx="1120.67" cy="549.77" r="0.94"/><path class="cls-22" d="M1108.43,563.34a.94.94,0,0,0,0-1.33.92.92,0,0,0-1.32,0,.94.94,0,0,0,1.32,1.33Z"/><rect class="cls-22" x="1040.03" y="401.12" width="0.68" height="13.23"/><rect class="cls-22" x="1039.86" y="401.12" width="1.01" height="13.23"/><path class="cls-22" d="M1039.67,414.36a.7.7,0,1,0,.7-.7A.7.7,0,0,0,1039.67,414.36Z"/><path class="cls-22" d="M1039.67,400.76a.7.7,0,1,0,.7-.7A.7.7,0,0,0,1039.67,400.76Z"/><rect class="cls-22" x="1033.57" y="407.22" width="13.23" height="0.68"/><rect class="cls-22" x="1033.57" y="407.05" width="13.23" height="1.01"/><path class="cls-22" d="M1033.57,406.86a.7.7,0,0,0,0,1.4.7.7,0,1,0,0-1.4Z"/><path class="cls-22" d="M1047.17,406.86a.7.7,0,0,0,0,1.4.7.7,0,0,0,0-1.4Z"/><rect class="cls-22" x="1039.9" y="400.81" width="0.68" height="13.23" transform="translate(16.58 854.89) rotate(-45)"/><rect class="cls-22" x="1039.73" y="400.81" width="1.01" height="13.23" transform="translate(16.98 855.81) rotate(-45.05)"/><path class="cls-22" d="M1036.05,402.25a.7.7,0,1,0-1,1,.7.7,0,0,0,1-1Z"/><path class="cls-22" d="M1045.67,411.87a.7.7,0,1,0,0,1A.71.71,0,0,0,1045.67,411.87Z"/><rect class="cls-22" x="1033.88" y="407.09" width="13.23" height="0.68" transform="translate(16.62 854.99) rotate(-45)"/><rect class="cls-22" x="1033.88" y="406.92" width="13.23" height="1.01" transform="translate(16.63 855.01) rotate(-45)"/><path class="cls-22" d="M1045.67,403.24a.7.7,0,1,0-1,0A.69.69,0,0,0,1045.67,403.24Z"/><path class="cls-22" d="M1036.05,412.86a.69.69,0,0,0,0-1,.7.7,0,1,0,0,1Z"/><rect class="cls-22" x="1090.78" y="272.92" width="0.68" height="13.23"/><rect class="cls-22" x="1090.61" y="272.92" width="1.01" height="13.23"/><path class="cls-22" d="M1090.42,286.15a.7.7,0,1,0,.7-.7A.7.7,0,0,0,1090.42,286.15Z"/><path class="cls-22" d="M1090.42,272.55a.7.7,0,1,0,1.4,0,.7.7,0,0,0-1.4,0Z"/><rect class="cls-22" x="1084.32" y="279.01" width="13.23" height="0.68"/><rect class="cls-22" x="1084.32" y="278.84" width="13.23" height="1.01"/><path class="cls-22" d="M1084.32,278.65a.7.7,0,1,0,.7.7A.7.7,0,0,0,1084.32,278.65Z"/><path class="cls-22" d="M1097.92,278.65a.7.7,0,1,0,.7.7A.7.7,0,0,0,1097.92,278.65Z"/><rect class="cls-22" x="1090.65" y="272.61" width="0.68" height="13.23" transform="translate(121.89 852.86) rotate(-44.98)"/><rect class="cls-22" x="1090.48" y="272.61" width="1.01" height="13.23" transform="translate(122.69 854.21) rotate(-45.06)"/><path class="cls-22" d="M1086.8,274.05a.7.7,0,1,0,0,1A.69.69,0,0,0,1086.8,274.05Z"/><path class="cls-22" d="M1096.42,283.66a.7.7,0,0,0-1,1,.69.69,0,0,0,1,0A.71.71,0,0,0,1096.42,283.66Z"/><rect class="cls-22" x="1084.63" y="278.88" width="13.23" height="0.68" transform="translate(122.13 853.33) rotate(-45)"/><rect class="cls-22" x="1084.63" y="278.71" width="13.23" height="1.01" transform="translate(122.13 853.33) rotate(-45)"/><path class="cls-22" d="M1096.42,275a.7.7,0,1,0-1,0A.71.71,0,0,0,1096.42,275Z"/><path class="cls-22" d="M1086.8,284.65a.69.69,0,0,0,0-1,.7.7,0,1,0-1,1A.69.69,0,0,0,1086.8,284.65Z"/><rect class="cls-22" x="1046.03" y="600.6" width="0.68" height="13.23"/><rect class="cls-22" x="1045.86" y="600.6" width="1.01" height="13.23"/><path class="cls-22" d="M1045.67,613.84a.7.7,0,1,0,.7-.7A.7.7,0,0,0,1045.67,613.84Z"/><path class="cls-22" d="M1045.67,600.24a.7.7,0,1,0,.7-.7A.7.7,0,0,0,1045.67,600.24Z"/><rect class="cls-22" x="1039.57" y="606.7" width="13.23" height="0.68"/><rect class="cls-22" x="1039.57" y="606.53" width="13.23" height="1.01"/><path class="cls-22" d="M1039.57,606.34a.7.7,0,1,0,.7.7A.7.7,0,0,0,1039.57,606.34Z"/><path class="cls-22" d="M1053.17,606.34a.7.7,0,1,0,0,1.4.7.7,0,1,0,0-1.4Z"/><rect class="cls-22" x="1045.9" y="600.29" width="0.68" height="13.23" transform="translate(-122.77 917.34) rotate(-44.99)"/><rect class="cls-22" x="1045.73" y="600.29" width="1.01" height="13.23" transform="translate(-122.4 918.75) rotate(-45.06)"/><path class="cls-22" d="M1042.06,601.74a.69.69,0,0,0-1,0,.68.68,0,0,0,0,1,.7.7,0,1,0,1-1Z"/><path class="cls-22" d="M1051.67,611.35a.7.7,0,1,0,0,1A.71.71,0,0,0,1051.67,611.35Z"/><rect class="cls-22" x="1039.88" y="606.57" width="13.23" height="0.68" transform="translate(-122.66 917.67) rotate(-45)"/><rect class="cls-22" x="1039.88" y="606.4" width="13.23" height="1.01" transform="translate(-122.66 917.65) rotate(-45)"/><path class="cls-22" d="M1051.67,602.72a.7.7,0,1,0-1,0A.69.69,0,0,0,1051.67,602.72Z"/><path class="cls-22" d="M1042.06,612.34a.7.7,0,1,0-1-1,.69.69,0,0,0,0,1A.71.71,0,0,0,1042.06,612.34Z"/><rect class="cls-22" x="1198.88" y="434.89" width="0.91" height="28.55"/><rect class="cls-22" x="1198.65" y="434.89" width="1.36" height="28.55"/><path class="cls-22" d="M1197.83,463.44a1.51,1.51,0,1,0,1.5-1.51A1.5,1.5,0,0,0,1197.83,463.44Z"/><path class="cls-22" d="M1197.83,434.1a1.51,1.51,0,1,0,1.5-1.51A1.51,1.51,0,0,0,1197.83,434.1Z"/><rect class="cls-22" x="1184.67" y="448.31" width="28.55" height="0.91"/><rect class="cls-22" x="1184.67" y="448.09" width="28.55" height="1.36"/><path class="cls-22" d="M1184.67,447.26a1.51,1.51,0,1,0,1.51,1.51A1.51,1.51,0,0,0,1184.67,447.26Z"/><path class="cls-22" d="M1214,447.26a1.51,1.51,0,1,0,1.51,1.51A1.52,1.52,0,0,0,1214,447.26Z"/><rect class="cls-22" x="1198.6" y="434.22" width="0.91" height="28.54" transform="translate(33.99 979.05) rotate(-44.99)"/><rect class="cls-22" x="1198.37" y="434.22" width="1.36" height="28.54" transform="translate(34.62 980.43) rotate(-45.06)"/><circle class="cls-22" cx="1188.96" cy="438.4" r="1.51"/><circle class="cls-22" cx="1209.71" cy="459.14" r="1.51"/><rect class="cls-22" x="1185.34" y="448.04" width="28.54" height="0.91" transform="translate(34.22 979.59) rotate(-45)"/><rect class="cls-22" x="1185.34" y="447.81" width="28.54" height="1.36" transform="translate(34.23 979.62) rotate(-45)"/><circle class="cls-22" cx="1209.71" cy="438.4" r="1.51"/><circle class="cls-22" cx="1188.96" cy="459.14" r="1.51"/><rect class="cls-22" x="1136.74" y="184.66" width="0.91" height="22.14"/><rect class="cls-22" x="1136.51" y="184.66" width="1.36" height="22.14"/><path class="cls-22" d="M1136,206.8a1.17,1.17,0,1,0,1.17-1.17A1.17,1.17,0,0,0,1136,206.8Z"/><path class="cls-22" d="M1136,184.05a1.17,1.17,0,1,0,2.34,0,1.17,1.17,0,0,0-2.34,0Z"/><rect class="cls-22" x="1125.82" y="194.97" width="22.14" height="0.91"/><rect class="cls-22" x="1125.82" y="194.74" width="22.14" height="1.36"/><path class="cls-22" d="M1125.82,194.25a1.17,1.17,0,1,0,1.17,1.17A1.17,1.17,0,0,0,1125.82,194.25Z"/><path class="cls-22" d="M1148.57,194.25a1.17,1.17,0,0,0,0,2.34,1.17,1.17,0,1,0,0-2.34Z"/><rect class="cls-22" x="1136.52" y="184.14" width="0.91" height="22.14" transform="translate(194.98 861.14) rotate(-45)"/><rect class="cls-22" x="1136.3" y="184.14" width="1.36" height="22.14" transform="translate(194.98 861.14) rotate(-45)"/><path class="cls-22" d="M1130,186.55a1.17,1.17,0,0,0-1.66,0,1.17,1.17,0,1,0,1.66,0Z"/><path class="cls-22" d="M1146.07,202.64a1.17,1.17,0,0,0-1.66,0,1.16,1.16,0,0,0,0,1.65,1.17,1.17,0,0,0,1.66-1.65Z"/><rect class="cls-22" x="1126.34" y="194.75" width="22.14" height="0.91" transform="translate(195.11 861.44) rotate(-45)"/><rect class="cls-22" x="1126.34" y="194.53" width="22.14" height="1.36" transform="translate(195.13 861.48) rotate(-45)"/><path class="cls-22" d="M1146.07,188.21a1.19,1.19,0,0,0,0-1.66,1.17,1.17,0,1,0-1.66,1.66A1.19,1.19,0,0,0,1146.07,188.21Z"/><path class="cls-22" d="M1130,204.29a1.17,1.17,0,1,0-1.66,0A1.18,1.18,0,0,0,1130,204.29Z"/><rect class="cls-22" x="1119.1" y="369.81" width="0.91" height="25.94"/><rect class="cls-22" x="1118.87" y="369.81" width="1.36" height="25.94"/><path class="cls-22" d="M1118.18,395.75a1.38,1.38,0,1,0,1.37-1.38A1.38,1.38,0,0,0,1118.18,395.75Z"/><path class="cls-22" d="M1118.18,369.09a1.38,1.38,0,1,0,1.37-1.37A1.37,1.37,0,0,0,1118.18,369.09Z"/><rect class="cls-22" x="1106.23" y="381.96" width="25.94" height="0.91"/><rect class="cls-22" x="1106.23" y="381.74" width="25.94" height="1.36"/><path class="cls-22" d="M1106.23,381.05a1.37,1.37,0,1,0,1.37,1.37A1.37,1.37,0,0,0,1106.23,381.05Z"/><path class="cls-22" d="M1132.88,381.05a1.37,1.37,0,1,0,1.37,1.37A1.37,1.37,0,0,0,1132.88,381.05Z"/><rect class="cls-22" x="1118.85" y="369.19" width="0.91" height="25.94" transform="translate(57.68 903.55) rotate(-45.01)"/><rect class="cls-22" x="1118.62" y="369.19" width="1.36" height="25.94" transform="translate(57.56 903.3) rotate(-44.99)"/><path class="cls-22" d="M1111.1,372a1.37,1.37,0,0,0-1.94,1.94,1.36,1.36,0,0,0,1.94,0A1.38,1.38,0,0,0,1111.1,372Z"/><path class="cls-22" d="M1130,390.87a1.38,1.38,0,0,0-1.94,0,1.37,1.37,0,1,0,1.94,1.94A1.38,1.38,0,0,0,1130,390.87Z"/><rect class="cls-22" x="1106.84" y="381.71" width="25.94" height="0.91" transform="translate(57.74 903.74) rotate(-45)"/><rect class="cls-22" x="1106.84" y="381.48" width="25.94" height="1.36" transform="translate(57.74 903.73) rotate(-45)"/><path class="cls-22" d="M1130,374A1.37,1.37,0,0,0,1128,372,1.37,1.37,0,1,0,1130,374Z"/><path class="cls-22" d="M1111.1,392.81a1.37,1.37,0,1,0-1.94,0A1.36,1.36,0,0,0,1111.1,392.81Z"/><path class="cls-18" d="M1160.64,566c-.35,4.52-.69,9-1,13.57s-.75,9-.74,13.58c0,.22.31.21.34,0,.58-4.5.71-9.06,1-13.58s.52-9.05.75-13.57c0-.23-.34-.23-.36,0Z"/><rect class="cls-18" x="1150.95" y="586.29" width="16.57" height="8.93" transform="matrix(-1, -0.06, 0.06, -1, 2278.25, 1254.54)"/><path class="cls-21" d="M1159.23,590.76c10.64.68,23.18,6.71,22,24.56-1,16.08-19,19.91-24.77,30.87a.88.88,0,0,1-1.62-.1c-4.37-11.61-21.66-17.7-20.63-33.79C1135.39,594.45,1148.6,590.08,1159.23,590.76Z"/><path class="cls-28" d="M1170.17,625.69a2.16,2.16,0,1,0,2.29-2A2.15,2.15,0,0,0,1170.17,625.69Z"/><path class="cls-28" d="M1159.88,626.72a2.15,2.15,0,1,0,2.29-2A2.16,2.16,0,0,0,1159.88,626.72Z"/><path class="cls-28" d="M1149.69,626.07a2.16,2.16,0,1,0,2.29-2A2.15,2.15,0,0,0,1149.69,626.07Z"/><path class="cls-28" d="M1144.86,601.88a2.16,2.16,0,1,0,2.29-2A2.17,2.17,0,0,0,1144.86,601.88Z"/><path class="cls-28" d="M1169.57,601.3a2.16,2.16,0,1,0,2.29-2A2.17,2.17,0,0,0,1169.57,601.3Z"/><path class="cls-28" d="M1139.61,623.73a2.16,2.16,0,1,0,2.29-2A2.16,2.16,0,0,0,1139.61,623.73Z"/><g class="cls-29"><path class="cls-30" d="M1184.61,607c-6.16-.34-8.69,10.84-14.38,8.37-3.06-1.33-4-5.08-6.29-7.22a7.22,7.22,0,0,0-11.21,1.3c-1.44,2.21-2.51,6.31-5.77,6.29-3.93,0-4.27-5.54-5.84-8.09-1.71-2.79-4-4.53-7.37-4.54a12.49,12.49,0,0,0-9.42,4.74"/></g><path class="cls-31" d="M1173.9,216.82a42.47,42.47,0,0,1-29.83,10.73c-18.93-.85-34.89-14.3-50.67-25.42-3.38-2.38-7.21-4.78-11.22-4.13s-7.26,6.11-4.64,9.39"/><path class="cls-31" d="M1181.76,254.55c17.51,13.48-29.19,50.41-39,56.86-27.92,18.29-72.74,30.8-105,17.15"/><path class="cls-31" d="M1003.42,407.17c6.2,26.11,50.89,45.31,89.73,39.74,20.68,21,39.63,28.71,68.43,30,31.65,1.46,65.26-14,79.45-26.58"/><path class="cls-31" d="M1284.41,551.83c-26.3,12-63.82,9.7-88.16-5.92-22,21-67.26,31.43-102.08,32.82-37.52,1.49-63.31-2.77-93.57-20.05-7.75-4.43-19.28-7.27-29.55-3.64"/><path class="cls-18" d="M1080.25,289.11q-.93,5.29-1.78,10.6c-.55,3.47-1.25,7-1.51,10.47a.17.17,0,0,0,.34,0c.83-3.43,1.23-7,1.76-10.47s1-7,1.53-10.55c0-.22-.3-.32-.34-.09Z"/><rect class="cls-18" x="1070.94" y="304.83" width="12.96" height="6.99" transform="translate(2094.3 779.35) rotate(-171.11)"/><path class="cls-23" d="M1077.42,308.32c8.24,1.29,17.58,6.88,15.42,20.69-1.95,12.46-16.19,14.17-21.49,22.28a.69.69,0,0,1-1.26-.19c-2.57-9.35-15.61-15.33-13.66-27.78C1058.59,309.5,1069.19,307,1077.42,308.32Z"/><path class="cls-25" d="M1083.46,336.3a1.69,1.69,0,1,0,3.33.52,1.69,1.69,0,0,0-3.33-.52Z"/><path class="cls-25" d="M1075.37,336.38a1.69,1.69,0,1,0,1.93-1.41A1.68,1.68,0,0,0,1075.37,336.38Z"/><path class="cls-25" d="M1067.48,335.14a1.69,1.69,0,1,0,1.93-1.4A1.69,1.69,0,0,0,1067.48,335.14Z"/><path class="cls-25" d="M1065.44,316a1.69,1.69,0,1,0,1.93-1.41A1.7,1.7,0,0,0,1065.44,316Z"/><path class="cls-25" d="M1084.73,317.27a1.69,1.69,0,1,0,1.93-1.41A1.68,1.68,0,0,0,1084.73,317.27Z"/><path class="cls-25" d="M1059.8,332.6a1.69,1.69,0,0,0,1.41,1.93,1.69,1.69,0,1,0-1.41-1.93Z"/><g class="cls-32"><path class="cls-33" d="M1096,322.79c-4.77-.71-7.54,7.82-11.79,5.49-2.29-1.25-2.72-4.24-4.38-6.06a5.65,5.65,0,0,0-8.83.21c-1.28,1.62-2.4,4.74-4.94,4.49-3.06-.31-2.93-4.62-4-6.72-1.14-2.29-2.79-3.81-5.42-4.06a9.77,9.77,0,0,0-7.67,3"/></g><path class="cls-22" d="M1236.48,792.53a9.62,9.62,0,0,0,1.59-1.25,7.49,7.49,0,0,0,.68-.7,1.73,1.73,0,0,0,.53-.92.25.25,0,0,0-.31-.24,2,2,0,0,0-.8.61l-.67.69c-.45.45-1,.86-1.41,1.31a.32.32,0,0,0,.39.5Z"/><path class="cls-34" d="M1247.71,789a5.57,5.57,0,1,0-7.55,2.26A5.57,5.57,0,0,0,1247.71,789Z"/><path class="cls-22" d="M1027.51,798.94a8.7,8.7,0,0,0-1.15,1.67,7.18,7.18,0,0,0-.46.92,1.58,1.58,0,0,0-.21,1,.25.25,0,0,0,.36.15,1.91,1.91,0,0,0,.56-.78c.15-.29.29-.59.44-.88.3-.58.65-1.12,1-1.69.16-.31-.24-.66-.49-.38Z"/><path class="cls-34" d="M1017.84,805.68a5.57,5.57,0,1,0,6.52-4.43A5.59,5.59,0,0,0,1017.84,805.68Z"/><path class="cls-22" d="M1008.41,769.43a9.55,9.55,0,0,0-1.45-1.32,9.23,9.23,0,0,0-.82-.57,1.67,1.67,0,0,0-1-.37.24.24,0,0,0-.21.36,1.89,1.89,0,0,0,.73.67l.8.56c.53.37,1,.8,1.53,1.17a.32.32,0,0,0,.41-.08.33.33,0,0,0,0-.42Z"/><path class="cls-34" d="M1003.1,759a5.57,5.57,0,1,0,3.49,7.07A5.57,5.57,0,0,0,1003.1,759Z"/><path class="cls-22" d="M1271.49,813.22a9,9,0,0,0,1.5,1.33,7.33,7.33,0,0,0,.79.54,1.72,1.72,0,0,0,1,.36.24.24,0,0,0,.21-.36,1.93,1.93,0,0,0-.73-.66l-.81-.56c-.53-.36-1-.78-1.54-1.15a.31.31,0,0,0-.41.08.33.33,0,0,0,0,.42Z"/><path class="cls-34" d="M1276.9,823.64a5.57,5.57,0,1,0-3.55-7A5.59,5.59,0,0,0,1276.9,823.64Z"/><path class="cls-7" d="M1198.42,829.45h0"/><path class="cls-35" d="M1201.93,829.49c19.78.36,43.49,2.71,60.36-7.55,11.17-6.79,13.74-15.09.42-22.13-17.56-9.28-39.74-9.11-58.44-8.59-35.9,1-72.49,4-108.25-.36-13.51-1.66-13.11-15.78-27.85-17.76-30.06-4-59.83-3.42-90.31-1.85-9.12.47-18.79,1.25-26.16,6.65-2.21,1.62-4.27,3.92-4.29,6.66,0,3.65,3.5,6.24,6.78,7.85,20.79,10.18,45.3,6.17,68.45,6.38,34.71.31,69.16,10.65,103.68,7.49"/><path class="cls-7" d="M1128.06,806.11h0"/><rect class="cls-36" x="1077.38" y="679.81" width="107.1" height="134.86" transform="translate(2261.4 1495.17) rotate(-179.97)"/><rect class="cls-36" x="1072.27" y="668.72" width="117.41" height="31.57" transform="translate(2261.54 1369.7) rotate(-179.97)"/><line class="cls-37" x1="1184.53" y1="701.04" x2="1077.32" y2="701.04"/><line class="cls-38" x1="1134.11" y1="667.81" x2="1141.94" y2="814.72"/><line class="cls-38" x1="1134.11" y1="667.81" x2="1127.3" y2="814.7"/><path class="cls-38" d="M1135.45,667.87a76.82,76.82,0,0,1,8.83-11.2,29.53,29.53,0,0,1,12.59-7.7,14.09,14.09,0,0,1,6.25-.49,6.67,6.67,0,0,1,4.86,3.24c1.25,2.59-.36,5.6-2.59,7.63-4.8,4.39-12,5.91-18.76,7.24l-12.93,2.55"/><path class="cls-38" d="M1134.28,668a55.27,55.27,0,0,0-7.27-14.84c-2.54-3.7-5.51-8.09-10.59-9.34-3.89-1-9.82.23-10,4.5-.17,3.52,2.25,6.72,4.92,9.35,5.85,5.77,22.53,10.94,22.53,10.94"/><path class="cls-38" d="M1134.56,668.44c-11.68,6.23-20.27,16.79-23.18,28.53"/><path class="cls-38" d="M1135.61,668.43a57.27,57.27,0,0,1,14.16,35.16"/><path class="cls-38" d="M1134.57,669c-.07,0-2.71-4.08-3-4.41a45.6,45.6,0,0,0-8.51-7.93c-2.8-1.95-6.79-4-10.63-3.51-4,.54-8.26,4.66-6,8.28a7.88,7.88,0,0,0,3.28,2.63C1116.87,667.61,1126.54,668.36,1134.57,669Z"/><path class="cls-38" d="M1134.11,667.81s.28-24.74,10.61-26.23c8.81-1.27,14.3,8.13,5.42,15.93S1134.11,667.81,1134.11,667.81Z"/><rect class="cls-39" x="1147.38" y="725.97" width="37.85" height="88.74" transform="translate(2332.6 1540.69) rotate(-180)"/><polygon class="cls-40" points="1162.78 814.72 1147.38 725.97 1221.76 725.95 1237.17 814.69 1162.78 814.72"/><g class="cls-41"><polygon class="cls-42" points="1236.75 733.03 1223.87 720.23 1215.43 733.04 1228.31 745.84 1236.75 733.03"/><polygon class="cls-42" points="1239.99 751.67 1227.1 738.87 1218.66 751.68 1231.55 764.48 1239.99 751.67"/><polygon class="cls-42" points="1243.22 770.32 1230.34 757.51 1221.9 770.32 1234.79 783.13 1243.22 770.32"/><polygon class="cls-42" points="1246.46 788.96 1233.58 776.15 1225.13 788.97 1238.02 801.77 1246.46 788.96"/><polygon class="cls-42" points="1249.7 807.6 1236.81 794.8 1228.37 807.61 1241.26 820.41 1249.7 807.6"/><polygon class="cls-42" points="1220.64 733.04 1207.75 720.23 1199.31 733.04 1212.2 745.85 1220.64 733.04"/><polygon class="cls-42" points="1223.87 751.68 1210.99 738.88 1202.55 751.68 1215.43 764.49 1223.87 751.68"/><polygon class="cls-42" points="1227.11 770.32 1214.22 757.52 1205.78 770.33 1218.67 783.13 1227.11 770.32"/><polygon class="cls-42" points="1230.35 788.96 1217.46 776.16 1209.02 788.97 1221.9 801.77 1230.35 788.96"/><polygon class="cls-42" points="1233.58 807.61 1220.69 794.8 1212.26 807.61 1225.14 820.41 1233.58 807.61"/><polygon class="cls-42" points="1204.52 733.04 1191.63 720.24 1183.19 733.05 1196.08 745.85 1204.52 733.04"/><polygon class="cls-42" points="1207.76 751.68 1194.87 738.88 1186.43 751.69 1199.32 764.49 1207.76 751.68"/><polygon class="cls-42" points="1210.99 770.33 1198.11 757.52 1189.67 770.33 1202.55 783.13 1210.99 770.33"/><polygon class="cls-42" points="1214.23 788.97 1201.34 776.17 1192.9 788.98 1205.79 801.78 1214.23 788.97"/><polygon class="cls-42" points="1217.46 807.61 1204.58 794.81 1196.14 807.62 1209.03 820.42 1217.46 807.61"/><polygon class="cls-42" points="1188.4 733.05 1175.52 720.24 1167.08 733.05 1179.96 745.86 1188.4 733.05"/><polygon class="cls-42" points="1191.64 751.69 1178.76 738.89 1170.32 751.7 1183.2 764.5 1191.64 751.69"/><polygon class="cls-42" points="1194.88 770.33 1181.99 757.53 1173.55 770.34 1186.44 783.14 1194.88 770.33"/><polygon class="cls-42" points="1198.11 788.97 1185.23 776.17 1176.79 788.98 1189.67 801.78 1198.11 788.97"/><polygon class="cls-42" points="1201.35 807.62 1188.46 794.81 1180.02 807.62 1192.91 820.42 1201.35 807.62"/><polygon class="cls-42" points="1172.29 733.05 1159.4 720.25 1150.96 733.06 1163.85 745.86 1172.29 733.05"/><polygon class="cls-42" points="1175.53 751.69 1162.64 738.89 1154.2 751.7 1167.09 764.5 1175.53 751.69"/><polygon class="cls-42" points="1178.76 770.34 1165.88 757.53 1157.43 770.34 1170.32 783.15 1178.76 770.34"/><polygon class="cls-42" points="1182 788.98 1169.11 776.18 1160.67 788.99 1173.56 801.79 1182 788.98"/><polygon class="cls-42" points="1185.23 807.62 1172.35 794.82 1163.91 807.63 1176.79 820.43 1185.23 807.62"/><polygon class="cls-42" points="1156.17 733.06 1143.29 720.25 1134.85 733.06 1147.73 745.87 1156.17 733.06"/><polygon class="cls-42" points="1159.41 751.7 1146.52 738.9 1138.08 751.71 1150.97 764.51 1159.41 751.7"/><polygon class="cls-42" points="1162.64 770.34 1149.76 757.54 1141.32 770.35 1154.2 783.15 1162.64 770.34"/><polygon class="cls-42" points="1165.88 788.98 1152.99 776.18 1144.56 788.99 1157.44 801.79 1165.88 788.98"/><polygon class="cls-42" points="1169.12 807.63 1156.23 794.82 1147.79 807.63 1160.68 820.44 1169.12 807.63"/></g><polyline class="cls-43" points="1190.4 725.96 1194.88 770.33 1204.34 814.7"/><polyline class="cls-43" points="1184.13 725.96 1194.88 770.33 1199.53 814.7"/><polyline class="cls-43" points="1229.86 772.57 1194.88 770.33 1155.47 772.59"/><polyline class="cls-43" points="1229.02 767.75 1194.88 770.33 1154.63 767.78"/><path class="cls-43" d="M1195.41,770.1a39.68,39.68,0,0,0,6.87-3.43,9.81,9.81,0,0,0,4.27-5.34,2.13,2.13,0,0,0-.31-2,3.52,3.52,0,0,0-2.7-.92,6.61,6.61,0,0,0-4.12,1.91,12.8,12.8,0,0,0-4.42,9.61"/><path class="cls-43" d="M1195.68,770.65a14.5,14.5,0,0,1,4.77,1.82c3.7,1.94,7.6,4.06,9.63,7.13a2.2,2.2,0,0,1,.5,1.51,1.84,1.84,0,0,1-1.37,1.2,6.53,6.53,0,0,1-4.47-.53,13.14,13.14,0,0,1-3.57-2.62,28.53,28.53,0,0,1-6.56-9.36"/><path class="cls-43" d="M1194.8,770.81a53.48,53.48,0,0,0-7.31,6.14,14.56,14.56,0,0,0-4.08,7.85"/><path class="cls-43" d="M1195.32,770.9a17.34,17.34,0,0,0-5.74,19.14"/><path class="cls-43" d="M1194.66,770.06c-6.55-2.58-14.79-5.65-23.66-4.86"/><path class="cls-43" d="M1194.18,769.13c-4.59-5.38-13-8.81-20.66-8.4"/><path class="cls-43" d="M1195.63,770.06a31.51,31.51,0,0,0,1.47-11.95c-.12-1.81-.52-3.87-2.09-5.14a4.33,4.33,0,0,0-6.08.8c-1.2,1.74-1.08,4.18-.55,6.46,1,4.08,3.82,6.87,7.25,9.83"/><path class="cls-43" d="M1195,770.54c2.94-.27,7.26,6.25,8.15,8a5.14,5.14,0,0,1,.76,2.77,2.3,2.3,0,0,1-1.84,2,4.36,4.36,0,0,1-3.09-.69,8.44,8.44,0,0,1-2.16-2.09c-2.18-2.81-3.75-6.14-2.71-9"/><rect class="cls-17" x="1038.64" y="751.78" width="65.74" height="62.91" transform="translate(2142.49 1567.21) rotate(-179.96)"/><rect class="cls-17" x="1035.5" y="744.08" width="72.07" height="22.06" transform="translate(2142.55 1510.96) rotate(-179.96)"/><g class="cls-44"><g class="cls-45"><line class="cls-46" x1="1101.38" y1="744.1" x2="1101.33" y2="814.5"/><line class="cls-46" x1="1081.09" y1="744.09" x2="1081.04" y2="814.49"/><line class="cls-46" x1="1060.8" y1="744.07" x2="1060.75" y2="814.47"/><line class="cls-46" x1="1040.5" y1="744.06" x2="1040.46" y2="814.46"/><line class="cls-46" x1="1113.09" y1="809.75" x2="1031.98" y2="809.69"/><line class="cls-46" x1="1113.1" y1="789.45" x2="1032" y2="789.4"/><line class="cls-46" x1="1113.12" y1="769.16" x2="1032.01" y2="769.11"/><line class="cls-46" x1="1113.13" y1="748.87" x2="1032.02" y2="748.81"/></g></g><line class="cls-47" x1="1104.4" y1="766.62" x2="1038.66" y2="766.58"/><line class="cls-43" x1="1071.54" y1="743.74" x2="1078.47" y2="814.7"/><line class="cls-43" x1="1071.54" y1="743.74" x2="1065.53" y2="814.69"/><path class="cls-43" d="M1072.13,743.77a38.47,38.47,0,0,1,3.91-5.63,12.77,12.77,0,0,1,5.56-3.87,5.42,5.42,0,0,1,2.76-.25,3,3,0,0,1,2.15,1.63c.55,1.3-.16,2.82-1.14,3.83-2.13,2.21-5.3,3-8.29,3.65l-5.71,1.28"/><path class="cls-43" d="M1071.62,743.83c.53-2.3-1.07-4.5-2.57-6.33-2-2.39-4.21-4.94-7.26-5.48a2.14,2.14,0,0,0-2,.48,2,2,0,0,0-.39,1.07c-.3,2.78,1.86,5.19,4,6.94s5,3.53,8,3.58"/><path class="cls-43" d="M1071.75,744.06a22.64,22.64,0,0,0-10.25,14.35"/><path class="cls-43" d="M1072.21,744.05a31.14,31.14,0,0,1,6.26,17.69"/><path class="cls-48" d="M642.29,681.07a55,55,0,0,1,14.28,6c21.34,12.39,98.68,69.31,121.55,74.18l1.14.42c0-.11,0-.21.16-.19,4-6.58,12.22-19.95,13.24-21.59-1.19,1.71-13.09,15.17-68-32.46l-2.61-2.25-.26-.22C659.73,657.28,659.87,671.69,642.29,681.07Z"/><path class="cls-49" d="M772.76,671.05s-40,36.62-50.71,27.65-46.27-67-44.87-84.57c-4.65-6.26-11.51.78-22.74-11.85s5.64-10.85,7.75-21.38c-.7-2.8-2.07-10.35,1.44-11.06s5.09,9.49,12.11,13,11,16.32,15.93,23.34S722.44,634.44,733,666c0,0,17.23-13.64,21.18-21.85C754.15,644.19,772.76,653.24,772.76,671.05Z"/><path class="cls-50" d="M770,623,748.3,648.32s4.93,1.59,5.85,5.09l16.7-20.81A37.08,37.08,0,0,1,770,623Z"/><rect class="cls-19" x="657.39" y="565.91" width="43.13" height="41.27" transform="translate(1134.17 1359.71) rotate(-161.31)"/><rect class="cls-19" x="661.22" y="561.83" width="47.28" height="14.47" transform="translate(1151.29 1327.57) rotate(-161.31)"/><g class="cls-51"><g class="cls-52"><line class="cls-53" x1="705.72" y1="568.49" x2="690.93" y2="612.23"/><line class="cls-53" x1="693.11" y1="564.22" x2="678.32" y2="607.97"/><line class="cls-53" x1="680.5" y1="559.96" x2="665.71" y2="603.7"/><line class="cls-53" x1="667.89" y1="555.69" x2="653.1" y2="599.44"/><line class="cls-53" x1="699.23" y1="611.74" x2="648.83" y2="594.7"/><line class="cls-53" x1="703.49" y1="599.14" x2="653.09" y2="582.09"/><line class="cls-53" x1="707.76" y1="586.53" x2="657.36" y2="569.48"/><line class="cls-53" x1="712.02" y1="573.92" x2="661.62" y2="556.87"/></g></g><line class="cls-54" x1="702.87" y1="583.12" x2="662.02" y2="569.3"/><line class="cls-55" x1="687.25" y1="562.01" x2="676.67" y2="607.56"/><line class="cls-55" x1="687.25" y1="562.01" x2="668.63" y2="604.84"/><path class="cls-55" d="M687.61,562.15a24.64,24.64,0,0,1,3.61-2.68,8.34,8.34,0,0,1,4.27-1.24,3.61,3.61,0,0,1,1.77.42,1.91,1.91,0,0,1,1,1.46,2.45,2.45,0,0,1-1.51,2.15c-1.79.93-3.92.74-5.92.53l-3.82-.41"/><path class="cls-55" d="M687.28,562.08c.82-1.32.28-3-.27-4.47-.72-1.91-1.58-4-3.36-4.93a1.36,1.36,0,0,0-1.37-.13,1.28,1.28,0,0,0-.47.58c-.77,1.66.07,3.61,1.06,5.16a9,9,0,0,0,4.24,3.91"/><path class="cls-55" d="M687.31,562.25a14.84,14.84,0,0,0-9.38,6.77"/><path class="cls-55" d="M687.6,562.34a20.41,20.41,0,0,1,.18,12.3"/><path class="cls-56" d="M772.76,677.06s-40,36.63-50.71,27.65-46.27-67-44.87-84.57c-4.65-6.26-10.08-2.33-21.31-15s4.21-7.72,6.32-18.25c-.7-2.81-4.71-10.46-1.2-11.16s7.73,9.58,14.75,13.09,11,16.32,15.93,23.34,29.68,30.5,40.21,62.09c0,0,17.71-14.7,24-21C755.91,653.26,772.76,659.25,772.76,677.06Z"/><path class="cls-48" d="M512.1,789.46a7.94,7.94,0,0,0,6.3,7,6.15,6.15,0,0,0,1.28.18c39.62-10,103.43-42.4,126-54.25q-5.34-6-10.44-12.16c-.7-.85-43,22.79-47.47,25.06q-25.81,13-52.44,24.18C528,782.54,520.2,786.18,512.1,789.46Z"/><path class="cls-56" d="M436,789.5l.16.14,15.1,12.63.08,0,13.49-4.63h0l3.44-1.19c-17.92-13.51-13.48-19.54-13.27-19.81l-6.66,4.51Z"/><path class="cls-57" d="M390,790.65v0c0,.12,0,.25,0,.38,1.53,15,37,18.53,48.74,23.79,7.1,3.19,11.23,1.35,12.74-3.63a15.14,15.14,0,0,0,.4-1.67l0-.18a14.8,14.8,0,0,0-.5-6.72,3.45,3.45,0,0,0-.14-.42c0-.12-.08-.23-.11-.35L437.9,788.56a3.77,3.77,0,0,1-1.73,1.08c-2.4.87-7.74,1.25-18.61-3.92C401.1,777.87,389.14,779,390,790.65Z"/><path class="cls-56" d="M491.52,796.32c3.66,5.45,14.11,5.92,14.11,5.92.13-.18.26-.36.4-.53,3.73-4.76,9.66-5.3,12.37-5.27a7.94,7.94,0,0,1-6.3-7A150.51,150.51,0,0,1,491.52,796.32Z"/><path class="cls-57" d="M451.49,802.66a14.87,14.87,0,0,1,.47,6.9c19.74,4,46,15.65,50.31,3.76a9.85,9.85,0,0,0,.56-2.66,19,19,0,0,1,3.2-8.95c-.14.17-.27.35-.4.53,0,0-10.45-.47-14.11-5.92-8.43,2-16.92,2.93-25.19,1.71,0,0-.56-.14-1.49-.42h0l-13.49,4.63A3.45,3.45,0,0,1,451.49,802.66Z"/><path class="cls-22" d="M452,809.56c19.74,4,46,15.65,50.31,3.76v-.12s-13.18-.51-50.78-10.54A14.87,14.87,0,0,1,452,809.56Z"/><path class="cls-58" d="M832.64,608.82a22.92,22.92,0,0,1-6.53,19c-9.37,9.58-20.94,26.21-42.12,42.12.76,1.59,3,6.53,2.46,17.9-6.32,33.7,6.31,52,6.31,52l-.1.17c-1,1.64-9.29,15-13.24,21.59-.2,0-.18.08-.16.19s0,.21-.19.16c65.26,24,104.53,16.26,108.7,15.32l.37-.09c1.85-.41,4.24-16,4.64-17.92a160.14,160.14,0,0,0,2.91-21.6,196.94,196.94,0,0,0-2-42.57c-5-32.9-16.06-66.87-32.33-96-8.68-15.51-20.27-32.39-36.74-40.49-.95-.47-8.69-4.32-9.79-3.08l-.16.2c-12.61,15.44-21.78,23.69-28.59,28.76-11.51,8.57-18.88,35.95-15.28,48.16l23.75-30.31a24.72,24.72,0,0,1,24.66-8.37C825.51,595.45,831.29,599.48,832.64,608.82Z"/><path class="cls-56" d="M729.76,522.1a93.34,93.34,0,0,0,19.61,35.48c14.87,17,24,2.92,26.26,2.52,12.78-8.58,13.16-17.41,13.16-17.41-8.89-2.17-9.49-7.24-9.49-7.24,15.55-12.4-4.33-21.34-4.09-18.46-1.59,9.7-6.21,7.52-6.21,7.52-1.77-11-11.61-20.39-15.75-16.8C745,516.9,736.19,520.63,729.76,522.1Z"/><path class="cls-4" d="M772.4,678q7.08-4.5,13.11-9.06c21.19-15.91,33.41-31.68,42.25-42.29a24.65,24.65,0,0,0,5.59-19.21c-1.36-9.35-7.14-13.37-13.38-14.91a24.76,24.76,0,0,0-24.67,8.38L771.56,631.2l-17.41,22.21C775.21,659.73,772.4,678,772.4,678Z"/><path class="cls-48" d="M448.36,781.12c.19,10.46,12.21,15.15,16.48,16.49h0c.92.29,1.48.42,1.48.42,8.27,1.22,16.75.34,25.19-1.71a150.51,150.51,0,0,0,20.58-6.86c8.1-3.28,15.93-6.92,23.26-10Q562,768.25,587.8,755.27c4.51-2.27,46.77-25.91,47.47-25.06q5.12,6.18,10.44,12.16c26.92,30.29,57.84,56.44,94.61,74.41,18.13,8.86,37.48,17.14,57.56,20.1,33.54,5,59.07-12.87,80.18-39.2,1.65-2.06,9.12-18.52,10.08-20.58l-.37.09c-4.21.86-43.89,8-108.51-15.48l-1.14-.42c-22.87-4.87-100.21-61.79-121.55-74.18a55,55,0,0,0-14.28-6c-12.24-3.06-18.36,1.48-18.36,1.48l-175.5,96.88A12.19,12.19,0,0,0,448.36,781.12Z"/><path d="M720.17,522.93a30.41,30.41,0,0,0,9.58-.83c6.44-1.47,15.22-5.2,23.5-14.39,4.15-3.59,14,5.84,15.75,16.8,0,0,4.62,2.18,6.21-7.51-.24-2.89,19.64,6,4.09,18.45,0,0,.6,5.08,9.49,7.24s11.79,6.19,13-1.43a7.08,7.08,0,0,0,.21-.68c1.48-5.13,9.29-37.74-24.84-53.14-19.16-8.64-29-2.48-36.46,7.37a4.81,4.81,0,0,1-.31.42c-2.55,3.42-4.82,7.25-7.13,11-4.73,4.12-10.83,8.39-15.69,8.33,0,0,3.61,1.18,10.36-.05A38,38,0,0,1,720.17,522.93Z"/><path class="cls-22" d="M390,790.69c0,.12,0,.25,0,.38,1.53,15,37,18.53,48.74,23.79,7.1,3.19,11.23,1.35,12.74-3.63l.4-1.67.21-.2-.18,0C449.94,809.57,430.7,810.59,390,790.69Z"/><path class="cls-56" d="M775.63,560.1,786.7,584c9.31-5.23,28-28.33,28-28.33L802,540.58c-.12.45-.2.68-.2.68-1.25,7.62-4.15,3.59-13,1.43C788.79,542.69,788.41,551.52,775.63,560.1Z"/></g></g></g></svg>