<?xml version="1.0" encoding="utf-8"?>
<!-- Generator: Adobe Illustrator 23.0.5, SVG Export Plug-In . SVG Version: 6.00 Build 0)  -->
<svg version="1.1" id="Layer_1" xmlns="http://www.w3.org/2000/svg" xmlns:xlink="http://www.w3.org/1999/xlink" x="0px" y="0px"
	 viewBox="0 0 1920 1080" style="enable-background:new 0 0 1920 1080;" xml:space="preserve">
<style type="text/css">
	.st0{fill:url(#SVGID_1_);}
	.st1{fill:#A60303;}
	.st2{fill:#FFB992;}
	.st3{fill:#072547;}
	.st4{fill:none;stroke:#FE8500;stroke-width:2;stroke-linecap:round;stroke-linejoin:round;}
	.st5{fill:none;stroke:#FE8500;stroke-width:2;stroke-linecap:round;stroke-linejoin:round;stroke-dasharray:3.000000e-02,3.52;}
	.st6{fill:none;stroke:#FE8500;stroke-width:2;stroke-linecap:round;stroke-linejoin:round;stroke-dasharray:3.000000e-02,3.43;}
	.st7{fill:none;stroke:#FE8500;stroke-width:2;stroke-linecap:round;stroke-linejoin:round;stroke-dasharray:3.000000e-02,3.49;}
	.st8{fill:none;stroke:#FE8500;stroke-width:2;stroke-linecap:round;stroke-linejoin:round;stroke-dasharray:3.000000e-02,3.46;}
	.st9{fill:none;stroke:#FE8500;stroke-width:2;stroke-linecap:round;stroke-linejoin:round;stroke-dasharray:3.000000e-02,3.47;}
	.st10{fill:none;stroke:#FE8500;stroke-width:2;stroke-linecap:round;stroke-linejoin:round;stroke-dasharray:3.000000e-02,3.5;}
	.st11{fill:#FC9B00;}
	.st12{fill:#DB712A;}
	.st13{fill:#14457F;}
	.st14{fill:#4B8CC6;}
	.st15{fill:#E62B26;}
	.st16{fill:#F76854;}
	.st17{fill:#5CABE5;}
	.st18{fill:#FFFFFF;}
	.st19{fill:#FE8500;}
	.st20{fill:#FFDE8A;}
	.st21{fill:#FFC88D;}
	.st22{clip-path:url(#SVGID_3_);}
	.st23{fill:none;stroke:#F76854;stroke-linecap:round;stroke-miterlimit:10;}
	.st24{fill:#9DD7FC;}
	.st25{clip-path:url(#SVGID_5_);}
	.st26{fill:none;stroke:#9DD7FC;stroke-linecap:round;stroke-miterlimit:10;}
	.st27{fill:none;stroke:#14457F;stroke-width:1.5;stroke-linecap:round;stroke-linejoin:round;}
	.st28{clip-path:url(#SVGID_7_);}
	.st29{fill:none;stroke:#FFC88D;stroke-linecap:round;stroke-miterlimit:10;}
	.st30{fill:#FFFFFF;stroke:#FFFFFF;stroke-miterlimit:10;}
	.st31{fill:#F15A24;}
	.st32{fill:none;stroke:#931C1C;stroke-linecap:round;stroke-linejoin:round;}
	.st33{fill:none;stroke:#FFFFFF;stroke-width:1.3;stroke-linecap:round;stroke-miterlimit:10;}
	.st34{opacity:0.35;fill:#D8560E;enable-background:new    ;}
	.st35{fill:#601922;}
	.st36{clip-path:url(#SVGID_9_);}
	.st37{opacity:0.55;fill:#931C1C;enable-background:new    ;}
	.st38{fill:none;stroke:#FFFFFF;stroke-linecap:round;stroke-miterlimit:10;}
	.st39{opacity:0.35;}
	.st40{clip-path:url(#SVGID_11_);}
	
		.st41{opacity:0.35;fill:none;stroke:#67CECE;stroke-width:5;stroke-linecap:round;stroke-miterlimit:10;enable-background:new    ;}
	.st42{fill:none;stroke:#072547;stroke-miterlimit:10;}
	.st43{clip-path:url(#SVGID_13_);}
	.st44{opacity:0.35;fill:none;stroke:#FF541F;stroke-width:3;stroke-miterlimit:10;enable-background:new    ;}
	.st45{fill:none;stroke:#A32626;stroke-linejoin:round;}
	.st46{fill:none;stroke:#FFFFFF;stroke-miterlimit:10;}
	.st47{fill:#E8B995;}
	.st48{fill:#315B8A;}
	.st49{fill:#315B8A;stroke:#000000;stroke-width:2;stroke-miterlimit:10;}
	.st50{fill:none;stroke:#000000;stroke-width:2;stroke-miterlimit:10;}
	.st51{fill:#548FCC;}
	.st52{fill:none;stroke:#FFFFFF;stroke-width:2;stroke-miterlimit:10;}
	.st53{fill:#C85B6C;}
	.st54{fill:#FE7568;}
</style>
<title>Artboard 1 copy</title>
<g>
	<g>
		
			<linearGradient id="SVGID_1_" gradientUnits="userSpaceOnUse" x1="-874.4509" y1="1041.5144" x2="256.7791" y2="65.2443" gradientTransform="matrix(-1 0 0 -1 1190.42 1080)">
			<stop  offset="0" style="stop-color:#FF1E2C"/>
			<stop  offset="0.99" style="stop-color:#C1272D"/>
		</linearGradient>
		<path class="st0" d="M931.3,253.1C851.2,126.5,978.8,2.4,978.8,2.4H1920v1134.5c0,0-358.3,74-533.9,0s-327.9,0-327.9,0
			s-85.1,43-79.4-86c4.9-111.8-135.1-198.5-197.5-397.7c-10.2-32.8-17.7-66.3-22.5-100.4C720.5,279.4,1011.4,379.7,931.3,253.1z"/>
		<path class="st1" d="M781.3,656.6c0,0,78.1-146.3,196-25s208.3,88.5,429.1-51.1s511.6,106,511.6,106l2.1,69v381.7
			c0,0-358.3,73.5-533.9,0s-327.9,0-327.9,0s-85.1,42.7-79.4-85.5C983.7,940.6,843.7,854.5,781.3,656.6z"/>
		<path class="st2" d="M1260.5,675.5h-76.4c-27.1-46.8-25.5-118.4-25.5-118.4h127.5C1286.1,557.1,1287.7,628.7,1260.5,675.5z"/>
		<path class="st3" d="M1076.3,510c-9.2,8.2-17.4,18.2-25.9,27.2c-3.1,3.3-6.4,7.2-5.9,11.7c0.1,0.9,0.4,1.7,0.9,2.3
			c0.7,0.6,1.5,1.1,2.4,1.3c9.7,2.7,20,0.8,28-5.4c-7.1,10-17.8,17.5-24.5,27.5c-4.3,6.3-14.2,18.8-9.3,26.4
			c2.3,3.7,7.1,4.9,11.4,5.1c18.3,0.9,34.7-10.5,48.9-22.2c-6.3,7.7-10.4,16.9-12,26.7c-0.3,2.1-0.5,4.4,0.5,6.3
			c2.4,4.5,9.1,3.7,13.8,1.8c17.7-7.1,32.6-19.8,42.4-36.2c-3.9,5.6-8,11.6-8.4,18.4c-0.5,6.8,4.4,14.4,11.2,14.4
			c3.2,0,6.2-1.7,8.9-3.4c16.2-10.3,29.8-22.5,37.7-40.3l2.2,11.6c1,4.8,3.1,10.7,8,11c1.9-0.1,3.7-0.7,5.1-1.9
			c7.6-5,11.4-13.9,14.9-22.3c1,8,2.1,16.4,6.7,23c2.4,3.5,6.1,6.5,10.2,6.6c4.1,0.1,7.9-2.5,10.3-5.9s3.5-7.4,4.6-11.4l4.3-15.3
			c5.1,12.7,15.6,21.2,27.2,27.8c3,1.7,6.5,3.3,9.8,2.3c5.2-1.6,6.6-8.6,5.3-13.9s-4.1-10.5-3.7-15.9c13.5,15.6,30.6,27.7,49.8,35.4
			c6.2,2.5,15.7,2.9,17.2-3.6c0.6-2.5-0.5-5.1-1.5-7.5c-3.1-7.1-6.1-14.1-9.2-21.2c12.1,8.8,26.2,14.4,41.1,16.5
			c7.5,1,16.7,0.3,20.2-6.4c4.1-7.8-2.7-16.6-8.9-22.8l-38.1-37.4c12.4,6.1,26.5,7.5,39.8,4c1.8-0.3,3.5-1.2,4.8-2.4
			c4.7-4.8-2-12.1-7.6-15.8c-24.8-16.3-43.9-40.1-54.3-67.9c10.9,7.6,24.1,11.2,37.4,10.2c2.2-0.2,4.7-0.7,5.9-2.5
			c1.9-2.9-0.6-6.7-3-9.3l-49.8-54.2c8.6,5.6,18.4,9,28.7,9.9c3.3,0.3,7.4-0.1,9-3c2.3-4-1.9-8.5-5.6-11.4
			c-22.2-17.3-40.7-38.8-54.4-63.4c10,6.3,22,8.6,33.7,6.5c2.2-0.4,4.7-1.2,5.5-3.3c1.1-2.7-1.2-5.5-3.4-7.5l-38.3-35.6
			c6.7,4.2,14.9,5.6,22.6,3.8l-48.5-49c6.8,1.9,13.8,2.9,20.8,3c1.6,0,3.5-0.2,4.3-1.6c0.9-1.6-0.3-3.4-1.4-4.8l-40.1-51.6
			c4,3.3,8.4,6.7,13.6,6.8c5.2,0.1,10.5-5.1,8.5-9.9c-0.7-1.4-1.6-2.6-2.8-3.6l-30.4-29.7c8.9,8,28.9,4.1,15.9-8.3
			c-5.6-5.4-12-9.9-17.5-15.4c-4.7-4.7-9-12.1-14.2-15.9c4.9,3.4,11.3,3.6,16.3,0.5c-16.7-10.8-29.9-26.1-38.3-44.2
			c-8.1,16.4-20.6,30.2-36.1,39.8l11.5,6.3c-9.5,9.5-18.1,19.9-25.8,30.9c7.1,0.7,14.3-0.5,20.8-3.4l-27.8,41.3c-2,3-4.1,6.8-2.5,10
			c2.6,5.3,10.6,2.6,15.4-0.7l-34.6,37.1c-2.4,2.6-5,5.7-4.3,9.2c1.3,6.7,11.2,5.4,17.3,2.4c-13,14-26.1,28-39.1,42
			c9.5,3.8,20.2,2.8,28.8-2.6l-43.2,48.8c-1.1,1.3-2.4,2.8-2.3,4.5c0.2,4.2,6.3,4.3,10.2,2.9c7.3-2.7,14.3-6.2,21-10.3
			c-16,26.2-50.1,63.8-47.8,70.2s22.6-5.8,33.6-11.8c-14.8,24.8-54.3,56.8-49.8,62.9c4.6,6.1,21.9,3.3,32.9-7.5
			c-9.1,8.6-17.6,17.9-25.4,27.6c-1.5,1.8-3,4.1-2.2,6.3c1.2,3.1,5.5,2.9,8.6,2c8.2-2.4,16-6.2,23-11.2c-0.6,2.3-1.2,4.6-1.9,6.9
			C1103.2,478.3,1091.8,496.1,1076.3,510z"/>
		<path class="st4" d="M1326.2,517.3L1326.2,517.3"/>
		<path class="st5" d="M1194.9,548.2c23.4,9.7,48.7,9.1,68.9,5.4c19.7-3.6,45.1-15.6,60.2-33.5"/>
		<path class="st4" d="M1193.3,547.5L1193.3,547.5"/>
		<path class="st4" d="M1259.2,119.6L1259.2,119.6"/>
		<path class="st6" d="M1209.6,112.7c16.1,24.3,38.9,13.6,46.8,8.8"/>
		<path class="st4" d="M1208.6,111.3L1208.6,111.3"/>
		<path class="st4" d="M1280.6,209.2L1280.6,209.2"/>
		<path class="st7" d="M1167.1,217.2c29.4,27.5,87.1,30.4,111.6-5"/>
		<path class="st4" d="M1165.9,216L1165.9,216"/>
		<path class="st4" d="M1334.2,334.2L1334.2,334.2"/>
		<path class="st8" d="M1234.7,353.7c5.4,4.1,26.4,18,57.7,16c29.3-1.9,38.5-23.7,41-32.2"/>
		<path class="st4" d="M1233.3,352.7L1233.3,352.7"/>
		<path class="st9" d="M1159.1,370.4c35.1,7.5,62.8-9.5,71.4-15.6"/>
		<path class="st4" d="M1157.4,370L1157.4,370"/>
		<path class="st4" d="M1286.4,455L1286.4,455"/>
		<path class="st7" d="M1160.5,437.3c26.3,40.3,94,38.8,123,19.7"/>
		<path class="st4" d="M1159.6,435.8L1159.6,435.8L1159.6,435.8"/>
		<path class="st10" d="M1112.9,453.3l6.5-1c13.5-2,28.3-4.6,37.8-14"/>
		<path class="st4" d="M1111.1,453.6L1111.1,453.6"/>
		<path class="st11" d="M1237.4,38.4c0,0,20.9,2,20.9,3s-15.1,14.7-15.1,14.7s4.3,20.1,3.6,20.8s-18.7-9.8-18.7-9.8
			s-17.7,10.8-18.7,9.8c-0.9-0.9,3.6-20.8,3.6-20.8s-15.1-13.5-15.1-14.7s20.9-3,20.9-3s8.1-18.9,9.3-18.9
			C1229.3,19.5,1237.4,38.4,1237.4,38.4z"/>
		<path class="st12" d="M1228.2,50.8c0.1-0.2-0.2-0.4-0.3-0.2c-0.6,0.8-1.3,1.6-1.9,2.4c-3,3.9-5.9,7.9-8.8,11.9
			c-2.9,3.8-5.5,7.8-7.9,11.9l0,0c0,0.1,0,0.2,0.1,0.2c0.1,0,0.2,0,0.2-0.1c1.3-2,2.7-3.9,4-5.9c3.1-4.5,6.3-8.9,9.5-13.3
			C1224.8,55.5,1226.5,53.2,1228.2,50.8L1228.2,50.8z"/>
		<path class="st12" d="M1228,50.9c0.2,0.1,0.3-0.3,0.1-0.4c-1-0.4-1.9-0.7-2.9-1c-4.6-1.5-9.2-3-13.8-4.4
			c-4.4-1.4-8.9-2.8-13.4-3.9c-0.1,0-0.2,0-0.2,0.1c0,0.1,0,0.2,0.1,0.2c2.2,0.7,4.4,1.4,6.6,2.1c5.1,1.6,10.2,3.1,15.3,4.8
			C1222.5,49.2,1225.3,50.1,1228,50.9L1228,50.9z"/>
		<path class="st12" d="M1227.9,50.8c0,0.1,0.1,0.1,0.1,0.1c0.1,0,0.2,0,0.2-0.1c0.1-1,0.1-1.9,0.1-2.9c0.1-4.6,0.1-9.3,0.1-13.8
			s0-9-0.2-13.4c0,0,0-0.1,0-0.1c0-0.1-0.1-0.1-0.2-0.1c-0.1,0-0.1,0.1-0.1,0.2c0,2.2-0.1,4.5-0.1,6.7c0,5.1,0,10.2,0,15.3
			C1227.8,45.4,1227.8,48.1,1227.9,50.8L1227.9,50.8z"/>
		<path class="st12" d="M1228,50.6c-0.1,0-0.1,0.1-0.1,0.2c0,0.1,0.1,0.2,0.2,0.2c1-0.3,2-0.6,3-0.8c4.7-1.4,9.3-2.8,14-4.2
			c4.5-1.4,8.9-2.7,13.3-4.4c0.2-0.1,0.1-0.3-0.1-0.3c-2.2,0.7-4.5,1.3-6.7,2c-5.1,1.6-10.3,3.2-15.4,4.7
			C1233.5,48.9,1230.7,49.7,1228,50.6L1228,50.6z"/>
		<path class="st12" d="M1228.2,50.6c-0.1-0.2-0.5,0-0.3,0.2c0.6,0.9,1.1,1.8,1.7,2.6c2.8,4.2,5.6,8.3,8.5,12.4
			c2.6,3.9,5.5,7.6,8.6,11.1c0.1,0.1,0.3-0.1,0.2-0.2c-1.5-1.8-2.9-3.7-4.3-5.6c-3.2-4.4-6.4-8.9-9.5-13.3
			C1231.5,55.4,1229.9,53,1228.2,50.6L1228.2,50.6z"/>
		<path class="st12" d="M1228,50.6c-2.6,0.6-5.2,1.4-7.7,2.4c-1.5,0.5-2.9,1-4.4,1.6c-1,0.4-2,0.9-2.9,1.4c0,0-0.1,0.1,0,0.1
			c0,0.1,0.1,0.1,0.1,0c2.4-1.2,4.9-2.2,7.4-3c2.5-1,5-1.8,7.6-2.4C1228.2,50.8,1228.2,50.6,1228,50.6z"/>
		<path class="st12" d="M1228.2,51.4c-0.1,2.7-0.1,5.4-0.1,8.2s0,5.4,0.1,8.2c0,0,0,0,0,0c0,0,0.1,0,0.1,0c0.1-2.7,0.2-5.4,0.1-8.2
			s0-5.4-0.1-8.1C1228.3,51.3,1228.2,51.3,1228.2,51.4z"/>
		<path class="st12" d="M1243.3,55.7c0,0,0.1,0,0.1-0.1c0-0.1,0-0.1-0.1-0.1c-4-1.3-8.1-2.5-12.2-3.8c0,0-0.1,0.1,0,0.1
			C1235.2,53.3,1239.3,54.6,1243.3,55.7L1243.3,55.7z"/>
		<path class="st12" d="M1235.8,39.7C1235.9,39.7,1235.8,39.7,1235.8,39.7c-1.3,1.8-2.7,3.6-4,5.3c-1.3,1.8-2.7,3.5-4,5.3
			c-0.1,0.1,0.1,0.2,0.1,0.1c1.4-1.6,2.7-3.4,4-5.2C1233.3,43.4,1234.6,41.6,1235.8,39.7L1235.8,39.7z"/>
		<path class="st12" d="M1219.8,38.7c1.5,2.3,3.1,4.6,4.6,6.9c0.8,1.2,1.6,2.3,2.4,3.5c0.5,0.9,1.3,1.8,2.2,2.4l0,0c0,0,0.1,0,0.2,0
			s0-0.1,0-0.2c-1.6-2-3.2-4-4.6-6.2c-1.5-2.2-3.1-4.3-4.7-6.4C1219.8,38.6,1219.8,38.7,1219.8,38.7z"/>
		<path class="st13" d="M1241,164.9c0.1-0.4-0.4-0.5-0.6-0.2c-0.4,0.7-0.7,1.4-0.9,2.1c-0.1,0.4-0.2,0.7-0.3,1.1
			c-0.1,0.4-0.1,0.8-0.1,1.1c0,0,0,0.1,0.1,0.1c0.1,0.1,0.2,0.1,0.3,0c0.2-0.3,0.4-0.6,0.4-1c0.1-0.3,0.2-0.7,0.3-1.1
			C1240.5,166.3,1240.8,165.6,1241,164.9L1241,164.9z"/>
		<circle class="st14" cx="1237.3" cy="174.3" r="6.4"/>
		<path class="st13" d="M1210.3,146.6c0-0.1-0.1-0.2-0.2-0.3c-0.2-0.1-0.3,0-0.4,0.2c-0.2,0.7-0.3,1.5-0.3,2.3c0,0.4,0,0.7,0,1.1
			c0,0.4,0.1,0.8,0.2,1.1c0.1,0.1,0.3,0.2,0.4,0c0.1-0.4,0.2-0.7,0.1-1.1v-1.1C1210.2,148.1,1210.3,147.4,1210.3,146.6L1210.3,146.6
			z"/>
		
			<ellipse transform="matrix(0.8649 -0.502 0.502 0.8649 84.7696 628.2109)" class="st14" cx="1209.3" cy="156.6" rx="6.4" ry="6.4"/>
		<path class="st13" d="M1273.4,163.3c-0.1-0.1-0.2-0.2-0.3-0.1c-0.2,0-0.3,0.2-0.3,0.4c0.2,0.7,0.5,1.4,0.9,2.1
			c0.2,0.3,0.4,0.7,0.6,1c0.2,0.3,0.4,0.6,0.8,0.8c0.2,0.1,0.4,0,0.4-0.2c-0.1-0.4-0.2-0.7-0.4-1l-0.6-0.9
			C1274.1,164.6,1273.8,163.9,1273.4,163.3L1273.4,163.3z"/>
		<path class="st14" d="M1273.1,168C1273.1,168,1273.1,168,1273.1,168c2.5-2.6,6.5-2.7,9.1-0.2c2.5,2.5,2.6,6.5,0.2,9
			c-2.5,2.5-6.5,2.6-9,0.2C1270.8,174.6,1270.7,170.6,1273.1,168z"/>
		<path class="st13" d="M1273.2,235.7c-0.1-0.3-0.6-0.3-0.6,0.1c0.1,0.8,0.3,1.5,0.5,2.3c0.1,0.4,0.3,0.8,0.4,1.1
			c0.1,0.4,0.3,0.7,0.6,0.9c0,0,0.1,0,0.1,0c0.1,0,0.3-0.1,0.3-0.2c0-0.4-0.1-0.7-0.3-1.1c-0.1-0.3-0.3-0.7-0.4-1
			C1273.6,237.1,1273.4,236.4,1273.2,235.7L1273.2,235.7z"/>
		<path class="st14" d="M1270.7,249.2c-2.1-2.8-1.6-6.8,1.3-8.9c2.8-2.1,6.8-1.6,8.9,1.2c2.2,2.8,1.6,6.8-1.2,9
			S1272.9,252,1270.7,249.2C1270.8,249.2,1270.8,249.2,1270.7,249.2z"/>
		<path class="st13" d="M1209.8,270.1c-0.2-0.3-0.7-0.1-0.6,0.2c0.3,0.7,0.7,1.4,1.1,2c0.2,0.3,0.4,0.7,0.7,1
			c0.2,0.3,0.5,0.6,0.8,0.7c0.2,0.1,0.3-0.1,0.3-0.3c-0.1-0.4-0.3-0.7-0.5-1c-0.2-0.3-0.4-0.6-0.6-0.9
			C1210.6,271.3,1210.2,270.7,1209.8,270.1L1209.8,270.1z"/>
		<path class="st14" d="M1210.8,283.7c-2.8-2.2-3.2-6.2-1-9c2.2-2.8,6.2-3.2,9-1c2.8,2.2,3.2,6.2,1,9
			C1217.6,285.5,1213.6,285.9,1210.8,283.7C1210.8,283.7,1210.8,283.7,1210.8,283.7z"/>
		<path class="st13" d="M1268.8,416.3c-0.1-0.4-0.6-0.3-0.6,0.1c0,0.8,0.1,1.5,0.2,2.3c0.1,0.4,0.2,0.8,0.3,1.1
			c0.1,0.4,0.2,0.7,0.5,1c0,0,0.1,0,0.1,0.1c0.1,0,0.3,0,0.3-0.2c0-0.4,0-0.7-0.1-1.1c-0.1-0.4-0.2-0.7-0.3-1.1
			C1269,417.8,1268.9,417.1,1268.8,416.3L1268.8,416.3z"/>
		<path class="st14" d="M1267,420.7C1267,420.7,1267,420.7,1267,420.7c3.1-1.7,7-0.7,8.7,2.4c1.7,3.1,0.6,7-2.4,8.7
			c-3.1,1.7-7,0.6-8.7-2.4C1262.8,426.4,1263.9,422.5,1267,420.7z"/>
		<path class="st13" d="M1175.5,387.3c0-0.1,0-0.3-0.1-0.3c-0.1-0.1-0.3-0.1-0.4,0.1c-0.4,0.7-0.6,1.4-0.8,2.1
			c-0.1,0.4-0.2,0.7-0.3,1.1c-0.1,0.4-0.1,0.8,0,1.1c0,0,0,0.1,0.1,0.1c0.1,0.1,0.3,0.1,0.4,0c0.2-0.3,0.4-0.7,0.4-1l0.3-1
			C1175.1,388.8,1175.3,388.1,1175.5,387.3L1175.5,387.3z"/>
		
			<ellipse transform="matrix(0.6918 -0.7221 0.7221 0.6918 74.6831 968.7327)" class="st14" cx="1172.1" cy="396.9" rx="6.4" ry="6.4"/>
		<path class="st13" d="M1097.8,498.4c0-0.1-0.1-0.2-0.2-0.3c-0.2-0.1-0.3,0-0.4,0.2c-0.2,0.7-0.3,1.5-0.4,2.3c0,0.4,0,0.7,0,1.1
			c0,0.4,0,0.8,0.2,1.1c0,0,0.1,0.1,0.1,0.1c0.1,0.1,0.3,0,0.3-0.1c0.1-0.4,0.2-0.7,0.2-1.1c0-0.4,0-0.7,0-1.1
			C1097.6,499.9,1097.8,499.2,1097.8,498.4L1097.8,498.4z"/>
		<path class="st14" d="M1090.4,510c-0.9-3.4,1.2-6.9,4.6-7.8c3.4-0.9,6.9,1.2,7.8,4.6c0.9,3.4-1.2,6.9-4.6,7.8
			C1094.8,515.5,1091.3,513.5,1090.4,510C1090.4,510,1090.4,510,1090.4,510z"/>
		<path class="st13" d="M1228.8,517.3c0-0.1-0.1-0.2-0.2-0.3c-0.2-0.1-0.3,0-0.4,0.2c-0.2,0.7-0.3,1.5-0.4,2.3c0,0.4,0,0.7,0,1.1
			c0,0.4,0,0.8,0.2,1.1c0,0,0.1,0.1,0.1,0.1c0.1,0.1,0.3,0,0.3-0.1c0.1-0.4,0.2-0.7,0.2-1.1v-1.1
			C1228.6,518.8,1228.8,518.1,1228.8,517.3L1228.8,517.3z"/>
		<path class="st14" d="M1226,521.1C1226,521.1,1226,521.1,1226,521.1c3.4-0.9,6.9,1.2,7.8,4.6c0.9,3.4-1.2,6.9-4.6,7.8
			c-3.4,0.9-6.9-1.2-7.8-4.6C1220.5,525.5,1222.6,522,1226,521.1z"/>
		<path class="st13" d="M1307.4,486.2c-0.1-0.4-0.6-0.3-0.6,0.1c0,0.8,0.1,1.5,0.2,2.3c0.1,0.4,0.1,0.8,0.3,1.1
			c0.1,0.4,0.2,0.7,0.5,1c0,0,0.1,0,0.1,0.1c0.1,0,0.3,0,0.3-0.2c0-0.4,0-0.7-0.1-1.1c-0.1-0.4-0.2-0.7-0.2-1.1
			C1307.6,487.7,1307.5,487,1307.4,486.2L1307.4,486.2z"/>
		<path class="st14" d="M1303.1,499.2c-1.7-3.1-0.5-7,2.6-8.7c0,0,0,0,0,0c3.1-1.7,7-0.5,8.7,2.6c1.7,3.1,0.5,7-2.6,8.7
			C1308.6,503.5,1304.8,502.3,1303.1,499.2C1303.1,499.2,1303.1,499.2,1303.1,499.2z"/>
		<path class="st13" d="M1389.7,493.8c0-0.3-0.6-0.4-0.6-0.1c-0.1,0.8-0.2,1.5-0.2,2.3c0,0.4,0,0.7,0.1,1.1c0,0.4,0.1,0.8,0.3,1.1
			c0,0,0.1,0.1,0.1,0.1c0.1,0,0.3,0,0.3-0.2c0.1-0.4,0.1-0.7,0.1-1.1l-0.1-1.1C1389.7,495.3,1389.7,494.6,1389.7,493.8L1389.7,493.8
			z"/>
		<path class="st14" d="M1383.3,505.9c-1.1-3.3,0.7-7,4-8.1c3.3-1.1,7,0.7,8.1,4c1.1,3.3-0.6,7-4,8.1
			C1388.1,511.1,1384.4,509.3,1383.3,505.9C1383.3,506,1383.3,505.9,1383.3,505.9z"/>
		<path class="st13" d="M1117.3,357.1c0.3-0.3-0.1-0.7-0.4-0.5c-0.6,0.4-1.2,0.9-1.7,1.5c-0.3,0.3-0.5,0.5-0.8,0.8
			c-0.3,0.3-0.5,0.6-0.6,1c0,0.1,0.1,0.4,0.3,0.3c0.3-0.2,0.6-0.4,0.9-0.8c0.3-0.3,0.5-0.5,0.7-0.8
			C1116.2,358.1,1116.8,357.6,1117.3,357.1L1117.3,357.1z"/>
		<path class="st14" d="M1112.7,358.1C1112.7,358.1,1112.7,358.1,1112.7,358.1c3.2,1.6,4.5,5.4,2.9,8.6s-5.4,4.5-8.6,2.9
			c-3.2-1.6-4.5-5.4-2.9-8.6C1105.7,357.8,1109.5,356.5,1112.7,358.1z"/>
		<path class="st13" d="M1344.9,395.4c0-0.1-0.2-0.2-0.3-0.2c-0.1,0-0.3,0.2-0.3,0.3c0.2,1.2,0.5,2.3,1,3.4c0.1,0.4,0.3,0.7,0.6,0.9
			c0,0,0.1,0,0.1,0c0.1,0,0.3-0.1,0.3-0.2c0-0.4-0.1-0.7-0.3-1.1l-0.4-1C1345.3,396.8,1345.1,396.1,1344.9,395.4L1344.9,395.4z"/>
		<path class="st14" d="M1342.6,408.9c-2.2-2.8-1.6-6.8,1.2-9c2.8-2.1,6.8-1.6,9,1.2c2.2,2.8,1.7,6.8-1.1,9
			C1348.8,412.3,1344.8,411.8,1342.6,408.9C1342.6,409,1342.6,408.9,1342.6,408.9z"/>
		<path class="st13" d="M1152.8,270.6c0.1-0.4-0.4-0.5-0.6-0.3c-0.4,0.7-0.7,1.3-1,2.1c-0.2,0.4-0.3,0.7-0.4,1.1
			c-0.1,0.4-0.2,0.7-0.1,1.1c0,0,0,0.1,0.1,0.1c0.1,0.1,0.3,0.1,0.4,0c0.2-0.3,0.4-0.6,0.5-1c0.1-0.4,0.2-0.7,0.4-1.1
			C1152.3,272,1152.6,271.3,1152.8,270.6L1152.8,270.6z"/>
		<path class="st14" d="M1149,273.4C1149.1,273.4,1149.1,273.4,1149,273.4c3.5,0.2,6.3,3.2,6.1,6.7c-0.2,3.5-3.2,6.3-6.7,6.1
			c-3.5-0.2-6.3-3.2-6.1-6.7C1142.5,276,1145.5,273.3,1149,273.4z"/>
		<path class="st13" d="M1298.2,314.1c0-0.1-0.1-0.1-0.2-0.1c-0.1,0-0.1,0.1-0.1,0.2c0.2,1.5,0.7,2.9,1,4.4c0.4,1.7,0.8,3.4,1.2,5.1
			c0.4,1.6,0.9,3.2,1.4,4.8c0.8,2.4,1.8,4.7,2.9,6.9c0,0.1,0.2,0.1,0.3,0.1c0.1,0,0.1-0.2,0.1-0.2c-1.2-4-3-7.8-4-11.9
			c-0.4-1.7-0.8-3.4-1.2-5.1C1299.4,316.8,1298.9,315.4,1298.2,314.1L1298.2,314.1z"/>
		
			<rect x="1297.8" y="325.4" transform="matrix(0.9646 -0.2639 0.2639 0.9646 -40.5116 355.2229)" class="st14" width="8.6" height="6"/>
		<path class="st15" d="M1307.4,327.8c8.5,1.4,14.2,9.3,12.9,17.8c-1.4,8.5-9.3,14.2-17.8,12.9c-8.5-1.4-14.2-9.3-12.9-17.8
			C1290.9,332.2,1298.9,326.4,1307.4,327.8z"/>
		<path class="st16" d="M1313.2,339.3c0.2-1,1.1-1.7,2.2-1.6c0,0,0,0,0,0c1,0.2,1.7,1.2,1.6,2.2c-0.2,1-1.2,1.7-2.2,1.6
			S1313,340.3,1313.2,339.3C1313.2,339.3,1313.2,339.3,1313.2,339.3z"/>
		<path class="st16" d="M1304.9,339.7C1304.9,339.7,1304.9,339.7,1304.9,339.7c1,0.2,1.7,1.1,1.6,2.2c-0.2,1-1.1,1.7-2.2,1.6
			s-1.7-1.1-1.6-2.2C1302.9,340.2,1303.9,339.5,1304.9,339.7z"/>
		<path class="st16" d="M1312.2,348.9C1312.2,348.9,1312.2,348.9,1312.2,348.9c1,0.2,1.7,1.1,1.6,2.2c-0.2,1-1.1,1.7-2.2,1.6
			s-1.7-1.1-1.6-2.2C1310.2,349.4,1311.2,348.7,1312.2,348.9z"/>
		<path class="st16" d="M1295.5,342.9c1,0.2,1.7,1.1,1.6,2.2c-0.2,1-1.1,1.7-2.2,1.6c-1-0.2-1.7-1.1-1.6-2.2
			C1293.5,343.4,1294.5,342.7,1295.5,342.9z"/>
		<path class="st16" d="M1299.4,332.2c0.2-1,1.1-1.7,2.2-1.6c1,0.2,1.7,1.1,1.6,2.2c-0.2,1-1.1,1.7-2.2,1.6
			C1300,334.2,1299.3,333.3,1299.4,332.2C1299.4,332.2,1299.4,332.2,1299.4,332.2z"/>
		<path class="st16" d="M1301.4,352.9c0.2-1,1.1-1.7,2.2-1.6c1,0.2,1.7,1.1,1.6,2.2c-0.2,1-1.1,1.7-2.2,1.6
			C1302,355,1301.2,354,1301.4,352.9C1301.4,352.9,1301.4,352.9,1301.4,352.9z"/>
		<path class="st13" d="M1275.7,283.2c0-0.1-0.1-0.1-0.1-0.1c-0.1,0-0.2,0-0.2,0.1c-0.2,1.2-0.4,2.4-0.4,3.7
			c-0.2,1.5-0.3,2.9-0.5,4.4c-0.1,1.4-0.2,2.8-0.2,4.1c-0.1,2.2,0.1,4.3,0.4,6.4c0,0.2,0.4,0.2,0.4,0c0.2-2.1,0-4.3,0-6.5
			c0-1.4,0.1-2.7,0.2-4.1c0.2-1.5,0.3-3,0.5-4.5C1275.9,285.6,1275.9,284.4,1275.7,283.2L1275.7,283.2z"/>
		
			<rect x="1272.2" y="292" transform="matrix(7.236785e-02 -0.9974 0.9974 7.236785e-02 887.668 1545.587)" class="st14" width="5" height="7.2"/>
		<circle class="st17" cx="1272.9" cy="307.9" r="13"/>
		<path class="st18" d="M1282.6,306.7C1282.6,306.7,1282.6,306.7,1282.6,306.7c0.8,0.4,1.1,1.4,0.6,2.2c-0.4,0.8-1.4,1.1-2.2,0.6
			c-0.8-0.4-1.1-1.4-0.6-2.2C1280.9,306.5,1281.9,306.2,1282.6,306.7z"/>
		<path class="st18" d="M1274.2,305c0.8,0.4,0.8,1.6,0.3,2.4l0,0c-0.4,0.8-1.4,1.1-2.2,0.6c-0.8-0.4-1.1-1.4-0.6-2.2
			C1272.2,305.1,1273.2,304.7,1274.2,305z"/>
		<path class="st18" d="M1274.8,315.2c0.4-0.8,1.4-1.1,2.2-0.6c0.8,0.4,1.1,1.4,0.6,2.2c-0.4,0.8-1.4,1.1-2.2,0.6
			C1274.7,317,1274.4,316,1274.8,315.2C1274.8,315.2,1274.8,315.2,1274.8,315.2z"/>
		<path class="st18" d="M1263.7,305.6c0.4-0.8,1.4-1.1,2.2-0.6c0.8,0.4,1.1,1.4,0.6,2.2c-0.4,0.8-1.4,1.1-2.2,0.6
			C1263.6,307.4,1263.3,306.4,1263.7,305.6C1263.7,305.6,1263.7,305.6,1263.7,305.6z"/>
		<path class="st18" d="M1271.9,297.6c0.4-0.8,1.4-1.1,2.2-0.6c0.8,0.4,1.1,1.4,0.6,2.2c-0.4,0.8-1.4,1.1-2.2,0.6
			C1271.8,299.4,1271.5,298.4,1271.9,297.6C1271.9,297.7,1271.9,297.7,1271.9,297.6z"/>
		<path class="st18" d="M1269.5,314.1C1269.5,314.1,1269.5,314.1,1269.5,314.1c0.8,0.4,1.1,1.4,0.6,2.2c-0.4,0.8-1.4,1.1-2.2,0.6
			s-1.1-1.4-0.6-2.2C1267.8,314,1268.8,313.7,1269.5,314.1z"/>
		<path class="st13" d="M1231.8,407.4c0,0-0.1-0.1-0.1-0.1c-0.1,0-0.2,0.1-0.2,0.1c0,1.3,0.2,2.5,0.4,3.8c0.2,1.5,0.3,3.1,0.5,4.4
			c0.2,1.3,0.4,2.7,0.7,4c0.4,2.1,1,4.2,1.8,6.2c0.1,0.2,0.3,0,0.3-0.1c-0.3-2.1-0.9-4.2-1.4-6.4c-0.3-1.3-0.5-2.7-0.7-4.1
			c-0.2-1.5-0.3-3-0.5-4.4C1232.5,409.6,1232.3,408.5,1231.8,407.4L1231.8,407.4z"/>
		
			<rect x="1229.9" y="417.1" transform="matrix(0.9895 -0.1445 0.1445 0.9895 -47.6965 182.6853)" class="st14" width="7.2" height="5"/>
		<path class="st17" d="M1238,419.7C1238,419.7,1238,419.7,1238,419.7c6.9,2,10.9,9.2,8.9,16.1c-2,6.9-9.2,10.9-16.1,8.9
			c-6.9-2-10.9-9.2-8.9-16.1C1223.9,421.7,1231.1,417.7,1238,419.7z"/>
		<path class="st18" d="M1241.7,429.9c0.3-0.8,1.1-1.3,2-1.1c0.8,0.3,1.3,1.1,1.1,2c-0.2,0.8-1.1,1.3-2,1.1
			C1241.9,431.6,1241.4,430.7,1241.7,429.9C1241.7,429.9,1241.7,429.9,1241.7,429.9z"/>
		<path class="st18" d="M1235,429c0.8,0.3,1.1,1.4,0.8,2.3c-0.3,0.8-1.1,1.2-1.9,1c-0.9-0.2-1.4-1-1.2-1.9
			C1233.1,429.5,1234.1,428.9,1235,429z"/>
		<path class="st18" d="M1237.9,438.8c0.3-0.8,1.2-1.3,2-1c0.8,0.3,1.3,1.1,1.1,1.9c-0.2,0.8-1.1,1.3-2,1.1
			S1237.7,439.7,1237.9,438.8C1237.9,438.8,1237.9,438.8,1237.9,438.8z"/>
		<path class="st18" d="M1224.9,431.9c0.3-0.9,1.1-1.3,2-1.1c0.8,0.3,1.3,1.1,1.1,2c-0.2,0.8-1.1,1.3-2,1.1
			C1225.2,433.6,1224.7,432.7,1224.9,431.9C1224.9,431.9,1224.9,431.9,1224.9,431.9z"/>
		<path class="st18" d="M1231.3,422.3c0.3-0.8,1.1-1.3,2-1.1c0.8,0.3,1.3,1.1,1.1,2c-0.2,0.8-1.1,1.3-2,1.1
			C1231.5,424,1231,423.2,1231.3,422.3C1231.2,422.3,1231.2,422.3,1231.3,422.3z"/>
		<path class="st18" d="M1230.5,440c0.3-0.8,1.1-1.3,2-1.1c0.8,0.3,1.3,1.1,1.1,2c-0.2,0.8-1.1,1.3-2,1.1
			C1230.8,441.7,1230.3,440.9,1230.5,440C1230.5,440,1230.5,440,1230.5,440z"/>
		<path class="st13" d="M1322.5,432.3c-0.1,0-0.1,0.1-0.1,0.2c0.3,1.5,0.8,3,1.1,4.5c0.8,3.1,1.4,6.3,2.3,9.4
			c0.5,1.8,1.2,3.6,1.9,5.4c0.8,2.2,1.7,4.3,2.8,6.4c0,0.1,0.1,0.1,0.2,0.1c0.1,0,0.2-0.1,0.2-0.2c-0.8-2.6-1.8-5.1-2.7-7.6
			c-0.6-1.6-1.2-3.4-1.6-4.9s-0.8-3-1.1-4.7s-0.8-3.3-1.2-4.9c-0.3-1.3-0.7-2.5-1.3-3.6C1322.7,432.3,1322.6,432.3,1322.5,432.3z"/>
		
			<rect x="1322.3" y="446.1" transform="matrix(0.9646 -0.2639 0.2639 0.9646 -71.6125 366.2253)" class="st14" width="10.4" height="7.2"/>
		<circle class="st19" cx="1330.9" cy="467.5" r="18.8"/>
		<path class="st20" d="M1343.5,461c1.3,0.2,2.2,1.3,2,2.6c0,0,0,0.1,0,0.1c-0.2,1.3-1.4,2.1-2.7,1.8s-2.1-1.4-1.8-2.7
			C1341.2,461.7,1342.3,460.9,1343.5,461z"/>
		<path class="st20" d="M1330.9,463.3C1330.9,463.3,1330.9,463.3,1330.9,463.3c1.3,0.2,2.1,1.4,1.9,2.7c-0.2,1.3-1.4,2.1-2.7,1.9
			c-1.3-0.2-2.1-1.4-1.9-2.7C1328.5,464,1329.7,463.1,1330.9,463.3z"/>
		<path class="st20" d="M1337.1,476.4c0.2-1.3,1.4-2.1,2.6-1.9c1.3,0.2,2.1,1.4,1.9,2.6c-0.2,1.3-1.4,2.1-2.6,1.9
			S1336.9,477.7,1337.1,476.4C1337.1,476.4,1337.1,476.4,1337.1,476.4z"/>
		<path class="st20" d="M1316.9,469.2c0.2-1.3,1.4-2.1,2.6-1.9c1.3,0.2,2.1,1.4,1.9,2.6c-0.2,1.3-1.4,2.1-2.6,1.9
			S1316.7,470.4,1316.9,469.2C1316.9,469.2,1316.9,469.2,1316.9,469.2z"/>
		<path class="st20" d="M1326.9,452.4C1326.9,452.4,1326.9,452.4,1326.9,452.4c1.3,0.2,2.1,1.4,1.9,2.6c-0.2,1.3-1.4,2.1-2.6,1.9
			s-2.1-1.4-1.9-2.6C1324.5,453,1325.7,452.2,1326.9,452.4z"/>
		<path class="st20" d="M1326.7,479.4c0.2-1.3,1.4-2.1,2.6-1.9c0,0,0,0,0,0c1.3,0.2,2.1,1.4,1.9,2.7s-1.4,2.1-2.7,1.9
			S1326.5,480.7,1326.7,479.4C1326.7,479.4,1326.7,479.4,1326.7,479.4z"/>
		<path class="st13" d="M1221.1,155.5c0-0.1-0.3-0.1-0.3,0c-0.3,1.4-0.5,2.8-0.8,4.2c-0.5,2.9-1.2,5.8-1.6,8.7
			c-0.3,1.7-0.3,3.4-0.4,5.1c-0.2,2.2-0.2,4.5-0.1,6.7c0,0.1,0.1,0.1,0.1,0.1c0.1,0,0.2,0,0.2-0.1c0.3-2.5,0.4-5.1,0.6-7.6
			c0.1-1.6,0.2-3.3,0.5-4.8s0.5-2.9,0.8-4.4c0.3-1.5,0.6-3,0.8-4.5C1221.2,157.8,1221.2,156.6,1221.1,155.5L1221.1,155.5z"/>
		
			<rect x="1215.3" y="167.2" transform="matrix(0.1492 -0.9888 0.9888 0.1492 866.7956 1351.3044)" class="st14" width="6.7" height="9.6"/>
		<path class="st15" d="M1224.3,173.7c8,5.2,10.3,16,5.1,24c-5.2,8.1-16,10.4-24,5.1c-8.1-5.2-10.4-16-5.1-24
			C1205.5,170.7,1216.3,168.5,1224.3,173.7z"/>
		<path class="st16" d="M1225.1,188.1c0.6-1,2-1.3,2.9-0.6c0,0,0,0,0,0c1,0.6,1.3,2,0.6,3s-2,1.3-3,0.6
			C1224.7,190.4,1224.4,189.1,1225.1,188.1C1225.1,188.1,1225.1,188.1,1225.1,188.1z"/>
		<path class="st16" d="M1213.6,185.3c0.7-1,2-1.2,2.9-0.5c0.9,0.6,1.2,1.9,0.6,2.9c-0.6,1-1.9,1.3-2.9,0.7
			C1213.2,187.6,1212.9,186.3,1213.6,185.3C1213.5,185.3,1213.6,185.3,1213.6,185.3z"/>
		<path class="st16" d="M1216.8,198c0.7-1,2-1.2,3-0.6c0.9,0.6,1.2,1.9,0.6,2.9c-0.6,1-1.9,1.3-2.9,0.7
			C1216.4,200.4,1216.1,199.1,1216.8,198C1216.8,198.1,1216.8,198.1,1216.8,198z"/>
		<path class="st16" d="M1202.5,184.4c0.7-1,2-1.2,3-0.6c0.9,0.6,1.2,1.9,0.6,2.9c-0.6,1-1.9,1.3-2.9,0.7
			C1202.1,186.7,1201.8,185.4,1202.5,184.4C1202.4,184.4,1202.5,184.4,1202.5,184.4z"/>
		<path class="st16" d="M1214.3,174.6c0.7-1,2-1.2,3-0.6c1,0.6,1.2,1.9,0.6,2.9c-0.6,1-2,1.3-3,0.7
			C1213.9,176.9,1213.6,175.6,1214.3,174.6C1214.2,174.6,1214.2,174.6,1214.3,174.6z"/>
		<path class="st16" d="M1206.8,196.7c0.6-1,2-1.3,2.9-0.6c1,0.6,1.3,2,0.6,2.9c-0.6,1-2,1.3-2.9,0.6
			C1206.5,199.1,1206.2,197.7,1206.8,196.7C1206.8,196.8,1206.8,196.8,1206.8,196.7z"/>
		<path class="st14" d="M1203.7,386c0-0.2-0.3-0.3-0.3-0.1c-0.7,2.7-1.4,5.5-2.1,8.2c-0.7,2.7-1.3,5.4-1.8,8.1c0,0.1,0.3,0.2,0.3,0
			c0.8-2.7,1.5-5.4,2-8.1C1202.5,391.4,1203.1,388.7,1203.7,386L1203.7,386z"/>
		
			<rect x="1197.3" y="395.7" transform="matrix(0.2282 -0.9736 0.9736 0.2282 535.9355 1477.7327)" class="st14" width="5.5" height="10.2"/>
		<path class="st15" d="M1182.6,411.3c-2.3,9.7,7.6,15.1,9.1,22.6c0,0.2,0.1,0.3,0.3,0.4c0.3,0.2,0.6,0.1,0.7-0.2
			c4.7-6,15.9-6.5,18.2-16.2c2.5-10.7-4.5-15.6-10.9-17.1C1193.6,399.2,1185.2,400.6,1182.6,411.3z"/>
		<path class="st21" d="M1203.1,423.1c0.2-0.7,0.9-1.2,1.6-1c0.7,0.2,1.1,0.9,1,1.6c-0.2,0.7-0.9,1.2-1.6,1
			S1202.9,423.8,1203.1,423.1C1203.1,423.1,1203.1,423.1,1203.1,423.1z"/>
		<path class="st21" d="M1198.3,421.7c0.7,0.2,1.2,0.9,1,1.6c-0.2,0.7-0.9,1.2-1.6,1c-0.7-0.2-1.2-0.9-1-1.6
			C1196.9,421.9,1197.6,421.5,1198.3,421.7z"/>
		<path class="st21" d="M1192.2,420.2C1192.2,420.2,1192.2,420.2,1192.2,420.2c0.7,0.2,1.2,0.9,1,1.6c-0.2,0.7-0.9,1.2-1.6,1
			c-0.7-0.2-1.2-0.9-1-1.6C1190.8,420.5,1191.5,420.1,1192.2,420.2z"/>
		<path class="st21" d="M1190.2,406c0.2-0.7,0.9-1.1,1.6-1c0.7,0.2,1.2,0.9,1,1.6c-0.2,0.7-0.9,1.2-1.6,1
			C1190.4,407.5,1190,406.8,1190.2,406C1190.2,406.1,1190.2,406,1190.2,406z"/>
		<path class="st21" d="M1205.2,408.2c0.2-0.7,0.9-1.2,1.6-1c0,0,0,0,0,0c0.7,0.2,1.2,0.9,1,1.6c-0.2,0.7-0.9,1.2-1.6,1
			C1205.5,409.7,1205,409,1205.2,408.2C1205.2,408.2,1205.2,408.2,1205.2,408.2z"/>
		<path class="st21" d="M1186.2,417.9c0.7,0.1,1.2,0.8,1.1,1.5c0,0.1,0,0.1,0,0.2c-0.2,0.7-1,1.1-1.7,0.9c-0.7-0.2-1.1-1-0.9-1.7
			C1184.9,418.2,1185.6,417.8,1186.2,417.9z"/>
		<g>
			<defs>
				<path id="SVGID_2_" d="M1182.6,411.3c-2.3,9.7,7.6,15.1,9.1,22.6c0,0.2,0.1,0.3,0.3,0.4c0.3,0.2,0.6,0.1,0.7-0.2
					c4.7-6,15.9-6.5,18.2-16.2c2.5-10.7-4.5-15.6-10.9-17.1C1193.6,399.2,1185.2,400.6,1182.6,411.3z"/>
			</defs>
			<clipPath id="SVGID_3_">
				<use xlink:href="#SVGID_2_"  style="overflow:visible;"/>
			</clipPath>
			<g class="st22">
				<path class="st23" d="M1177.1,407.6c1.7-1.5,4-2.2,6.2-1.9c1.9,0.3,3.4,1.7,4,3.5c0.7,1.7,0.3,5.1,2.7,5.5c2,0.4,3-2,4.1-3.2
					c0.2-0.3,0.5-0.5,0.7-0.7c2-1.4,4.8-1,6.2,1c1.2,1.5,1.4,3.9,3.1,5c3.2,2.1,5.9-4.4,9.6-3.6"/>
			</g>
		</g>
		<path class="st18" d="M1262.7,380.3c1.1,0,2,0.9,2,2s-0.9,2-2,2c-1.1,0-2-0.9-2-2S1261.6,380.3,1262.7,380.3z"/>
		<path class="st18" d="M1308.7,440.5c1.1,0,2,0.9,2,2s-0.9,2-2,2c-1.1,0-2-0.9-2-2S1307.6,440.5,1308.7,440.5z"/>
		<path class="st18" d="M1170.4,492.8c1.1,0,2,0.9,2,2s-0.9,2-2,2c-1.1,0-2-0.9-2-2S1169.3,492.8,1170.4,492.8z"/>
		<path class="st18" d="M1209.8,563.2c1.1,0,2,0.9,2,2s-0.9,2-2,2c-1.1,0-2-0.9-2-2S1208.7,563.2,1209.8,563.2z"/>
		<path class="st18" d="M1308.5,558.8c1.1,0,2,0.9,2,2s-0.9,2-2,2c-1.1,0-2-0.9-2-2S1307.4,558.8,1308.5,558.8z"/>
		<path class="st18" d="M1269.3,540.2c1.1,0,2,0.9,2,2s-0.9,2-2,2c-1.1,0-2-0.9-2-2S1268.2,540.2,1269.3,540.2z"/>
		<path class="st18" d="M1146.7,430.7c1.1,0,2,0.9,2,2s-0.9,2-2,2c-1.1,0-2-0.9-2-2S1145.6,430.7,1146.7,430.7z"/>
		<path class="st18" d="M1199.8,322.5c1.1,0,2,0.9,2,2s-0.9,2-2,2c-1.1,0-2-0.9-2-2S1198.7,322.5,1199.8,322.5z"/>
		<path class="st18" d="M1201.8,447.9L1201.8,447.9c1.8,0,3.2,1.4,3.2,3.2s-1.4,3.2-3.2,3.2c-1.8,0-3.2-1.4-3.2-3.2
			S1200,447.9,1201.8,447.9z"/>
		<path class="st18" d="M1249.6,195.1c0-1.8,1.4-3.2,3.2-3.2c1.7,0,3.2,1.4,3.2,3.2c0,1.8-1.4,3.2-3.2,3.2
			C1251,198.3,1249.6,196.9,1249.6,195.1C1249.6,195.2,1249.6,195.1,1249.6,195.1z"/>
		<path class="st18" d="M1181.1,308.5c1.1,0,2,0.9,2,2s-0.9,2-2,2c-1.1,0-2-0.9-2-2S1180,308.5,1181.1,308.5z"/>
		<path class="st18" d="M1258.1,272.2c1.1,0,2,0.9,2,2s-0.9,2-2,2c-1.1,0-2-0.9-2-2S1257,272.2,1258.1,272.2z"/>
		<path class="st18" d="M1249.1,289.4c1.1,0,2,0.9,2,2s-0.9,2-2,2c-1.1,0-2-0.9-2-2S1248,289.4,1249.1,289.4z"/>
		<path class="st18" d="M1230.9,213.1c1.1,0,2,0.9,2,2s-0.9,2-2,2c-1.1,0-2-0.9-2-2S1229.8,213.1,1230.9,213.1z"/>
		<path class="st18" d="M1307.1,297.9c1.1,0,2,0.9,2,2s-0.9,2-2,2c-1.1,0-2-0.9-2-2S1306,297.9,1307.1,297.9z"/>
		<path class="st18" d="M1182.5,208.2c1.1,0,2,0.9,2,2s-0.9,2-2,2c-1.1,0-2-0.9-2-2S1181.4,208.2,1182.5,208.2z"/>
		<path class="st18" d="M1233.6,98c1.1,0,2,0.9,2,2s-0.9,2-2,2c-1.1,0-2-0.9-2-2S1232.5,98,1233.6,98z"/>
		<path class="st18" d="M1216.7,132c1.1,0,2,0.9,2,2s-0.9,2-2,2c-1.1,0-2-0.9-2-2S1215.6,132,1216.7,132z"/>
		<rect x="1140.7" y="384.6" class="st18" width="0.9" height="17.8"/>
		<rect x="1140.5" y="384.6" class="st18" width="1.4" height="17.8"/>
		<circle class="st18" cx="1141.2" cy="402.4" r="0.9"/>
		<circle class="st18" cx="1141.2" cy="384.1" r="0.9"/>
		<rect x="1132.1" y="392.8" class="st18" width="17.8" height="0.9"/>
		<rect x="1132.1" y="392.6" class="st18" width="17.8" height="1.4"/>
		<circle class="st18" cx="1132.1" cy="393.3" r="0.9"/>
		<circle class="st18" cx="1150.3" cy="393.3" r="0.9"/>
		
			<rect x="1140.5" y="384.2" transform="matrix(0.7071 -0.7071 0.7071 0.7071 56.2347 921.9418)" class="st18" width="0.9" height="17.8"/>
		
			<rect x="1140.3" y="384.2" transform="matrix(0.7077 -0.7065 0.7065 0.7077 55.7943 920.9995)" class="st18" width="1.4" height="17.8"/>
		<circle class="st18" cx="1134.7" cy="386.8" r="0.9"/>
		<path class="st18" d="M1148.3,399.1c0.4,0.4,0.4,1,0,1.3s-1,0.4-1.3,0s-0.4-1,0-1.3c0,0,0,0,0,0
			C1147.4,398.7,1147.9,398.7,1148.3,399.1C1148.3,399,1148.3,399.1,1148.3,399.1z"/>
		
			<rect x="1132.5" y="392.6" transform="matrix(0.7071 -0.7071 0.7071 0.7071 56.3453 922.1898)" class="st18" width="17.8" height="0.9"/>
		
			<rect x="1132.5" y="392.4" transform="matrix(0.7071 -0.7071 0.7071 0.7071 56.3468 922.1862)" class="st18" width="17.8" height="1.4"/>
		<path class="st18" d="M1148.2,387.6c-0.4,0.3-1,0.3-1.3-0.1c-0.3-0.4-0.3-1,0.1-1.3c0,0,0,0,0,0c0.4-0.4,0.9-0.3,1.3,0
			c0,0,0,0,0,0c0.4,0.4,0.4,1,0,1.3C1148.3,387.5,1148.2,387.5,1148.2,387.6z"/>
		<path class="st18" d="M1135.3,400.5c-0.4,0.3-1,0.3-1.3-0.1c-0.3-0.4-0.3-1,0.1-1.3c0,0,0,0,0,0c0.4-0.4,0.9-0.3,1.3,0
			c0,0,0,0,0,0c0.4,0.4,0.4,1,0,1.3C1135.4,400.4,1135.3,400.4,1135.3,400.5z"/>
		<rect x="1347.4" y="531.1" class="st18" width="0.6" height="15.9"/>
		<rect x="1347.3" y="531.1" class="st18" width="0.8" height="15.9"/>
		<path class="st18" d="M1347.7,546.2C1347.7,546.2,1347.7,546.2,1347.7,546.2c0.5,0,0.9,0.4,0.9,0.8c0,0.5-0.4,0.9-0.8,0.9
			c-0.5,0-0.9-0.4-0.9-0.8C1346.8,546.5,1347.2,546.2,1347.7,546.2z"/>
		<path class="st18" d="M1347.7,529.8C1347.7,529.8,1347.7,529.8,1347.7,529.8c0.5,0,0.9,0.4,0.9,0.8c0,0.5-0.4,0.9-0.8,0.9
			c-0.5,0-0.9-0.4-0.9-0.8C1346.8,530.2,1347.2,529.8,1347.7,529.8z"/>
		<rect x="1339.5" y="538.5" class="st18" width="15.9" height="0.6"/>
		<rect x="1339.5" y="538.4" class="st18" width="15.9" height="0.8"/>
		<circle class="st18" cx="1339.5" cy="538.8" r="0.8"/>
		<path class="st18" d="M1355.9,538c0.5,0,0.8,0.4,0.8,0.8s-0.4,0.8-0.8,0.8s-0.8-0.4-0.8-0.8S1355.4,538,1355.9,538L1355.9,538z"/>
		
			<rect x="1347.2" y="530.7" transform="matrix(0.7071 -0.7071 0.7071 0.7071 13.7805 1110.62)" class="st18" width="0.6" height="15.9"/>
		
			<rect x="1347.1" y="530.8" transform="matrix(0.7076 -0.7066 0.7066 0.7076 13.3471 1109.6946)" class="st18" width="0.8" height="15.9"/>
		<path class="st18" d="M1342.5,532.4c0.3,0.3,0.3,0.9,0,1.2c-0.3,0.3-0.9,0.3-1.2,0c-0.3-0.3-0.3-0.9,0-1.2
			C1341.6,532.1,1342.2,532.1,1342.5,532.4C1342.5,532.4,1342.5,532.4,1342.5,532.4z"/>
		<path class="st18" d="M1354.1,545.2c-0.3,0.3-0.9,0.3-1.2,0s-0.3-0.9,0-1.2c0.3-0.3,0.9-0.3,1.2,0
			C1354.4,544.3,1354.4,544.9,1354.1,545.2z"/>
		
			<rect x="1339.9" y="538.4" transform="matrix(0.7071 -0.7071 0.7071 0.7071 13.8879 1110.8375)" class="st18" width="15.9" height="0.6"/>
		
			<rect x="1339.9" y="538.2" transform="matrix(0.7071 -0.7071 0.7071 0.7071 13.8879 1110.8375)" class="st18" width="15.9" height="0.8"/>
		<path class="st18" d="M1354.1,533.6c-0.3,0.3-0.9,0.3-1.2,0c-0.3-0.3-0.3-0.9,0-1.2c0.3-0.3,0.9-0.3,1.2,0
			S1354.4,533.3,1354.1,533.6C1354.1,533.6,1354.1,533.6,1354.1,533.6z"/>
		<path class="st18" d="M1341.3,545.2c-0.3-0.3-0.3-0.9,0-1.2c0.3-0.3,0.9-0.3,1.2,0c0,0,0,0,0,0c0.3,0.3,0.3,0.9,0,1.2
			C1342.2,545.6,1341.6,545.6,1341.3,545.2z"/>
		<rect x="1224.4" y="487.4" class="st18" width="0.9" height="17.8"/>
		<rect x="1224.2" y="487.4" class="st18" width="1.4" height="17.8"/>
		<path class="st18" d="M1223.9,505.1c0-0.5,0.4-0.9,0.9-0.9s0.9,0.4,0.9,0.9c0,0.5-0.4,0.9-0.9,0.9S1223.9,505.6,1223.9,505.1
			L1223.9,505.1z"/>
		<path class="st18" d="M1223.9,486.9c0-0.5,0.4-0.9,0.9-0.9s0.9,0.4,0.9,0.9c0,0.5-0.4,0.9-0.9,0.9S1223.9,487.4,1223.9,486.9
			L1223.9,486.9z"/>
		<rect x="1215.8" y="495.5" class="st18" width="17.8" height="0.9"/>
		<rect x="1215.8" y="495.3" class="st18" width="17.8" height="1.4"/>
		<path class="st18" d="M1215.8,495c0.5,0,0.9,0.4,0.9,0.9s-0.4,0.9-0.9,0.9s-0.9-0.4-0.9-0.9S1215.2,495,1215.8,495L1215.8,495z"/>
		<path class="st18" d="M1234,495c0.5,0,0.9,0.4,0.9,0.9s-0.4,0.9-0.9,0.9s-0.9-0.4-0.9-0.9S1233.5,495,1234,495L1234,495z"/>
		
			<rect x="1224.2" y="486.9" transform="matrix(0.7071 -0.7071 0.7071 0.7071 8.1128 1011.2087)" class="st18" width="0.9" height="17.8"/>
		
			<rect x="1224" y="486.9" transform="matrix(0.7065 -0.7077 0.7077 0.7065 8.6121 1012.258)" class="st18" width="1.4" height="17.8"/>
		<circle class="st18" cx="1218.4" cy="489.5" r="0.9"/>
		<path class="st18" d="M1232,501.8c0.4,0.4,0.3,0.9,0,1.3c-0.4,0.4-0.9,0.4-1.3,0c-0.4-0.4-0.4-1,0-1.3
			C1231,501.4,1231.6,501.4,1232,501.8C1232,501.8,1232,501.8,1232,501.8z"/>
		
			<rect x="1216.2" y="495.4" transform="matrix(0.7071 -0.7071 0.7071 0.7071 8.171 1011.4642)" class="st18" width="17.8" height="0.9"/>
		
			<rect x="1216.2" y="495.2" transform="matrix(0.7071 -0.7071 0.7071 0.7071 8.1724 1011.4749)" class="st18" width="17.8" height="1.4"/>
		<circle class="st18" cx="1231.3" cy="489.5" r="0.9"/>
		<path class="st18" d="M1219.1,503.1c-0.4,0.4-0.9,0.3-1.3,0c-0.4-0.4-0.4-0.9,0-1.3c0.4-0.4,1-0.4,1.3,0
			C1219.4,502.1,1219.4,502.7,1219.1,503.1C1219.1,503.1,1219.1,503.1,1219.1,503.1z"/>
		<rect x="1150.7" y="340.9" class="st18" width="0.7" height="13.2"/>
		<rect x="1150.5" y="340.9" class="st18" width="1" height="13.2"/>
		<path class="st18" d="M1150.3,354.1c0-0.4,0.3-0.7,0.7-0.7s0.7,0.3,0.7,0.7s-0.3,0.7-0.7,0.7S1150.3,354.5,1150.3,354.1
			L1150.3,354.1z"/>
		<path class="st18" d="M1151,339.8c0.4,0,0.7,0.3,0.7,0.7s-0.3,0.7-0.7,0.7s-0.7-0.3-0.7-0.7S1150.6,339.8,1151,339.8z"/>
		<rect x="1144.2" y="347" class="st18" width="13.2" height="0.7"/>
		<rect x="1144.2" y="346.8" class="st18" width="13.2" height="1"/>
		<path class="st18" d="M1144.2,346.6c0.4,0,0.7,0.3,0.7,0.7s-0.3,0.7-0.7,0.7s-0.7-0.3-0.7-0.7
			C1143.5,346.9,1143.8,346.6,1144.2,346.6L1144.2,346.6z"/>
		<path class="st18" d="M1157.8,346.6c0.4,0,0.7,0.3,0.7,0.7s-0.3,0.7-0.7,0.7s-0.7-0.3-0.7-0.7S1157.4,346.6,1157.8,346.6
			L1157.8,346.6z"/>
		
			<rect x="1150.5" y="340.6" transform="matrix(0.7071 -0.7071 0.7071 0.7071 91.5818 915.4845)" class="st18" width="0.7" height="13.2"/>
		
			<rect x="1150.4" y="340.6" transform="matrix(0.7065 -0.7077 0.7077 0.7065 92.094 916.4101)" class="st18" width="1" height="13.2"/>
		<path class="st18" d="M1146.7,342c0.3,0.3,0.3,0.7,0,1c-0.3,0.3-0.7,0.3-1,0c-0.3-0.3-0.3-0.7,0-1S1146.4,341.7,1146.7,342
			C1146.7,342,1146.7,342,1146.7,342z"/>
		<path class="st18" d="M1156.3,352.6c-0.3,0.3-0.7,0.3-1,0s-0.3-0.7,0-1c0,0,0,0,0,0c0.3-0.3,0.7-0.3,1,0
			C1156.6,351.9,1156.6,352.3,1156.3,352.6z"/>
		
			<rect x="1144.5" y="346.9" transform="matrix(0.7071 -0.7071 0.7071 0.7071 91.6102 915.6664)" class="st18" width="13.2" height="0.7"/>
		
			<rect x="1144.5" y="346.7" transform="matrix(0.7071 -0.7071 0.7071 0.7071 91.6187 915.6742)" class="st18" width="13.2" height="1"/>
		<path class="st18" d="M1155.3,343c-0.3-0.3-0.3-0.7,0-1c0.3-0.3,0.7-0.3,1,0c0.3,0.3,0.3,0.7,0,1
			C1156,343.3,1155.6,343.3,1155.3,343z"/>
		<path class="st18" d="M1145.7,352.6c-0.3-0.3-0.3-0.7,0-1c0,0,0,0,0,0c0.3-0.3,0.7-0.2,1,0c0,0,0,0,0,0c0.3,0.3,0.3,0.7,0,1
			C1146.4,352.9,1146,352.9,1145.7,352.6z"/>
		<rect x="1201.4" y="212.7" class="st18" width="0.7" height="13.2"/>
		<rect x="1201.3" y="212.7" class="st18" width="1" height="13.2"/>
		<path class="st18" d="M1201.1,225.9c0-0.4,0.3-0.7,0.7-0.7s0.7,0.3,0.7,0.7c0,0.4-0.3,0.7-0.7,0.7
			C1201.4,226.6,1201.1,226.3,1201.1,225.9C1201.1,225.9,1201.1,225.9,1201.1,225.9z"/>
		<path class="st18" d="M1201.1,212.3c0-0.4,0.3-0.7,0.7-0.7s0.7,0.3,0.7,0.7c0,0.4-0.3,0.7-0.7,0.7
			C1201.4,213,1201.1,212.7,1201.1,212.3C1201.1,212.3,1201.1,212.3,1201.1,212.3z"/>
		<rect x="1195" y="218.8" class="st18" width="13.2" height="0.7"/>
		<rect x="1195" y="218.6" class="st18" width="13.2" height="1"/>
		<path class="st18" d="M1195,218.4c0.4,0,0.7,0.3,0.7,0.7s-0.3,0.7-0.7,0.7c-0.4,0-0.7-0.3-0.7-0.7
			C1194.3,218.7,1194.6,218.4,1195,218.4C1195,218.4,1195,218.4,1195,218.4z"/>
		<path class="st18" d="M1208.6,218.4c0.4,0,0.7,0.3,0.7,0.7c0,0.4-0.3,0.7-0.7,0.7c-0.4,0-0.7-0.3-0.7-0.7
			C1207.9,218.7,1208.2,218.4,1208.6,218.4C1208.6,218.4,1208.6,218.4,1208.6,218.4z"/>
		
			<rect x="1201.3" y="212.4" transform="matrix(0.7074 -0.7069 0.7069 0.7074 196.8489 913.4719)" class="st18" width="0.7" height="13.2"/>
		
			<rect x="1201.1" y="212.4" transform="matrix(0.7064 -0.7078 0.7078 0.7064 197.8239 914.8762)" class="st18" width="1" height="13.2"/>
		<path class="st18" d="M1197.5,213.9c0.3,0.3,0.2,0.7,0,1c-0.3,0.3-0.7,0.3-1,0c-0.3-0.3-0.3-0.7,0-1
			C1196.7,213.6,1197.2,213.6,1197.5,213.9C1197.5,213.8,1197.5,213.8,1197.5,213.9z"/>
		<path class="st18" d="M1207.1,224.4c-0.3,0.3-0.7,0.3-1,0c-0.3-0.3-0.3-0.7,0-1s0.7-0.3,1,0
			C1207.3,223.7,1207.3,224.1,1207.1,224.4z"/>
		
			<rect x="1195.3" y="218.7" transform="matrix(0.7071 -0.7071 0.7071 0.7071 197.1426 913.9993)" class="st18" width="13.2" height="0.7"/>
		
			<rect x="1195.3" y="218.5" transform="matrix(0.7071 -0.7071 0.7071 0.7071 197.1341 914.0059)" class="st18" width="13.2" height="1"/>
		<path class="st18" d="M1207,214.8c-0.3,0.3-0.7,0.3-1,0c-0.3-0.3-0.3-0.7,0-1c0.3-0.3,0.7-0.3,1,0
			C1207.3,214.1,1207.3,214.5,1207,214.8C1207.1,214.8,1207.1,214.8,1207,214.8z"/>
		<path class="st18" d="M1197.4,224.4c-0.3,0.3-0.7,0.3-1,0c-0.3-0.3-0.3-0.7,0-1c0.3-0.3,0.7-0.3,1,0
			C1197.7,223.7,1197.7,224.1,1197.4,224.4C1197.4,224.4,1197.4,224.4,1197.4,224.4z"/>
		<rect x="1156.7" y="540.4" class="st18" width="0.7" height="13.2"/>
		<rect x="1156.5" y="540.4" class="st18" width="1" height="13.2"/>
		<path class="st18" d="M1156.3,553.6c0-0.4,0.3-0.7,0.7-0.7s0.7,0.3,0.7,0.7s-0.3,0.7-0.7,0.7
			C1156.6,554.3,1156.3,554,1156.3,553.6L1156.3,553.6z"/>
		<path class="st18" d="M1157,539.3C1157,539.3,1157,539.3,1157,539.3c0.4,0,0.7,0.3,0.7,0.7c0,0.4-0.3,0.7-0.7,0.7
			c-0.4,0-0.7-0.3-0.7-0.7C1156.3,539.6,1156.6,539.3,1157,539.3z"/>
		<rect x="1150.2" y="546.5" class="st18" width="13.2" height="0.7"/>
		<rect x="1150.2" y="546.3" class="st18" width="13.2" height="1"/>
		<path class="st18" d="M1150.2,546.1c0.4,0,0.7,0.3,0.7,0.7s-0.3,0.7-0.7,0.7c-0.4,0-0.7-0.3-0.7-0.7
			C1149.5,546.4,1149.8,546.1,1150.2,546.1L1150.2,546.1z"/>
		<path class="st18" d="M1163.8,546.1c0.4,0,0.7,0.3,0.7,0.7s-0.3,0.7-0.7,0.7c-0.4,0-0.7-0.3-0.7-0.7S1163.4,546.1,1163.8,546.1
			L1163.8,546.1z"/>
		
			<rect x="1156.6" y="540.1" transform="matrix(0.7072 -0.707 0.707 0.7072 -47.7946 977.9565)" class="st18" width="0.7" height="13.2"/>
		
			<rect x="1156.4" y="540.1" transform="matrix(0.7064 -0.7078 0.7078 0.7064 -47.2753 979.4329)" class="st18" width="1" height="13.2"/>
		<path class="st18" d="M1152.7,542.5c-0.3,0.3-0.7,0.3-1,0c0,0,0,0,0,0c-0.3-0.3-0.3-0.7,0-1c0.3-0.3,0.7-0.3,1,0
			C1153,541.8,1153,542.2,1152.7,542.5z"/>
		<path class="st18" d="M1162.3,552.1c-0.3,0.3-0.7,0.3-1,0c-0.3-0.3-0.3-0.7,0-1c0,0,0,0,0,0c0.3-0.3,0.7-0.3,1,0
			C1162.6,551.4,1162.6,551.8,1162.3,552.1z"/>
		
			<rect x="1150.5" y="546.4" transform="matrix(0.7071 -0.7071 0.7071 0.7071 -47.6809 978.3549)" class="st18" width="13.2" height="0.7"/>
		
			<rect x="1150.5" y="546.2" transform="matrix(0.7071 -0.7071 0.7071 0.7071 -47.6894 978.3613)" class="st18" width="13.2" height="1"/>
		<path class="st18" d="M1161.3,542.5c-0.3-0.3-0.3-0.7,0-1c0.3-0.3,0.7-0.3,1,0c0.3,0.3,0.3,0.7,0,1
			C1162,542.8,1161.6,542.8,1161.3,542.5z"/>
		<path class="st18" d="M1151.7,552.1L1151.7,552.1c-0.3-0.3-0.3-0.7,0-1s0.7-0.3,1,0c0.3,0.3,0.3,0.7,0,1
			C1152.4,552.4,1152,552.4,1151.7,552.1z"/>
		<rect x="1309.5" y="374.7" class="st18" width="0.9" height="28.5"/>
		<rect x="1309.3" y="374.7" class="st18" width="1.4" height="28.5"/>
		<path class="st18" d="M1308.5,403.2c0-0.8,0.7-1.5,1.5-1.5c0.8,0,1.5,0.7,1.5,1.5c0,0.8-0.7,1.5-1.5,1.5
			C1309.2,404.7,1308.5,404.1,1308.5,403.2C1308.5,403.2,1308.5,403.2,1308.5,403.2z"/>
		<path class="st18" d="M1308.5,373.9c0-0.8,0.7-1.5,1.5-1.5c0.8,0,1.5,0.7,1.5,1.5c0,0.8-0.7,1.5-1.5,1.5
			C1309.2,375.4,1308.5,374.7,1308.5,373.9C1308.5,373.9,1308.5,373.9,1308.5,373.9z"/>
		<rect x="1295.3" y="388.1" class="st18" width="28.5" height="0.9"/>
		<rect x="1295.3" y="387.8" class="st18" width="28.5" height="1.4"/>
		<path class="st18" d="M1295.3,387c0.8,0,1.5,0.7,1.5,1.5c0,0,0,0,0,0c0,0.8-0.7,1.5-1.5,1.5c-0.8,0-1.5-0.7-1.5-1.5
			C1293.8,387.7,1294.5,387,1295.3,387C1295.3,387,1295.3,387,1295.3,387z"/>
		<path class="st18" d="M1326.2,388.5C1326.2,388.5,1326.2,388.5,1326.2,388.5c0,0.8-0.7,1.5-1.5,1.5c-0.8,0-1.5-0.7-1.5-1.5
			s0.7-1.5,1.5-1.5C1325.5,387,1326.2,387.7,1326.2,388.5z"/>
		
			<rect x="1309.3" y="374" transform="matrix(0.7072 -0.707 0.707 0.7072 108.9741 1039.6063)" class="st18" width="0.9" height="28.5"/>
		
			<rect x="1309" y="374" transform="matrix(0.7064 -0.7078 0.7078 0.7064 109.746 1041.0803)" class="st18" width="1.4" height="28.5"/>
		<circle class="st18" cx="1299.6" cy="378.2" r="1.5"/>
		<circle class="st18" cx="1320.4" cy="398.9" r="1.5"/>
		
			<rect x="1296" y="387.8" transform="matrix(0.7071 -0.7071 0.7071 0.7071 109.2261 1040.2123)" class="st18" width="28.5" height="0.9"/>
		
			<rect x="1296" y="387.6" transform="matrix(0.7071 -0.7071 0.7071 0.7071 109.2446 1040.21)" class="st18" width="28.5" height="1.4"/>
		<circle class="st18" cx="1320.4" cy="378.2" r="1.5"/>
		<circle class="st18" cx="1299.6" cy="398.9" r="1.5"/>
		<rect x="1247.4" y="124.4" class="st18" width="0.9" height="22.1"/>
		<rect x="1247.2" y="124.4" class="st18" width="1.4" height="22.1"/>
		<path class="st18" d="M1247.8,145.4L1247.8,145.4c0.6,0,1.2,0.5,1.2,1.2c0,0.6-0.5,1.2-1.2,1.2c-0.6,0-1.2-0.5-1.2-1.2
			C1246.7,145.9,1247.2,145.4,1247.8,145.4z"/>
		<path class="st18" d="M1246.7,123.8c0-0.6,0.5-1.2,1.2-1.2s1.2,0.5,1.2,1.2s-0.5,1.2-1.2,1.2S1246.7,124.5,1246.7,123.8
			L1246.7,123.8z"/>
		<rect x="1236.5" y="134.7" class="st18" width="22.1" height="0.9"/>
		<rect x="1236.5" y="134.5" class="st18" width="22.1" height="1.4"/>
		<path class="st18" d="M1237.6,135.2L1237.6,135.2c0,0.6-0.5,1.2-1.2,1.2c-0.6,0-1.2-0.5-1.2-1.2s0.5-1.2,1.2-1.2
			C1237.1,134,1237.6,134.5,1237.6,135.2z"/>
		<path class="st18" d="M1260.4,135.2L1260.4,135.2c0,0.6-0.5,1.2-1.2,1.2c-0.6,0-1.2-0.5-1.2-1.2s0.5-1.2,1.2-1.2
			C1259.9,134,1260.4,134.5,1260.4,135.2z"/>
		
			<rect x="1247.2" y="123.9" transform="matrix(0.7071 -0.7071 0.7071 0.7071 269.9846 921.7336)" class="st18" width="0.9" height="22.1"/>
		
			<rect x="1246.9" y="123.9" transform="matrix(0.7071 -0.7071 0.7071 0.7071 269.9882 921.7351)" class="st18" width="1.4" height="22.1"/>
		<path class="st18" d="M1240.6,126.3c0.5,0.5,0.4,1.2,0,1.6c0,0,0,0,0,0c-0.5,0.5-1.2,0.5-1.7,0c-0.5-0.5-0.5-1.2,0-1.7
			C1239.4,125.9,1240.2,125.9,1240.6,126.3C1240.6,126.3,1240.6,126.3,1240.6,126.3z"/>
		<path class="st18" d="M1256.7,144.1C1256.7,144.1,1256.7,144.1,1256.7,144.1c-0.5,0.5-1.2,0.5-1.7,0c-0.5-0.5-0.5-1.2,0-1.7
			c0.5-0.5,1.2-0.5,1.7,0C1257.2,142.9,1257.2,143.6,1256.7,144.1z"/>
		
			<rect x="1237" y="134.5" transform="matrix(0.7071 -0.7071 0.7071 0.7071 270.111 922.0468)" class="st18" width="22.1" height="0.9"/>
		
			<rect x="1237" y="134.3" transform="matrix(0.7071 -0.7071 0.7071 0.7071 270.1295 922.0444)" class="st18" width="22.1" height="1.4"/>
		<path class="st18" d="M1255.1,128c-0.5-0.5-0.5-1.2,0-1.6c0.5-0.5,1.2-0.5,1.7,0c0.5,0.5,0.5,1.2,0,1.7
			C1256.3,128.4,1255.5,128.4,1255.1,128z"/>
		<path class="st18" d="M1240.6,144.1c-0.5,0.5-1.2,0.5-1.7,0c-0.5-0.5-0.5-1.2,0-1.7c0.5-0.5,1.2-0.5,1.7,0c0,0,0,0,0,0
			C1241.1,142.9,1241.1,143.6,1240.6,144.1C1240.6,144.1,1240.6,144.1,1240.6,144.1z"/>
		<rect x="1229.8" y="309.6" class="st18" width="0.9" height="25.9"/>
		<rect x="1229.5" y="309.6" class="st18" width="1.4" height="25.9"/>
		<path class="st18" d="M1228.8,335.5c0-0.8,0.6-1.4,1.4-1.4c0,0,0,0,0,0c0.8,0,1.4,0.6,1.4,1.4c0,0.8-0.6,1.4-1.4,1.4
			C1229.4,336.9,1228.8,336.3,1228.8,335.5C1228.8,335.5,1228.8,335.5,1228.8,335.5z"/>
		<path class="st18" d="M1230.2,307.5C1230.2,307.5,1230.2,307.5,1230.2,307.5c0.8,0,1.4,0.6,1.4,1.4c0,0.8-0.6,1.4-1.4,1.4
			c-0.8,0-1.4-0.6-1.4-1.4C1228.8,308.1,1229.5,307.5,1230.2,307.5z"/>
		<rect x="1216.9" y="321.7" class="st18" width="25.9" height="0.9"/>
		<rect x="1216.9" y="321.5" class="st18" width="25.9" height="1.4"/>
		<path class="st18" d="M1218.3,322.2L1218.3,322.2c0,0.8-0.6,1.4-1.4,1.4c-0.8,0-1.4-0.6-1.4-1.4s0.6-1.4,1.4-1.4
			C1217.6,320.8,1218.3,321.4,1218.3,322.2z"/>
		<path class="st18" d="M1244.9,322.2L1244.9,322.2c0,0.8-0.6,1.4-1.4,1.4c-0.8,0-1.4-0.6-1.4-1.4s0.6-1.4,1.4-1.4
			C1244.3,320.8,1244.9,321.4,1244.9,322.2z"/>
		
			<rect x="1229.5" y="309" transform="matrix(0.707 -0.7072 0.7072 0.707 132.6989 964.1835)" class="st18" width="0.9" height="25.9"/>
		
			<rect x="1229.3" y="308.9" transform="matrix(0.7072 -0.707 0.707 0.7072 132.5431 963.802)" class="st18" width="1.4" height="25.9"/>
		<path class="st18" d="M1221.8,311.8c0.5,0.5,0.5,1.4,0,1.9c-0.5,0.5-1.4,0.5-1.9,0c-0.5-0.5-0.5-1.4,0-1.9c0,0,0,0,0,0
			C1220.4,311.2,1221.2,311.2,1221.8,311.8C1221.8,311.8,1221.8,311.8,1221.8,311.8z"/>
		<path class="st18" d="M1240.6,332.6c-0.5,0.5-1.4,0.5-1.9,0s-0.5-1.4,0-1.9c0,0,0,0,0,0c0.5-0.5,1.4-0.5,1.9,0
			C1241.1,331.2,1241.1,332,1240.6,332.6z"/>
		
			<rect x="1217.5" y="321.5" transform="matrix(0.7071 -0.7071 0.7071 0.7071 132.7456 964.3544)" class="st18" width="25.9" height="0.9"/>
		
			<rect x="1217.5" y="321.3" transform="matrix(0.7071 -0.7071 0.7071 0.7071 132.7441 964.3579)" class="st18" width="25.9" height="1.4"/>
		<path class="st18" d="M1238.7,313.7c-0.5-0.5-0.5-1.4,0-1.9c0,0,0,0,0,0c0.5-0.5,1.4-0.5,1.9,0c0.5,0.5,0.5,1.4,0,1.9
			C1240.1,314.3,1239.2,314.3,1238.7,313.7z"/>
		<path class="st18" d="M1219.8,332.6c-0.5-0.5-0.5-1.4,0-1.9c0.5-0.5,1.4-0.5,1.9,0c0.5,0.5,0.5,1.4,0,1.9
			C1221.2,333.1,1220.3,333.1,1219.8,332.6z"/>
		<path class="st14" d="M1271.7,505.8c0-0.2-0.4-0.2-0.4,0c-0.4,4.5-0.7,9.1-1,13.6c-0.3,4.5-0.7,9-0.7,13.6c0,0.2,0.3,0.2,0.3,0
			c0.6-4.5,0.7-9,1-13.6S1271.4,510.3,1271.7,505.8L1271.7,505.8z"/>
		
			<rect x="1266.2" y="525.9" transform="matrix(5.989229e-02 -0.9982 0.9982 5.989229e-02 661.3011 1770.6136)" class="st14" width="8.9" height="16.6"/>
		<path class="st17" d="M1244.9,552.1c-1,16.1,16.3,22.2,20.6,33.8c0.1,0.2,0.2,0.4,0.4,0.5c0.4,0.2,1,0.1,1.2-0.4
			c5.8-11,23.8-14.8,24.8-30.9c1.2-17.8-11.4-23.9-22-24.5C1259.3,529.8,1246,534.2,1244.9,552.1z"/>
		<path class="st24" d="M1283.1,563.5C1283.1,563.5,1283.1,563.5,1283.1,563.5c1.2,0.1,2.1,1.1,2,2.3c-0.1,1.2-1.1,2.1-2.3,2
			s-2.1-1.1-2-2.3C1280.9,564.3,1281.9,563.4,1283.1,563.5z"/>
		<path class="st24" d="M1272.8,564.5C1272.8,564.5,1272.8,564.5,1272.8,564.5c1.2,0.1,2.1,1.1,2,2.3s-1.1,2.1-2.3,2s-2.1-1.1-2-2.3
			C1270.6,565.3,1271.6,564.4,1272.8,564.5z"/>
		<path class="st24" d="M1262.6,563.8C1262.6,563.8,1262.6,563.8,1262.6,563.8c1.2,0.1,2.1,1.1,2,2.3c-0.1,1.2-1.1,2.1-2.3,2
			s-2.1-1.1-2-2.3C1260.4,564.7,1261.4,563.8,1262.6,563.8z"/>
		<path class="st24" d="M1257.8,539.6C1257.8,539.6,1257.8,539.6,1257.8,539.6c1.2,0.1,2.1,1.1,2,2.3s-1.1,2.1-2.3,2
			c-1.2-0.1-2.1-1.1-2-2.3C1255.6,540.5,1256.6,539.6,1257.8,539.6z"/>
		<path class="st24" d="M1282.5,539.1C1282.5,539.1,1282.5,539.1,1282.5,539.1c1.2,0.1,2.1,1.1,2,2.3s-1.1,2.1-2.3,2s-2.1-1.1-2-2.3
			C1280.3,539.9,1281.3,539,1282.5,539.1z"/>
		<path class="st24" d="M1252.5,561.5C1252.6,561.5,1252.6,561.5,1252.5,561.5c1.2,0.1,2.1,1.1,2,2.3s-1.1,2.1-2.3,2s-2.1-1.1-2-2.3
			C1250.4,562.3,1251.4,561.4,1252.5,561.5z"/>
		<g>
			<defs>
				<path id="SVGID_4_" d="M1244.9,552.1c-1,16.1,16.3,22.2,20.6,33.8c0.1,0.2,0.2,0.4,0.4,0.5c0.4,0.2,1,0.1,1.2-0.4
					c5.8-11,23.8-14.8,24.8-30.9c1.2-17.8-11.4-23.9-22-24.5C1259.3,529.8,1246,534.2,1244.9,552.1z"/>
			</defs>
			<clipPath id="SVGID_5_">
				<use xlink:href="#SVGID_4_"  style="overflow:visible;"/>
			</clipPath>
			<g class="st25">
				<path class="st26" d="M1235,547.6c2.3-2.9,5.7-4.6,9.4-4.8c3.4,0,5.7,1.8,7.4,4.5c1.6,2.6,1.9,8.1,5.8,8.1
					c3.3,0,4.3-4.1,5.8-6.3c0.3-0.5,0.6-0.9,1-1.3c2.8-2.8,7.4-2.8,10.2,0c2.3,2.1,3.2,5.9,6.3,7.2c5.7,2.5,8.2-8.7,14.4-8.4"/>
			</g>
		</g>
		<path class="st27" d="M1188.2,147.2c-2.6-3.3,0.6-8.7,4.6-9.4c4-0.7,7.8,1.7,11.2,4.1c15.8,11.1,31.7,24.6,50.7,25.4
			c11,0.4,21.6-3.4,29.8-10.7"/>
		<path class="st27" d="M1148.4,268.3c32.3,13.7,77.1,1.1,105-17.1c9.8-6.5,56.5-43.4,39-56.9"/>
		<path class="st27" d="M1351.7,390.1c-14.2,12.6-47.8,28-79.4,26.6c-28.8-1.3-47.8-9-68.4-30c-38.8,5.6-83.5-13.6-89.7-39.7"/>
		<path class="st27" d="M1081.7,494.8c10.3-3.6,21.8-0.8,29.6,3.6c30.3,17.2,56,21.5,93.6,20c34.8-1.4,80.1-11.8,102.1-32.8
			c24.3,15.6,61.9,17.9,88.2,5.9"/>
		<path class="st14" d="M1191.2,229c0-0.2-0.3-0.3-0.3-0.1c-0.6,3.5-1.3,7.1-1.8,10.6s-1.3,7-1.5,10.5l0,0c0,0.1,0.1,0.2,0.1,0.2
			c0.1,0,0.2-0.1,0.2-0.1c0.8-3.5,1.3-6.9,1.8-10.5S1190.8,232.5,1191.2,229L1191.2,229z"/>
		
			<rect x="1184.2" y="245.3" transform="matrix(0.1498 -0.9887 0.9887 0.1498 760.7814 1388.3774)" class="st14" width="7" height="13"/>
		<path class="st19" d="M1167.1,263.1c-1.9,12.4,11.1,18.4,13.7,27.8c0,0.2,0.1,0.3,0.3,0.4c0.3,0.2,0.7,0.1,1-0.2
			c5.3-8.1,19.5-9.8,21.5-22.3c2.2-13.8-7.2-19.4-15.4-20.7C1179.8,246.8,1169.2,249.2,1167.1,263.1z"/>
		<path class="st21" d="M1196,274.7c0.9,0.1,1.6,1,1.4,1.9c-0.1,0.9-1,1.6-1.9,1.4c-0.9-0.1-1.6-1-1.4-1.9
			C1194.3,275.1,1195.1,274.5,1196,274.7z"/>
		<path class="st21" d="M1187.8,274.8c0.9,0.1,1.6,0.9,1.6,1.8c0,0.1,0,0.2,0,0.3c-0.2,0.9-1.1,1.5-2,1.3c-0.9-0.2-1.5-1.1-1.3-2
			C1186.2,275.3,1186.9,274.8,1187.8,274.8z"/>
		<path class="st21" d="M1180.1,273.5c0.9,0.1,1.6,1,1.4,1.9c-0.1,0.9-1,1.6-1.9,1.4c-0.9-0.1-1.6-1-1.4-1.9
			C1178.3,274,1179.1,273.4,1180.1,273.5z"/>
		<path class="st21" d="M1176.1,255.7c0.1-0.9,1-1.5,1.9-1.4c0.9,0.1,1.6,1,1.4,1.9c-0.1,0.9-1,1.6-1.9,1.4
			S1175.9,256.6,1176.1,255.7C1176.1,255.7,1176.1,255.7,1176.1,255.7z"/>
		<path class="st21" d="M1197.3,255.6C1197.3,255.6,1197.3,255.6,1197.3,255.6c0.9,0.2,1.6,1,1.4,1.9c-0.1,0.9-1,1.5-1.9,1.4
			c-0.9-0.1-1.5-1-1.4-1.9C1195.5,256.1,1196.4,255.5,1197.3,255.6z"/>
		<path class="st21" d="M1172.4,271c0.9,0.1,1.6,1,1.4,1.9c-0.1,0.9-1,1.6-1.9,1.4c-0.9-0.1-1.6-1-1.4-1.9
			C1170.6,271.4,1171.5,270.8,1172.4,271z"/>
		<g>
			<defs>
				<path id="SVGID_6_" d="M1167.1,263.1c-1.9,12.4,11.1,18.4,13.7,27.8c0,0.2,0.1,0.3,0.3,0.4c0.3,0.2,0.7,0.1,1-0.2
					c5.3-8.1,19.5-9.8,21.5-22.3c2.2-13.8-7.2-19.4-15.4-20.7C1179.8,246.8,1169.2,249.2,1167.1,263.1z"/>
			</defs>
			<clipPath id="SVGID_7_">
				<use xlink:href="#SVGID_6_"  style="overflow:visible;"/>
			</clipPath>
			<g class="st28">
				<path class="st29" d="M1159.7,258.9c2-2.1,4.8-3.2,7.7-3c2.4,0.2,4.5,1.8,5.4,4.1c1.1,2.1,0.9,6.4,4,6.7
					c2.5,0.3,3.7-2.9,4.9-4.5c0.3-0.3,0.5-0.6,0.9-0.9c2.4-2,6-1.7,8,0.7c1.7,1.8,2.1,4.8,4.4,6.1c4.3,2.3,7-6.2,11.8-5.5"/>
			</g>
		</g>
		<path class="st18" d="M1347.2,690.7L1347.2,690.7c-0.1,0.1-0.2,0.3-0.1,0.4c0.1,0.1,0.3,0.2,0.4,0.1c0.6-0.4,1.1-0.8,1.6-1.2
			c0.2-0.2,0.5-0.5,0.7-0.7c0.3-0.2,0.4-0.6,0.5-0.9c0,0,0,0,0,0c0-0.1-0.2-0.2-0.3-0.2c-0.3,0.1-0.6,0.3-0.8,0.6l-0.7,0.7
			C1348.2,689.8,1347.6,690.2,1347.2,690.7L1347.2,690.7z"/>
		<path class="st30" d="M1351.2,689.9C1351.2,689.9,1351.2,689.9,1351.2,689.9c-2.7-1.5-3.7-4.9-2.3-7.6c1.5-2.7,4.9-3.7,7.6-2.3
			s3.7,4.9,2.3,7.6C1357.3,690.4,1353.9,691.4,1351.2,689.9z"/>
		<path class="st18" d="M1139,697.9c0.2-0.3-0.3-0.7-0.5-0.4c-0.4,0.5-0.8,1.1-1.2,1.7c-0.2,0.4-0.3,0.7-0.5,1
			c-0.2,0.3-0.2,0.7-0.2,1c0,0,0,0,0,0.1c0.1,0.1,0.2,0.2,0.3,0.1c0.3-0.2,0.5-0.5,0.6-0.8l0.4-0.8
			C1138.4,699.1,1138.8,698.5,1139,697.9L1139,697.9z"/>
		<path class="st30" d="M1128.9,704.3c0.6-3,3.5-5,6.5-4.4c3,0.6,5,3.5,4.4,6.5c-0.6,3-3.5,5-6.5,4.4
			C1130.3,710.3,1128.3,707.4,1128.9,704.3C1128.9,704.3,1128.9,704.3,1128.9,704.3z"/>
		<path class="st18" d="M1119.1,668.6c0.1,0.1,0.3,0,0.4-0.1c0.1-0.1,0.1-0.3,0-0.4c-0.4-0.5-0.9-0.9-1.4-1.3
			c-0.3-0.2-0.5-0.4-0.8-0.6c-0.3-0.2-0.6-0.3-1-0.4c0,0-0.1,0-0.1,0c-0.1,0.1-0.2,0.2-0.1,0.3c0.2,0.3,0.5,0.5,0.8,0.6l0.8,0.5
			C1118.1,667.8,1118.6,668.2,1119.1,668.6L1119.1,668.6z"/>
		<path class="st30" d="M1114.2,657.6c2.9,1,4.5,4.2,3.5,7.1c0,0,0,0,0,0c-1,2.9-4.2,4.5-7.1,3.5s-4.5-4.2-3.5-7.1
			S1111.3,656.6,1114.2,657.6C1114.2,657.6,1114.2,657.6,1114.2,657.6z"/>
		<path class="st18" d="M1382.9,711.4c-0.1-0.1-0.3-0.1-0.4,0.1c-0.1,0.1-0.1,0.3,0,0.4c0.4,0.5,0.9,0.9,1.5,1.3
			c0.3,0.2,0.5,0.4,0.8,0.5c0.3,0.2,0.6,0.3,1,0.3c0,0,0.1,0,0.1,0c0.1-0.1,0.2-0.2,0.1-0.3c-0.2-0.3-0.4-0.5-0.8-0.7l-0.8-0.5
			C1383.9,712.2,1383.5,711.7,1382.9,711.4L1382.9,711.4z"/>
		<path class="st30" d="M1384.4,715.3C1384.5,715.3,1384.5,715.3,1384.4,715.3c1-3,4.2-4.6,7.1-3.6c2.9,1,4.5,4.1,3.5,7.1
			c-1,2.9-4.1,4.5-7.1,3.5C1385.1,721.3,1383.5,718.2,1384.4,715.3z"/>
		<path class="st4" d="M1309.5,728.1L1309.5,728.1"/>
		<path class="st7" d="M1237.4,704.9c-34.5,3.2-69-7.2-103.7-7.5c-23.2-0.2-47.7,3.8-68.5-6.4c-3.3-1.6-6.8-4.2-6.8-7.8
			c0-2.7,2.1-5,4.3-6.7c7.4-5.4,17-6.2,26.2-6.7c30.5-1.6,60.3-2.2,90.3,1.8c14.7,2,14.3,16.1,27.8,17.8
			c35.8,4.4,72.3,1.4,108.2,0.4c18.7-0.5,40.9-0.7,58.4,8.6c13.3,7,10.8,15.3-0.4,22.1c-16.9,10.3-40.6,7.9-60.4,7.5"/>
		<path class="st4" d="M1239.1,704.8L1239.1,704.8"/>
		<rect x="1188.4" y="578.5" class="st31" width="107.1" height="134.9"/>
		<rect x="1183.3" y="567.4" class="st31" width="117.4" height="31.6"/>
		<line class="st32" x1="1188.4" y1="599.7" x2="1295.6" y2="599.7"/>
		<line class="st33" x1="1253" y1="713.4" x2="1245.2" y2="566.5"/>
		<line class="st33" x1="1238.4" y1="713.3" x2="1245.2" y2="566.5"/>
		<path class="st33" d="M1244.8,567.8l12.9-2.5c6.8-1.3,14-2.9,18.8-7.3c2.2-2,3.8-5,2.6-7.6c-1-1.8-2.8-3-4.9-3.2
			c-2.1-0.3-4.2-0.1-6.3,0.5c-4.8,1.5-9.1,4.1-12.6,7.7c-3.3,3.5-6.2,7.2-8.8,11.2"/>
		<path class="st33" d="M1244.9,567.2c0,0-16.7-5.2-22.5-10.9c-2.7-2.6-5.1-5.8-4.9-9.3c0.2-4.3,6.1-5.5,10-4.5
			c5.1,1.3,8.1,5.6,10.6,9.3c3.2,4.6,5.6,9.6,7.3,14.8"/>
		<path class="st33" d="M1222.5,595.6c2.9-11.7,11.5-22.3,23.2-28.5"/>
		<path class="st33" d="M1260.8,602.2c-0.6-13-5.6-25.4-14.2-35.2"/>
		<path class="st33" d="M1220.8,562.7c-1.3-0.6-2.4-1.5-3.3-2.6c-2.3-3.6,2-7.7,6-8.3c3.8-0.5,7.8,1.6,10.6,3.5
			c3.2,2.3,6,4.9,8.5,7.9c0.3,0.3,2.9,4.4,3,4.4C1237.6,567,1227.9,566.2,1220.8,562.7z"/>
		<path class="st33" d="M1261.2,556.2c8.9-7.8,3.4-17.2-5.4-15.9c-10.3,1.5-10.6,26.2-10.6,26.2S1252.3,564,1261.2,556.2z"/>
		<rect x="1258.4" y="624.6" class="st34" width="37.8" height="88.7"/>
		<polygon class="st35" points="1348.2,713.3 1332.8,624.6 1258.4,624.6 1273.9,713.4 		"/>
		<g>
			<defs>
				<polygon id="SVGID_8_" points="1348.2,713.3 1332.8,624.6 1258.4,624.6 1273.9,713.4 				"/>
			</defs>
			<clipPath id="SVGID_9_">
				<use xlink:href="#SVGID_8_"  style="overflow:visible;"/>
			</clipPath>
			<g class="st36">
				<polygon class="st37" points="1339.4,644.5 1326.5,631.7 1334.9,618.9 1347.8,631.7 				"/>
				<polygon class="st37" points="1342.6,663.1 1329.7,650.3 1338.2,637.5 1351.1,650.3 				"/>
				<polygon class="st37" points="1345.9,681.8 1333,669 1341.4,656.2 1354.3,669 				"/>
				<polygon class="st37" points="1349.1,700.4 1336.2,687.6 1344.7,674.8 1357.5,687.6 				"/>
				<polygon class="st37" points="1352.3,719.1 1339.4,706.3 1347.9,693.4 1360.8,706.3 				"/>
				<polygon class="st37" points="1323.3,644.5 1310.4,631.7 1318.8,618.9 1331.7,631.7 				"/>
				<polygon class="st37" points="1326.5,663.1 1313.6,650.3 1322.1,637.5 1334.9,650.3 				"/>
				<polygon class="st37" points="1329.7,681.8 1316.9,669 1325.3,656.2 1338.2,669 				"/>
				<polygon class="st37" points="1333,700.4 1320.1,687.6 1328.5,674.8 1341.4,687.6 				"/>
				<polygon class="st37" points="1336.2,719.1 1323.3,706.3 1331.8,693.5 1344.7,706.3 				"/>
				<polygon class="st37" points="1307.2,644.5 1294.3,631.7 1302.7,618.9 1315.6,631.7 				"/>
				<polygon class="st37" points="1310.4,663.1 1297.5,650.3 1305.9,637.5 1318.8,650.3 				"/>
				<polygon class="st37" points="1313.6,681.8 1300.7,669 1309.2,656.2 1322.1,669 				"/>
				<polygon class="st37" points="1316.9,700.4 1304,687.6 1312.4,674.8 1325.3,687.6 				"/>
				<polygon class="st37" points="1320.1,719.1 1307.2,706.3 1315.7,693.5 1328.5,706.3 				"/>
				<polygon class="st37" points="1291,644.5 1278.2,631.7 1286.6,618.9 1299.5,631.7 				"/>
				<polygon class="st37" points="1294.3,663.1 1281.4,650.3 1289.8,637.5 1302.7,650.3 				"/>
				<polygon class="st37" points="1297.5,681.8 1284.6,669 1293.1,656.2 1305.9,669 				"/>
				<polygon class="st37" points="1300.8,700.4 1287.9,687.6 1296.3,674.8 1309.2,687.6 				"/>
				<polygon class="st37" points="1304,719.1 1291.1,706.3 1299.5,693.5 1312.4,706.3 				"/>
				<polygon class="st37" points="1274.9,644.5 1262,631.7 1270.5,618.9 1283.4,631.7 				"/>
				<polygon class="st37" points="1278.2,663.2 1265.3,650.4 1273.7,637.5 1286.6,650.3 				"/>
				<polygon class="st37" points="1281.4,681.8 1268.5,669 1276.9,656.2 1289.8,669 				"/>
				<polygon class="st37" points="1284.6,700.4 1271.8,687.6 1280.2,674.8 1293.1,687.6 				"/>
				<polygon class="st37" points="1287.9,719.1 1275,706.3 1283.4,693.5 1296.3,706.3 				"/>
				<polygon class="st37" points="1258.8,644.5 1245.9,631.7 1254.4,618.9 1267.3,631.7 				"/>
				<polygon class="st37" points="1262,663.2 1249.2,650.4 1257.6,637.5 1270.5,650.4 				"/>
				<polygon class="st37" points="1265.3,681.8 1252.4,669 1260.8,656.2 1273.7,669 				"/>
				<polygon class="st37" points="1268.5,700.4 1255.6,687.6 1264.1,674.8 1277,687.6 				"/>
				<polygon class="st37" points="1271.8,719.1 1258.9,706.3 1267.3,693.5 1280.2,706.3 				"/>
			</g>
		</g>
		<polyline class="st38" points="1315.4,713.4 1305.9,669 1301.5,624.6 		"/>
		<polyline class="st38" points="1310.6,713.4 1305.9,669 1295.2,624.6 		"/>
		<polyline class="st38" points="1266.5,671.2 1305.9,669 1340.9,671.2 		"/>
		<polyline class="st38" points="1265.7,666.4 1305.9,669 1340.1,666.4 		"/>
		<path class="st38" d="M1306.1,668.6c0-3.7,1.6-7.2,4.4-9.6c1.1-1.1,2.6-1.8,4.1-1.9c1-0.1,2,0.2,2.7,0.9c0.4,0.6,0.6,1.3,0.3,2
			c-0.7,2.2-2.3,4.1-4.3,5.3c-2.2,1.4-4.5,2.5-6.9,3.4"/>
		<path class="st38" d="M1305.7,668.5c1.5,3.5,3.8,6.7,6.6,9.4c1,1.1,2.2,2,3.6,2.6c1.4,0.7,3,0.9,4.5,0.5c0.6-0.1,1.2-0.6,1.4-1.2
			c0-0.5-0.2-1.1-0.5-1.5c-2-3.1-5.9-5.2-9.6-7.1c-1.5-0.9-3.1-1.5-4.8-1.8"/>
		<path class="st38" d="M1294.5,683.4c0.5-3,1.9-5.7,4.1-7.8c2.2-2.3,4.7-4.3,7.3-6.1"/>
		<path class="st38" d="M1300.7,688.7c-2.3-7,0-14.6,5.7-19.2"/>
		<path class="st38" d="M1282.1,663.8c8.9-0.8,17.1,2.3,23.7,4.9"/>
		<path class="st38" d="M1284.6,659.4c7.7-0.4,16.1,3,20.7,8.4"/>
		<path class="st38" d="M1306.7,668.7c-3.4-3-6.3-5.8-7.3-9.8c-0.5-2.3-0.7-4.7,0.6-6.5c0,0,0,0,0,0c1.5-1.9,4.2-2.2,6.1-0.8
			c1.6,1.3,2,3.3,2.1,5.1C1308.5,660.8,1308,664.8,1306.7,668.7"/>
		<path class="st38" d="M1305.2,670.2c-1,2.9,0.5,6.2,2.7,9c0.6,0.8,1.3,1.5,2.2,2.1c0.9,0.6,2,0.9,3.1,0.7c1-0.2,1.7-1,1.8-2
			c0-1-0.3-1.9-0.8-2.8c-0.9-1.7-5.2-8.2-8.2-7.9"/>
		<rect x="1149.7" y="650.4" class="st13" width="65.7" height="62.9"/>
		<rect x="1146.6" y="642.7" class="st13" width="72.1" height="22.1"/>
		<g class="st39">
			<g>
				<defs>
					<polygon id="SVGID_10_" points="1146.6,664.8 1149.7,664.8 1149.7,713.3 1215.4,713.4 1215.5,664.8 1218.6,664.8 1218.7,642.8 
						1146.6,642.7 					"/>
				</defs>
				<clipPath id="SVGID_11_">
					<use xlink:href="#SVGID_10_"  style="overflow:visible;"/>
				</clipPath>
				<g class="st40">
					<line class="st41" x1="1212.4" y1="713.2" x2="1212.5" y2="642.8"/>
					<line class="st41" x1="1192.1" y1="713.1" x2="1192.2" y2="642.7"/>
					<line class="st41" x1="1171.8" y1="713.1" x2="1171.9" y2="642.7"/>
					<line class="st41" x1="1151.5" y1="713.1" x2="1151.6" y2="642.7"/>
					<line class="st41" x1="1143.1" y1="708.3" x2="1224.2" y2="708.4"/>
					<line class="st41" x1="1143.1" y1="688" x2="1224.2" y2="688.1"/>
					<line class="st41" x1="1143.1" y1="667.8" x2="1224.2" y2="667.8"/>
					<line class="st41" x1="1143.1" y1="647.5" x2="1224.2" y2="647.5"/>
				</g>
			</g>
		</g>
		<line class="st42" x1="1149.7" y1="665.2" x2="1215.5" y2="665.3"/>
		<line class="st38" x1="1189.5" y1="713.3" x2="1182.6" y2="642.4"/>
		<line class="st38" x1="1176.6" y1="713.3" x2="1182.6" y2="642.4"/>
		<path class="st38" d="M1182.4,643.1l5.7-1.3c3-0.7,6.2-1.4,8.3-3.7c1-1,1.7-2.5,1.1-3.8c-0.4-0.9-1.2-1.5-2.1-1.6
			c-0.9-0.2-1.9-0.1-2.8,0.3c-2.2,0.8-4.1,2.1-5.6,3.9c-1.5,1.8-2.8,3.6-3.9,5.6"/>
		<path class="st38" d="M1182.5,642.7c-3,0-5.8-1.8-8-3.6s-4.3-4.2-4-6.9c0-0.4,0.1-0.8,0.4-1.1c0.5-0.5,1.3-0.7,2-0.5
			c3.1,0.5,5.3,3.1,7.3,5.5c1.5,1.8,3.1,4,2.6,6.3"/>
		<path class="st38" d="M1172.6,657.1c1.3-6,5-11.2,10.2-14.3"/>
		<path class="st38" d="M1189.5,660.4c-0.2-6.4-2.4-12.6-6.3-17.7"/>
		
			<rect x="973.2" y="592.8" transform="matrix(0.3204 -0.9473 0.9473 0.3204 92.6298 1363.241)" class="st15" width="46.5" height="48.6"/>
		
			<rect x="995" y="570.8" transform="matrix(0.3204 -0.9473 0.9473 0.3204 115.7893 1356.1619)" class="st15" width="16.3" height="53.3"/>
		<g>
			<defs>
				<polygon id="SVGID_12_" points="975.3,596.6 977.5,597.4 966,631.3 1012,646.9 1023.5,612.9 1025.7,613.7 1031,598.2 
					980.5,581.2 				"/>
			</defs>
			<clipPath id="SVGID_13_">
				<use xlink:href="#SVGID_12_"  style="overflow:visible;"/>
			</clipPath>
			<g class="st43">
				<g>
					<line class="st44" x1="1010" y1="646" x2="1026.6" y2="596.8"/>
					<line class="st44" x1="995.8" y1="641.2" x2="1012.4" y2="592"/>
					<line class="st44" x1="981.6" y1="636.4" x2="998.2" y2="587.2"/>
					<line class="st44" x1="967.3" y1="631.6" x2="984" y2="582.4"/>
					<line class="st44" x1="962.5" y1="626.3" x2="1019.3" y2="645.5"/>
					<line class="st44" x1="967.3" y1="612.1" x2="1024.1" y2="631.3"/>
					<line class="st44" x1="972.2" y1="597.9" x2="1028.9" y2="617.1"/>
					<line class="st44" x1="977" y1="583.7" x2="1033.7" y2="602.9"/>
				</g>
			</g>
		</g>
		<line class="st45" x1="977.4" y1="597.7" x2="1023.4" y2="613.2"/>
		<line class="st46" x1="993.9" y1="640.8" x2="1005.8" y2="589.5"/>
		<line class="st46" x1="984.8" y1="637.7" x2="1005.8" y2="589.5"/>
		<path class="st46" d="M1005.5,589.9l4.3,0.5c2.3,0.2,4.7,0.4,6.7-0.6c1-0.4,1.7-1.4,1.7-2.4c-0.1-0.7-0.5-1.3-1.1-1.7
			c-0.6-0.3-1.3-0.5-2-0.5c-1.7,0-3.4,0.5-4.8,1.4c-1.4,0.9-2.8,1.9-4.1,3"/>
		<path class="st46" d="M1005.7,589.7c-2-0.9-3.7-2.4-4.8-4.4c-1.1-1.8-2-3.9-1.2-5.8c0.1-0.3,0.3-0.5,0.5-0.7
			c0.5-0.2,1.1-0.2,1.5,0.2c2,1.1,3,3.4,3.8,5.5c0.6,1.6,1.2,3.5,0.3,5"/>
		<path class="st46" d="M995.3,597.4c2.3-3.9,6.2-6.6,10.6-7.6"/>
		<path class="st46" d="M1006.4,603.7c1.4-4.5,1.3-9.4-0.2-13.9"/>
		<path class="st47" d="M1062.7,682.7c-5.8,5.8-21.9,19.1-21.9,19.1c-9.6-28.8-32.1-50.1-36.6-56.5s-5.8-18.5-12.1-21.7
			s-13.4-13.4-16.6-12.8s1.3,8.9,1.9,11.5c-1.9,9.6-16,5.1-5.8,16.6s15.2,7.9,19.4,13.6c-1.3,16,31.1,68.8,40.8,77
			s46.1-26.4,46.1-26.4C1077.9,688.4,1062.7,682.7,1062.7,682.7z"/>
		<path class="st48" d="M1031.6,729.8l0.2,0.2l2.4,2c50,43.3,60.8,31.1,61.9,29.5c-0.9,1.5-8.4,13.7-12,19.7c-0.2,0-0.2,0.1-0.2,0.2
			l-1-0.4c-20.8-4.4-91.2-56.2-110.6-67.5c-4.1-2.4-8.4-4.3-13-5.5C975.3,699.5,975.2,686.4,1031.6,729.8z"/>
		<path class="st49" d="M959.3,708.1L959.3,708.1"/>
		<path class="st48" d="M862,797.6c16.2-6.8,32.1-14.1,47.7-22c4.1-2.1,42.6-23.6,43.2-22.8c3.1,3.7,6.3,7.4,9.5,11.1
			c-20.6,10.8-78.7,40.3-114.7,49.4c-0.4,0-0.8-0.1-1.2-0.2c-3.1-0.6-5.4-3.2-5.7-6.3C848.2,803.7,855.3,800.4,862,797.6z"/>
		<path class="st50" d="M840.8,806.7c-0.1-0.4-0.1-0.8-0.1-1.2"/>
		<path class="st49" d="M969.9,759.8c0,0-2.8,1.5-7.5,4"/>
		<path class="st47" d="M782.8,799.1l6.1-4.1c-0.2,0.2-4.2,5.7,12.1,18l-3.1,1.1l0,0l-12.3,4.2h-0.1l-13.7-11.5l-0.2-0.1
			L782.8,799.1z"/>
		<path class="st51" d="M754.8,803.2c9.9,4.7,14.8,4.4,16.9,3.6c0.6-0.2,1.1-0.5,1.6-1l12.1,12.1l0.1,0.3c0,0.1,0.1,0.3,0.1,0.4
			c0.6,2,0.8,4.2,0.4,6.3c-1,5.7-5.7,9.5-12,4.8c-8.8-6.6-43-8-44.3-21.7c0-0.1,0-0.2,0-0.3l0,0
			C728.9,797.1,739.8,796.1,754.8,803.2z"/>
		<path class="st52" d="M729.6,807.7c39.4,19.3,56.4,17.2,56.4,17.2"/>
		<path class="st47" d="M840.8,806.7c0.3,3.1,2.6,5.7,5.7,6.3c-2.5,0-7.9,0.5-11.3,4.8c-0.1,0.2-0.3,0.3-0.4,0.5
			c0,0-9.5-0.4-12.8-5.4C828.5,811.3,834.7,809.2,840.8,806.7z"/>
		<path class="st51" d="M785.6,818.3l12.3-4.2l0,0c0.8,0.3,1.3,0.4,1.3,0.4c7.5,1.1,15.3,0.3,22.9-1.5c3.3,5,12.8,5.4,12.8,5.4
			c0.1-0.2,0.2-0.3,0.4-0.5c-1.6,2.4-2.7,5.2-2.9,8.1c-1.3,14.7-27.1,2.9-46.3-1c0.4-2.1,0.2-4.2-0.4-6.3
			C785.6,818.5,785.6,818.4,785.6,818.3z"/>
		<path class="st50" d="M786.1,824.9H786"/>
		<path class="st52" d="M785.4,818.6c34.4,9.2,46.4,9.7,46.4,9.7"/>
		<path class="st53" d="M1120.3,628.8c-8.3-1.9-17,1-22.4,7.6l-21.6,27.6c-3.3-11.1,3.4-36,13.9-43.8c6.2-4.6,14.5-12.2,26-26.2
			l0.2-0.2c0,0,37.7,0.6,65.8,99c11.8,41.2,10.1,76.2,0.9,102.6l-0.3,0.1c-3.8,0.9-39.5,7.9-98.9-13.9c0.2,0,0.2-0.1,0.2-0.2
			c0-0.1,0-0.2,0.2-0.2c3.6-6,11.1-18.2,12-19.7l0.1-0.2c0,0-11.5-16.6-5.8-47.3c0.5-10.3-1.5-14.8-2.2-16.3
			c19.3-14.5,29.8-29.6,38.3-38.3c4.5-4.5,6.8-10.9,6-17.3C1131.3,633.8,1126,630.1,1120.3,628.8z"/>
		<path class="st48" d="M783,797.5l159.7-88.2c0,0,5.6-4.1,16.7-1.3c4.6,1.2,8.9,3.1,13,5.5c19.4,11.3,89.8,63.1,110.6,67.5l1,0.4
			c58.8,21.4,94.9,14.9,98.7,14.1l0.3-0.1c-0.9,1.9-7.7,16.8-9.2,18.7c-19.3,24-42.5,40.2-73,35.7c-18.3-2.7-35.9-10.2-52.4-18.3
			c-33.5-16.4-61.6-40.1-86.1-67.7c-3.2-3.6-6.4-7.3-9.5-11.1c-0.6-0.8-39.1,20.7-43.2,22.8c-15.7,7.9-31.6,15.2-47.7,22
			c-6.7,2.8-13.8,6.1-21.2,9.1c-6.1,2.5-12.3,4.6-18.7,6.2c-7.7,1.9-15.4,2.7-22.9,1.5c0,0-0.5-0.1-1.3-0.4l0,0
			c-3.9-1.2-14.8-5.5-15-15C782.8,798.6,782.9,798,783,797.5z"/>
		<path class="st47" d="M1087.9,584.5c8.3,0.6,11.5,3.8,11.5-3.2c0,0,0.1-0.2,0.1-0.7l16.5,12.8l0.2,0.5c-11.5,14-19.8,21.6-26,26.2
			l0,0c-0.3-9-11.5-18-11.5-18C1088.9,592.5,1087.9,584.5,1087.9,584.5z"/>
		<line class="st50" x1="1099.5" y1="580.7" x2="1099.1" y2="580.3"/>
		<path d="M1030.7,564.9c2.3-5.3,4.2-10.9,6.8-15.8l0.2-0.4c5.3-10,13.2-17,31.7-12c32.9,8.8,30.7,39.3,30.1,44.1
			c-0.1,0.4-0.1,0.7-0.1,0.7c0,7-3.2,3.8-11.5,3.2c-8.3-0.6-9.6-5.1-9.6-5.1c12.1-13.4-7-18.5-6.4-16c0,9-4.5,7.7-4.5,7.7
			c-3.2-9.6-13.4-16.6-16.6-12.8c-6.1,9.5-13.4,14.1-19,16.4c-2.7,1.2-5.6,1.9-8.5,2.2C1026.5,573.6,1028.7,569.3,1030.7,564.9z"/>
		<path class="st47" d="M1050.8,558.3c3.2-3.8,13.4,3.2,16.6,12.8c0,0,4.5,1.3,4.5-7.7c-0.6-2.5,18.5,2.6,6.4,16
			c0,0,1.3,4.5,9.6,5.1c0,0,1,8-9.3,17.6c-2,0.7-8.1,14.6-24,1.6c-9.6-7.9-17.4-17.8-22.8-29
			C1037.4,572.4,1044.8,567.8,1050.8,558.3z"/>
		<path class="st54" d="M1061,682.9l15.8-20.2l21.6-27.6c5.4-6.6,14.1-9.5,22.4-7.6c5.7,1.4,10.9,5.1,12.2,13.6
			c0.9,6.3-1,12.6-5.1,17.5c-8,9.6-19.1,24-38.4,38.5c-3.7,2.8-7.6,5.5-11.9,8.2C1077.7,705.2,1080.2,688.6,1061,682.9z"/>
		<path d="M1040.9,558c-12.1,10.2-20.4,9.6-20.4,9.6c8.3-1.9,17.2-19,17.2-19L1040.9,558z"/>
	</g>
</g>
</svg>
